<svg xmlns="http://www.w3.org/2000/svg" xmlns:svg="http://www.w3.org/2000/svg" id="Capa_1" width="512" height="512" x="0" y="0" version="1.1" viewBox="0 0 41.999 41.999" xml:space="preserve" style="enable-background:new 0 0 41.999 41.999"><metadata id="metadata39"/><g style="stroke:none;fill:#fff;fill-opacity:1" id="layer1" transform="matrix(2.6249375,0,0,2.6249375,-7.8748125,-2712.5112)"><path style="fill:#fff;fill-opacity:1;stroke:none" id="rect4139" d="m 4,3 v 16 h 1 8 1 c 1.374765,-1.357993 2.779209,-2.768314 4,-4 V 13.59375 3 H 17 5 Z m 0.625,0.6250039 h 12.75 V 14 15.000004 H 14 v 1.1875 2.1875 H 13 4.625 Z" transform="translate(0,1030.3622)"/></g><g style="fill:#fff;fill-opacity:1;stroke:none" id="layer1-7" transform="matrix(1.5380493,0,0,1.5380493,4.0809577,-1580.6669)"><path style="fill:#fff;fill-opacity:1;stroke:none" id="rect4085" d="m 11,1049.3622 c -4.431966,0 -8,-3.568 -8,-8 0,-1.4417 0.382871,-2.7893 1.044922,-3.9551 l 0.738281,0.7383 C 4.285829,1039.1083 4,1040.1997 4,1041.3622 c 0,3.878 3.12203,7 7,7 1.162509,0 2.25389,-0.2858 3.216797,-0.7832 l 0.738281,0.7383 c -1.165789,0.662 -2.513364,1.0449 -3.955078,1.0449 z m 6.955078,-4.0449 -0.738281,-0.7383 C 17.714172,1043.6161 18,1042.5247 18,1041.3622 c 0,-3.878 -3.12203,-7 -7,-7 -1.16251,0 -2.25389,0.2858 -3.216797,0.7832 l -0.738281,-0.7383 c 1.165789,-0.662 2.513364,-1.0449 3.955078,-1.0449 4.431966,0 8,3.568 8,8 0,1.4417 -0.382871,2.7893 -1.044922,3.9551 z"/><rect style="color:#000;text-decoration:none;text-decoration-line:none;text-decoration-style:solid;text-decoration-color:#000;clip-rule:nonzero;display:inline;overflow:visible;visibility:visible;opacity:1;isolation:auto;mix-blend-mode:normal;color-interpolation:sRGB;color-interpolation-filters:linearRGB;solid-color:#000;solid-opacity:1;fill:#fff;fill-opacity:1;fill-rule:nonzero;stroke:none;stroke-width:1;stroke-linecap:butt;stroke-linejoin:miter;stroke-miterlimit:4;stroke-dasharray:none;stroke-dashoffset:0;stroke-opacity:1;color-rendering:auto;image-rendering:auto;shape-rendering:auto;text-rendering:auto;enable-background:accumulate" id="rect4336" width="1" height="4" x="-726.451" y="737.39" transform="rotate(-45)"/><rect style="color:#000;text-decoration:none;text-decoration-line:none;text-decoration-style:solid;text-decoration-color:#000;clip-rule:nonzero;display:inline;overflow:visible;visibility:visible;opacity:1;isolation:auto;mix-blend-mode:normal;color-interpolation:sRGB;color-interpolation-filters:linearRGB;solid-color:#000;solid-opacity:1;fill:#fff;fill-opacity:1;fill-rule:nonzero;stroke:none;stroke-width:1;stroke-linecap:butt;stroke-linejoin:miter;stroke-miterlimit:4;stroke-dasharray:none;stroke-dashoffset:0;stroke-opacity:1;color-rendering:auto;image-rendering:auto;shape-rendering:auto;text-rendering:auto;enable-background:accumulate" id="rect4336-5" width="1" height="4" x="-731.695" y="746.88" transform="rotate(-45)"/></g></svg>