<svg xmlns="http://www.w3.org/2000/svg" xmlns:svg="http://www.w3.org/2000/svg" xmlns:xlink="http://www.w3.org/1999/xlink" id="svg5923" width="48" height="48" version="1.1"><defs id="defs5925"><linearGradient id="linearGradient4193" x1="80.01" x2="65.688" y1="55.999" y2="56.056" gradientTransform="matrix(0.70710678,-0.70710678,0.70710678,0.70710678,-16.166522,72.970553)" gradientUnits="userSpaceOnUse" xlink:href="#linearGradient4214"/><linearGradient id="linearGradient4214"><stop id="stop4216" offset="0" style="stop-color:#fff;stop-opacity:1"/><stop style="stop-color:#fff;stop-opacity:.47058824" id="stop4218" offset=".794"/><stop id="stop4220" offset="1" style="stop-color:#fff;stop-opacity:0"/></linearGradient><linearGradient id="linearGradient5957" x1="80.01" x2="65.688" y1="55.999" y2="56.056" gradientTransform="matrix(0.70710678,-0.70710678,0.70710678,0.70710678,-16.166522,72.970553)" gradientUnits="userSpaceOnUse" xlink:href="#linearGradient4214"/><linearGradient id="linearGradient3979" x1="32" x2="32" y1="60" y2="68" gradientUnits="userSpaceOnUse" xlink:href="#linearGradient3965"/><linearGradient id="linearGradient3965"><stop style="stop-color:#fff;stop-opacity:1" id="stop3967" offset="0"/><stop style="stop-color:#fff;stop-opacity:0" id="stop3969" offset="1"/></linearGradient><linearGradient id="linearGradient6037" x1="32" x2="32" y1="60" y2="68" gradientUnits="userSpaceOnUse" xlink:href="#linearGradient3965"/></defs><metadata id="metadata5928"/><g id="layer1" transform="translate(0,-1004.3622)"><g id="g3974" transform="matrix(1.5,0,0,1.5,-23.999998,932.3622)" style="display:inline"><path id="path3850-7" d="m 184,184 c -17.67311,0 -32,14.32689 -32,32 0,17.67311 14.32689,32 32,32 17.67311,0 32,-14.32689 32,-32 0,-17.67311 -14.32689,-32 -32,-32 z m 0,5.33333 c 14.72759,0 26.66666,11.93907 26.66666,26.66667 0,14.72759 -11.93907,26.66666 -26.66666,26.66666 -14.7276,0 -26.66667,-11.93907 -26.66667,-26.66666 0,-14.7276 11.93907,-26.66667 26.66667,-26.66667 z" transform="matrix(0.50000001,0,0,0.50000001,-60.000002,-44.000002)" style="color:#000;fill:#fff;fill-opacity:1;fill-rule:nonzero;stroke:none;stroke-width:1.5;marker:none;visibility:visible;display:inline;overflow:visible;enable-background:accumulate"/><path id="path3953" d="m 40,64 c 0,4.418278 -3.581722,8 -8,8 -4.418278,0 -8,-3.581722 -8,-8 0,-4.418278 3.581722,-8 8,-8 4.418278,0 8,3.581722 8,8 z" style="color:#000;fill:none;stroke:#fff;stroke-width:1.33333337;stroke-miterlimit:4;stroke-opacity:1;stroke-dasharray:none;marker:none;visibility:visible;display:inline;overflow:visible;enable-background:accumulate"/><rect id="rect3955" width="10" height="10" x="27" y="59" rx="0" ry="0" style="color:#000;fill:url(#linearGradient6037);fill-opacity:1;stroke:#fff;stroke-width:1.33333337;stroke-linecap:round;stroke-linejoin:round;stroke-miterlimit:4;stroke-opacity:1;stroke-dasharray:none;stroke-dashoffset:0;marker:none;visibility:visible;display:inline;overflow:visible;enable-background:accumulate"/></g></g></svg>