<svg xmlns="http://www.w3.org/2000/svg" xmlns:svg="http://www.w3.org/2000/svg" id="svg4244" width="48" height="48" version="1.1"><defs id="defs4246"><linearGradient id="linearGradient4214-9-6-6-9-1"><stop id="stop4216-3-1-6-7-6" offset="0" style="stop-color:#fff;stop-opacity:1"/><stop style="stop-color:#fff;stop-opacity:.47058824" id="stop4218-02-2-7-8-8" offset=".794"/><stop id="stop4220-56-7-0-5-4" offset="1" style="stop-color:#fff;stop-opacity:0"/></linearGradient><linearGradient id="linearGradient6412-1"><stop id="stop6414-0" offset="0" style="stop-color:#fff;stop-opacity:.58823532"/><stop style="stop-color:#fff;stop-opacity:1" id="stop6478-9" offset=".4"/><stop id="stop6416-0" offset="1" style="stop-color:#fff;stop-opacity:0"/></linearGradient><linearGradient id="linearGradient6430-8"><stop id="stop6432-4" offset="0" style="stop-color:#fff;stop-opacity:1"/><stop id="stop6434-0" offset="1" style="stop-color:#fff;stop-opacity:0"/></linearGradient><linearGradient id="linearGradient4214-9-6-6-9"><stop id="stop4216-3-1-6-7" offset="0" style="stop-color:#0078b4;stop-opacity:1"/><stop style="stop-color:#0078b4;stop-opacity:.47058824" id="stop4218-02-2-7-8" offset=".794"/><stop id="stop4220-56-7-0-5" offset="1" style="stop-color:#0078b4;stop-opacity:0"/></linearGradient><linearGradient id="linearGradient6412"><stop id="stop6414" offset="0" style="stop-color:#0078b4;stop-opacity:.58823532"/><stop style="stop-color:#0078b4;stop-opacity:1" id="stop6478" offset=".4"/><stop id="stop6416" offset="1" style="stop-color:#0078b4;stop-opacity:0"/></linearGradient><linearGradient id="linearGradient6430"><stop id="stop6432" offset="0" style="stop-color:#0078b4;stop-opacity:1"/><stop id="stop6434" offset="1" style="stop-color:#0078b4;stop-opacity:0"/></linearGradient><linearGradient id="linearGradient4214-9-6-6-9-8"><stop id="stop4216-3-1-6-7-0" offset="0" style="stop-color:#0078b4;stop-opacity:1"/><stop style="stop-color:#0078b4;stop-opacity:.47058824" id="stop4218-02-2-7-8-2" offset=".794"/><stop id="stop4220-56-7-0-5-41" offset="1" style="stop-color:#0078b4;stop-opacity:0"/></linearGradient></defs><metadata id="metadata4249"/><g id="layer1"><g style="display:inline" id="g4591" transform="translate(-80,-8)"><g id="g3450-9-0" transform="matrix(1.2,0,0,1.2,32,-78.4)" style="fill:#fff;fill-opacity:1;display:inline"><path style="color:#000;fill:#fff;fill-opacity:1;fill-rule:nonzero;stroke:none;stroke-width:1.5;marker:none;visibility:visible;display:inline;overflow:visible;enable-background:accumulate" id="path3850-7-4-8-4-0-5" d="M 60,72 C 48.95431,72 40,80.954308 40,91.999999 40,103.04569 48.95431,112 60,112 71.04569,112 80,103.04569 80,91.999999 80,80.954308 71.04569,72 60,72 z m 0,3.333333 c 9.20474,0 16.66666,7.461916 16.66666,16.666666 0,9.204741 -7.46192,16.666661 -16.66666,16.666661 -9.20475,0 -16.66667,-7.46192 -16.66667,-16.666661 0,-9.20475 7.46192,-16.666666 16.66667,-16.666666 z"/></g><path id="path4530" d="m 104,16 -4,8 3,0 0,7 -7,0 0,-3 -8,4 8,4 0,-3 7,0 0,7 -3,0 4,8 4,-8 -3,0 0,-7 7,0 0,3 8,-4 -8,-4 0,3 -7,0 0,-7 3,0 -4,-8 z" style="fill:#fff;fill-opacity:1;stroke:none"/></g></g></svg>