<svg xmlns="http://www.w3.org/2000/svg" xmlns:svg="http://www.w3.org/2000/svg" id="svg8" width="16" height="16" version="1.1" viewBox="0 0 16 16"><metadata id="metadata12"/><defs id="defs3051"><style id="current-color-scheme" type="text/css">.ColorScheme-Text{color:#373737}.ColorScheme-Highlight{color:#3daee9}</style><style id="current-color-scheme-6" type="text/css">.ColorScheme-Text{color:#373737}.ColorScheme-Highlight{color:#3daee9}</style></defs><g id="g4506" transform="translate(-3,-3.5)"><path id="path4493" d="M 3.0019531,3.4960931 3,3.4980462 V 4.49414 L 3.00195,4.49609 C 6,4.5 8,12.5 8,15.5 l 1,-1 C 9,11.5 7,3.5 3.0019531,3.4960931 Z M 9,4.5 v 3 h 1 v 1 h 1 v -1 h 1 v -3 z m 9,-1 c 0,7 -4,11 -7,12 v 1 c 4,-1 8.000357,-6.000843 8,-13 z m -8,2 h 1 v 1 h -1 z m 0,4 v 1 h 1 v -1 z m 0,2 v 1 h 1 v -1 z m 6,4 v 1 h -1 v 1 h 1 v 1 h 3 v -3 z m -3,1 v 1 h 1 v -1 z m 4,0 h 1 v 1 h -1 z" class="ColorScheme-Text" style="color:#373737;fill:#cacaca;fill-opacity:1;stroke:none"/><path id="path4495" d="m 7,13.5 v 5 h 5 v -5 z m 2,2 h 1 v 1 H 9 Z" class="ColorScheme-Highlight" style="color:#3daee9;fill:currentColor;fill-opacity:1;stroke:none;stroke-width:1"/></g></svg>