<svg xmlns="http://www.w3.org/2000/svg" xmlns:svg="http://www.w3.org/2000/svg" id="svg2" width="32" height="32" version="1.1" viewBox="0 0 32 32"><metadata id="metadata7"/><g style="display:inline" id="g4192"><path style="display:inline;opacity:.98999999;fill:#cacaca;fill-opacity:1;stroke:none;stroke-width:2;stroke-linecap:square;stroke-linejoin:miter;stroke-miterlimit:4;stroke-dasharray:none;stroke-dashoffset:1;stroke-opacity:1" id="path4200" d="M 0 18 L 0 32 L 14 32 L 14 18 L 0 18 z M 8 22 L 10 22 L 10 24 L 8 24 L 8 26 L 8 28 L 4 28 L 4 26 L 4 24 L 6 24 L 8 24 L 8 22 z"/><path style="display:inline;opacity:.98999999;fill:#cacaca;fill-opacity:1;stroke:none;stroke-width:2;stroke-linecap:square;stroke-linejoin:miter;stroke-miterlimit:4;stroke-dasharray:none;stroke-dashoffset:1;stroke-opacity:1" id="path4200-7" d="m 18,18 0,14 14,0 0,-14 -14,0 z m 8,4 2,0 0,2 -2,0 0,2 0,2 -4,0 0,-2 0,-2 2,0 2,0 0,-2 z"/><path style="display:inline;opacity:.98999999;fill:#cacaca;fill-opacity:1;stroke:none;stroke-width:2;stroke-linecap:square;stroke-linejoin:miter;stroke-miterlimit:4;stroke-dasharray:none;stroke-dashoffset:1;stroke-opacity:1" id="path4200-3" d="M 18,-3.3749998e-7 18,14 32,14 32,-3.3749998e-7 l -14,0 z M 26,3.9999997 l 2,0 0,2 -2,0 0,2 0,2 -4,0 0,-2 0,-2 2,0 2,0 0,-2 z"/><path style="display:inline;opacity:.98999999;fill:#cacaca;fill-opacity:1;stroke:none;stroke-width:2;stroke-linecap:square;stroke-linejoin:miter;stroke-miterlimit:4;stroke-dasharray:none;stroke-dashoffset:1;stroke-opacity:1" id="path4200-9" d="M 0,-3.3749998e-7 0,14 14,14 14,-3.3749998e-7 l -14,0 z M 8,3.9999997 l 2,0 0,2 -2,0 0,2 0,2 -4,0 0,-2 0,-2 2,0 2,0 0,-2 z"/></g></svg>