<svg xmlns="http://www.w3.org/2000/svg" xmlns:svg="http://www.w3.org/2000/svg" id="svg3760" width="24" height="24" version="1.1"><metadata id="metadata3765"/><g id="layer1" transform="translate(-550.28572,-606.6479)"><path style="fill:#e6e6e6;fill-opacity:1;stroke:none;stroke-width:.02835826px;stroke-linecap:butt;stroke-linejoin:miter;stroke-opacity:1" id="path6264-9" d="m 562.24603,614.71355 c 0.19017,0.25356 0.0475,0.9191 -0.31694,1.34696 -0.36448,0.42786 -3.04573,3.41137 -3.04573,3.41137 l -1.06174,-1.06171 3.09328,-3.15784 c 0,0 0.80819,-0.80818 1.33113,-0.53878 z"/><path style="fill:#e6e6e6;fill-opacity:1;stroke:none;stroke-width:.02835826px;stroke-linecap:butt;stroke-linejoin:miter;stroke-opacity:1" id="path6266-0" d="m 558.67735,619.80465 c 0,0 -0.0698,0.75957 -0.38033,1.18853 -0.33278,0.45957 -1.12511,0.36447 -1.58467,0.45957 -0.50709,0.25356 -0.53879,0.49123 -0.71309,0.87156 -0.17434,0.38032 -0.14264,0.52295 -0.39618,0.79233 -0.11095,-0.15838 -0.26939,-1.17266 -0.30109,-1.63219 0.0159,-0.38035 0.11095,-1.47375 0.91912,-2.07593 0.80818,-0.60217 1.23604,-0.79235 1.23604,-0.79235 z"/><rect style="fill:none;fill-opacity:1;stroke:#e6e6e6;stroke-width:.91204602;stroke-miterlimit:4;stroke-dasharray:none;stroke-opacity:1" id="rect4583-7-0" width="11.712" height="10.827" x="552.232" y="613.342"/><path style="fill:#e6e6e6;fill-opacity:1;stroke:none;stroke-width:.47142518;stroke-miterlimit:4;stroke-dasharray:none;stroke-opacity:1" id="path6465-9-1-7-8" d="m 15.675568,272.07336 -1.411776,0 -1.411776,0 0.705888,-1.22263 0.705888,-1.22264 0.705888,1.22264 z" transform="matrix(2.4264793,0,0,2.6933917,534.60127,-110.98208)"/></g></svg>