<svg xmlns="http://www.w3.org/2000/svg" xmlns:svg="http://www.w3.org/2000/svg" id="svg8" width="16" height="16" version="1.1" viewBox="0 0 16 16"><metadata id="metadata12"/><defs id="defs3051"><style id="current-color-scheme" type="text/css">.ColorScheme-Text{color:#373737}.ColorScheme-Highlight{color:#3daee9}</style><style id="current-color-scheme-6" type="text/css">.ColorScheme-Text{color:#373737}.ColorScheme-Highlight{color:#3daee9}</style></defs><g id="g4525" transform="translate(-1,-2)"><path id="path4512" d="m 1,2 c 0,8 3,13 7,12.984375 V 13.980469 C 5,14 2,9 2,2 Z m 15,0 c 0,7 -3,12 -6,11.970703 V 15 c 4,0 7,-5 7,-13 z M 1,14 v 3 H 4 V 16 H 5 V 15 H 4 v -1 z m 13,0 v 1 h -1 v 1 h 1 v 1 h 3 V 14 Z M 2,15 h 1 v 1 H 2 Z m 4,0 v 1 h 1 v -1 z m 5,0 v 1 h 1 v -1 z m 4,0 h 1 v 1 h -1 z" class="ColorScheme-Text" style="color:#373737;fill:#cacaca;fill-opacity:1;stroke:none"/><path id="path4514" d="m 9,11 -4,7 h 8 z m 0,3 1,2 H 8 Z" class="ColorScheme-Highlight" style="color:#3daee9;fill:currentColor;fill-opacity:1;stroke:none"/></g></svg>