<svg xmlns="http://www.w3.org/2000/svg" xmlns:svg="http://www.w3.org/2000/svg" id="svg3049" width="16" height="16" version="1.1"><metadata id="metadata3054"/><g id="layer1" transform="translate(-421.71429,-531.79074)"><path style="opacity:1;vector-effect:none;fill:#cacaca;fill-opacity:1;stroke:none;stroke-width:5;stroke-linecap:butt;stroke-linejoin:miter;stroke-miterlimit:4;stroke-dasharray:none;stroke-dashoffset:0;stroke-opacity:1" id="path866" d="m 429.71429,536.79074 a 4,3.9999852 0 0 0 -4,4 4,3.9999852 0 0 0 4,4 4,3.9999852 0 0 0 4,-4 4,3.9999852 0 0 0 -4,-4 z m 0,1 a 3,3 0 0 1 3,3 3,3 0 0 1 -3,3 3,3 0 0 1 -3,-3 3,3 0 0 1 3,-3 z"/><rect style="opacity:1;vector-effect:none;fill:#cacaca;fill-opacity:1;stroke:none;stroke-width:5;stroke-linecap:butt;stroke-linejoin:miter;stroke-miterlimit:4;stroke-dasharray:none;stroke-dashoffset:0;stroke-opacity:1" id="rect871" width="16" height="1" x="421.714" y="545.791"/><rect style="opacity:1;vector-effect:none;fill:#cacaca;fill-opacity:1;stroke:none;stroke-width:5;stroke-linecap:butt;stroke-linejoin:miter;stroke-miterlimit:4;stroke-dasharray:none;stroke-dashoffset:0;stroke-opacity:1" id="rect873" width="1" height="11" x="421.714" y="535.791"/><rect style="opacity:1;vector-effect:none;fill:#cacaca;fill-opacity:1;stroke:none;stroke-width:5;stroke-linecap:butt;stroke-linejoin:miter;stroke-miterlimit:4;stroke-dasharray:none;stroke-dashoffset:0;stroke-opacity:1" id="rect875" width="4" height="1" x="421.714" y="535.791"/><rect style="opacity:1;vector-effect:none;fill:#cacaca;fill-opacity:1;stroke:none;stroke-width:4.7871418;stroke-linecap:butt;stroke-linejoin:miter;stroke-miterlimit:4;stroke-dasharray:none;stroke-dashoffset:0;stroke-opacity:1" id="rect877" width="1" height="11" x="436.714" y="535.791"/><rect style="opacity:1;vector-effect:none;fill:#cacaca;fill-opacity:1;stroke:none;stroke-width:5;stroke-linecap:butt;stroke-linejoin:miter;stroke-miterlimit:4;stroke-dasharray:none;stroke-dashoffset:0;stroke-opacity:1" id="rect879" width="3" height="1" x="434.714" y="533.791"/><path style="opacity:1;vector-effect:none;fill:#cacaca;fill-opacity:1;stroke:none;stroke-width:5;stroke-linecap:butt;stroke-linejoin:miter;stroke-miterlimit:4;stroke-dasharray:none;stroke-dashoffset:0;stroke-opacity:1" id="path883" d="M 8,1 A 5,5 0 0 0 3.1054688,5 H 4.1328125 A 4,4.0000148 0 0 1 8,2 4,4.0000148 0 0 1 11.869141,5 h 1.029297 A 5,5 0 0 0 8,1 Z" transform="translate(421.71429,531.79074)"/><rect style="opacity:1;vector-effect:none;fill:#cacaca;fill-opacity:1;stroke:none;stroke-width:5;stroke-linecap:butt;stroke-linejoin:miter;stroke-miterlimit:4;stroke-dasharray:none;stroke-dashoffset:0;stroke-opacity:1" id="rect875-3" width="4" height="1" x="433.714" y="535.791"/></g></svg>