<svg xmlns="http://www.w3.org/2000/svg" xmlns:svg="http://www.w3.org/2000/svg" id="Capa_1" width="32" height="32" x="0" y="0" version="1.1" viewBox="0 0 32 32" xml:space="preserve"><metadata id="metadata47"/><g id="g3" transform="translate(0,-455.70001)"><path style="fill:#cacaca;fill-opacity:1;fill-rule:evenodd;stroke:none;stroke-width:1px;stroke-linecap:butt;stroke-linejoin:miter;stroke-opacity:1" id="path838" d="M 11,4 10,9 2,11 V 28 H 30 V 11 L 22,9 21,4 Z m 1,2 h 8 l 1,5 7,2 V 26 H 4 V 13 l 7,-2 z" transform="translate(0,455.70001)"/><path style="color:#000;clip-rule:nonzero;display:inline;overflow:visible;visibility:visible;opacity:1;isolation:auto;mix-blend-mode:normal;color-interpolation:sRGB;color-interpolation-filters:linearRGB;solid-color:#000;solid-opacity:1;fill:#cacaca;fill-opacity:1;fill-rule:evenodd;stroke:none;stroke-width:1;stroke-linecap:square;stroke-linejoin:miter;stroke-miterlimit:4;stroke-dasharray:none;stroke-dashoffset:0;stroke-opacity:1;marker:none;color-rendering:auto;image-rendering:auto;shape-rendering:auto;text-rendering:auto;enable-background:accumulate" id="path850" d="m 16,466.70001 c -3.865993,0 -7,3.13401 -7,7 0,3.86599 3.134007,7 7,7 3.865993,0 7,-3.13401 7,-7 0,-3.86599 -3.134007,-7 -7,-7 z m 0,2 c 2.761424,0 5,2.23858 5,5 0,2.76142 -2.238576,5 -5,5 -2.761424,0 -5,-2.23858 -5,-5 0,-2.76142 2.238576,-5 5,-5 z"/><path style="fill:#cacaca;fill-rule:evenodd;stroke:none;stroke-width:1px;stroke-linecap:butt;stroke-linejoin:miter;stroke-opacity:1;fill-opacity:1" id="path859" d="m 28,465.70001 v -2 h -4 v 1 z"/></g></svg>