<svg xmlns="http://www.w3.org/2000/svg" xmlns:svg="http://www.w3.org/2000/svg" id="svg6190" width="22" height="22" version="1.1"><metadata id="metadata6196"/><path style="color:#000;fill:#373737;fill-opacity:1;fill-rule:nonzero;stroke:none;stroke-width:1;marker:none;visibility:visible;display:inline;overflow:visible;enable-background:accumulate" id="path6348" d="M 2 4 L 2 6 L 2 17 L 4 17 L 4.375 17 L 5.75 15 L 5 15 L 5 6 L 11.9375 6 L 13.3125 4 L 4 4 L 2 4 z M 17.3125 4 L 15.9375 6 L 17 6 L 17 15 L 9.75 15 L 8.375 17 L 20 17 L 20 15 L 20 6 L 20 4 L 18 4 L 17.3125 4 z M 3 5 L 4 5 L 4 6 L 3 6 L 3 5 z M 17.96875 5 L 18.96875 5 L 18.96875 6 L 17.96875 6 L 17.96875 5 z M 3 7 L 4 7 L 4 8 L 3 8 L 3 7 z M 17.96875 7 L 18.96875 7 L 18.96875 8 L 17.96875 8 L 17.96875 7 z M 3 9 L 4 9 L 4 10 L 3 10 L 3 9 z M 17.96875 9 L 18.96875 9 L 18.96875 10 L 17.96875 10 L 17.96875 9 z M 3 11 L 4 11 L 4 12 L 3 12 L 3 11 z M 17.96875 11 L 18.96875 11 L 18.96875 12 L 17.96875 12 L 17.96875 11 z M 3 13 L 4 13 L 4 14 L 3 14 L 3 13 z M 17.96875 13 L 18.96875 13 L 18.96875 14 L 17.96875 14 L 17.96875 13 z M 3 15 L 4 15 L 4 16 L 3 16 L 3 15 z M 17.96875 15 L 18.96875 15 L 18.96875 16 L 17.96875 16 L 17.96875 15 z"/><path style="color:#000;fill:#373737;fill-opacity:1;fill-rule:nonzero;stroke:none;stroke-width:1;marker:none;visibility:visible;display:inline;overflow:visible;enable-background:accumulate" id="path3370" d="M 15.65625 2 L 4 19 L 6 19 L 17.65625 2 L 15.65625 2 z"/></svg>