<svg xmlns="http://www.w3.org/2000/svg" xmlns:svg="http://www.w3.org/2000/svg" id="svg3071" width="16" height="16" version="1.1"><metadata id="metadata3077"/><g id="g5357" transform="matrix(0.24227062,0,0,0.24227062,-197.44864,-48.979043)" style="fill:#000"><path id="path5359" d="m 1099.9697,233.25606 a 32.884708,31.931528 0 1 1 -65.7694,0 32.884708,31.931528 0 1 1 65.7694,0 z" transform="matrix(0.91227812,0,0,0.93951031,-125.46529,16.041114)" style="color:#000;fill:#000;fill-opacity:0;fill-rule:nonzero;stroke:#373737;stroke-width:6.4809227;stroke-miterlimit:4;stroke-dasharray:none;marker:none;visibility:visible;display:inline;overflow:visible;enable-background:accumulate;stroke-opacity:1"/><g id="g5361" transform="translate(0.28948514,0.70769159)" style="fill:#000"><path id="path5363" d="m 848.0625,214.5625 c -3.61431,0.0873 -6.73195,1.30715 -8.6875,3.71875 -1.95555,2.4116 -2.63149,5.64093 -2.53125,9.3125 l 5,-0.15625 c -0.0814,-2.97982 0.50523,-4.88885 1.40625,-6 0.90102,-1.11115 2.27247,-1.81065 4.9375,-1.875 2.08995,-0.0505 3.40404,0.57429 4.375,1.75 0.97096,1.17571 1.6153,3.16269 1.46875,6.09375 -0.0819,1.63726 0.0352,4.55403 0.0937,7.40625 0.0294,1.42611 0.0363,2.8028 0.0312,3.875 -0.003,0.68231 -0.0501,1.32735 -0.0625,1.625 l -16.6875,0 c -1.49359,0 -2.71875,1.66508 -2.71875,3.71875 l 0,8.09375 c 0,2.05368 1.22516,3.6875 2.71875,3.6875 l 21.21875,0 c 1.49358,0 2.6875,-1.63382 2.6875,-3.6875 l 0,-8.09375 c 0,-1.81105 -0.91101,-3.32717 -2.15625,-3.65625 0.0281,-0.50733 -0.003,-0.97859 0,-1.65625 0.005,-1.16095 -0.002,-2.56119 -0.0312,-4 -0.0592,-2.87762 -0.14657,-6.00712 -0.0937,-7.0625 0.19045,-3.80894 -0.64682,-7.13592 -2.625,-9.53125 -1.97818,-2.39533 -5.04327,-3.64219 -8.34375,-3.5625 z" transform="translate(-0.28948514,-0.70769159)" style="color:#000;fill:#373737;fill-opacity:1;fill-rule:nonzero;stroke:none;stroke-width:5;marker:none;visibility:visible;display:inline;overflow:visible;enable-background:accumulate"/></g></g></svg>