<svg xmlns="http://www.w3.org/2000/svg" xmlns:svg="http://www.w3.org/2000/svg" id="svg2" width="22" height="22" version="1.1" viewBox="0 0 22 22"><metadata id="metadata7"/><g id="layer1" transform="translate(0,-1030.3622)"><g style="font-style:normal;font-variant:normal;font-weight:400;font-stretch:normal;font-size:13.33333302px;line-height:25px;font-family:Kabel;-inkscape-font-specification:Kabel;letter-spacing:0;word-spacing:0;fill:#373737;fill-opacity:1;stroke:none;stroke-width:1px;stroke-linecap:butt;stroke-linejoin:miter;stroke-opacity:1" id="text4527" aria-label="G"><path style="fill:#373737;fill-opacity:1" id="path4535" d="m 11.895833,1040.6552 -1.640625,2.054 q -1.0937499,-1.0937 -2.5488279,-1.0937 -0.065104,0 -0.1334636,0 -0.7324218,0.013 -1.3736979,0.4525 -0.6380208,0.4394 -1.0253906,1.1328 -0.3873698,0.7096 -0.3873698,1.4681 0,1.3476 0.8951823,2.2395 0.8789062,0.9083 2.2526041,0.9083 0.374349,0 0.9342448,-0.1205 0.5598958,-0.1204 0.5989583,-0.1595 v -1.6016 H 6.7070311 l 0.7877604,-2.2135 h 4.7330725 v 5.5469 q -0.05208,0.055 -0.680338,0.3353 -0.641276,0.2799 -1.6276043,0.5175 -0.9863281,0.2409 -2.0670573,0.2409 -1.6373697,0 -2.9850259,-0.7584 -1.3606771,-0.7618 -2.1191406,-2.0671 Q 2,1046.2542 2,1044.7502 q 0,-0.029 0,-0.055 0.026042,-1.5462 0.7617187,-2.8125 0.719401,-1.2663 2.0117187,-2.028 1.2792969,-0.7454 2.828776,-0.7585 0.039063,0 0.078125,0 1.7220052,0 2.7213536,0.5339 1.025391,0.5599 1.494141,1.0254 z"/></g><path style="color:#000;clip-rule:nonzero;display:inline;overflow:visible;visibility:visible;opacity:1;isolation:auto;mix-blend-mode:normal;color-interpolation:sRGB;color-interpolation-filters:linearRGB;solid-color:#000;solid-opacity:1;fill:#373737;fill-opacity:1;fill-rule:evenodd;stroke:none;stroke-width:1;stroke-linecap:square;stroke-linejoin:miter;stroke-miterlimit:4;stroke-dasharray:none;stroke-dashoffset:0;stroke-opacity:1;marker:none;color-rendering:auto;image-rendering:auto;shape-rendering:auto;text-rendering:auto;enable-background:accumulate" id="path4529" d="m 14.521367,1040.1231 -1.72156,-2.2109 -2.773665,0.398 1.570643,-2.3205 -1.235586,-2.5149 2.692271,0.7767 2.010031,-1.9523 0.09327,2.8005 2.477854,1.3084 L 15,1037.3622 Z"/><path style="color:#000;clip-rule:nonzero;display:inline;overflow:visible;visibility:visible;opacity:1;isolation:auto;mix-blend-mode:normal;color-interpolation:sRGB;color-interpolation-filters:linearRGB;solid-color:#000;solid-opacity:1;fill:#373737;fill-opacity:1;fill-rule:evenodd;stroke:none;stroke-width:1;stroke-linecap:square;stroke-linejoin:miter;stroke-miterlimit:4;stroke-dasharray:none;stroke-dashoffset:0;stroke-opacity:1;marker:none;color-rendering:auto;image-rendering:auto;shape-rendering:auto;text-rendering:auto;enable-background:accumulate" id="path4531" d="M 19.171509,1042.3301 18,1041.3622 l -1.421587,0.537 0.558515,-1.4133 -0.950007,-1.1861 1.516691,0.094 0.83445,-1.27 0.378852,1.4716 1.465725,0.4012 -1.282548,0.815 z"/><path style="color:#000;clip-rule:nonzero;display:inline;overflow:visible;visibility:visible;opacity:1;isolation:auto;mix-blend-mode:normal;color-interpolation:sRGB;color-interpolation-filters:linearRGB;solid-color:#000;solid-opacity:1;fill:#373737;fill-opacity:1;fill-rule:evenodd;stroke:none;stroke-width:1;stroke-linecap:square;stroke-linejoin:miter;stroke-miterlimit:4;stroke-dasharray:none;stroke-dashoffset:0;stroke-opacity:1;marker:none;color-rendering:auto;image-rendering:auto;shape-rendering:auto;text-rendering:auto;enable-background:accumulate" id="path4533" d="m 16.724978,1044.9836 -0.275023,-0.6214 -0.676034,-0.07 0.50606,-0.4536 -0.142789,-0.6645 0.587786,0.3411 0.587785,-0.3411 -0.142789,0.6645 0.50606,0.4536 -0.676034,0.07 z"/></g></svg>