<svg xmlns="http://www.w3.org/2000/svg" xmlns:svg="http://www.w3.org/2000/svg" id="svg4355" width="22" height="22" version="1.1"><metadata id="metadata4360"/><g id="layer1" transform="translate(-544.57141,-742.93359)"><path style="fill:#373737;fill-opacity:1;stroke:none" id="path6" d="m 555.55969,745.93316 -4.98828,4.99023 0,0.01 0,1 0,4 0,1 0,0.01 4.98828,4.9902 1.01172,0 0,-0.40234 0,-15.19532 0,-0.40234 -1.01172,0 z m 2.87695,0.53711 -0.24414,0.97656 a 7,7 0 0 1 4.37891,6.48633 7,7 0 0 1 -4.38086,6.47852 l 0.24414,0.9746 a 8,8 0 0 0 5.13672,-7.45312 8,8 0 0 0 -5.13477,-7.46289 z m 0.45899,3.74414 -0.53906,0.86133 a 4,4 0 0 1 1.21484,2.85742 4,4 0 0 1 -1.21094,2.86133 l 0.53907,0.86328 a 5,5 0 0 0 1.67187,-3.72461 5,5 0 0 0 -1.67578,-3.71875 z m -11.32422,0.71875 0,1 0,4 0,1 2,0 0,-1 0,-4 0,-1 -2,0 z" class="ColorScheme-Text"/></g></svg>