<svg xmlns="http://www.w3.org/2000/svg" xmlns:svg="http://www.w3.org/2000/svg" id="svg4355" width="22" height="22" version="1.1"><metadata id="metadata4360"/><g id="layer1" transform="translate(-544.57141,-742.93359)"><path style="opacity:1;fill:#373737;fill-opacity:1;stroke:none" id="path4162" d="m 547.57141,745.93359 0,1 0,3 1,0 0,-3 3,0 0,-1 -3,0 z"/><path style="opacity:1;fill:#373737;fill-opacity:1;stroke:none" id="rect4134" d="m 562.57141,757.93359 0,3 -3,0 0,1 4,0 0,-1 0,-3 z"/><path id="path4170" d="m 563.57141,745.93359 0,1 0,3 -1,0 0,-3 -3,0 0,-1 3,0 z" style="opacity:1;fill:#373737;fill-opacity:1;stroke:none"/><path id="path4172" d="m 548.57141,757.93359 0,3 3,0 0,1 -4,0 0,-1 0,-3 z" style="opacity:1;fill:#373737;fill-opacity:1;stroke:none"/><path style="color:#000;clip-rule:nonzero;display:inline;overflow:visible;visibility:visible;opacity:1;isolation:auto;mix-blend-mode:normal;color-interpolation:sRGB;color-interpolation-filters:linearRGB;solid-color:#000;solid-opacity:1;fill:#373737;fill-opacity:1;fill-rule:evenodd;stroke:none;stroke-width:1.5;stroke-linecap:square;stroke-linejoin:round;stroke-miterlimit:4;stroke-dasharray:none;stroke-dashoffset:0;stroke-opacity:1;marker:none;color-rendering:auto;image-rendering:auto;shape-rendering:auto;text-rendering:auto;enable-background:accumulate" id="rect4147" d="M 6 6 L 6 16 L 16 16 L 16 6 L 6 6 z M 7 7 L 15 7 L 15 15 L 7 15 L 7 7 z" transform="translate(544.57141,742.93359)"/></g></svg>