<svg xmlns="http://www.w3.org/2000/svg" xmlns:svg="http://www.w3.org/2000/svg" id="svg6190" width="22" height="22" version="1.1"><metadata id="metadata6196"/><g id="layer1"><path style="color:#000;display:inline;overflow:visible;visibility:visible;fill:#da4453;fill-opacity:1;fill-rule:nonzero;stroke:none;stroke-width:1;marker:none;enable-background:accumulate" id="path3308" d="m 10,7.5 0,6 3,-2.99649 z"/><path id="path6348-2" d="M 2,4 2,6 2,17 4,17 4.375,17 5.75,15 5,15 5,6 11.9375,6 13.3125,4 4,4 2,4 Z M 17.3125,4 15.9375,6 17,6 17,15 9.75,15 8.375,17 20,17 20,15 20,6 20,4 18,4 17.3125,4 Z M 3,5 4,5 4,6 3,6 3,5 Z m 14.96875,0 1,0 0,1 -1,0 0,-1 z M 3,7 4,7 4,8 3,8 3,7 Z m 14.96875,0 1,0 0,1 -1,0 0,-1 z M 3,9 4,9 4,10 3,10 3,9 Z m 14.96875,0 1,0 0,1 -1,0 0,-1 z M 3,11 l 1,0 0,1 -1,0 0,-1 z m 14.96875,0 1,0 0,1 -1,0 0,-1 z M 3,13 l 1,0 0,1 -1,0 0,-1 z m 14.96875,0 1,0 0,1 -1,0 0,-1 z M 3,15 l 1,0 0,1 -1,0 0,-1 z m 14.96875,0 1,0 0,1 -1,0 0,-1 z" style="color:#000;display:inline;overflow:visible;visibility:visible;fill:#373737;fill-opacity:1;fill-rule:nonzero;stroke:none;stroke-width:1;marker:none;enable-background:accumulate"/><path style="color:#000;display:inline;overflow:visible;visibility:visible;fill:#da4453;fill-opacity:1;fill-rule:nonzero;stroke:none;stroke-width:1;marker:none;enable-background:accumulate" id="path3370" d="m 15.65625,2 -2.742188,4 2,0 2.742188,-4 -2,0 z M 6.7421875,15 4,19 l 2,0 2.7421875,-4 -2,0 z"/></g></svg>