<svg xmlns="http://www.w3.org/2000/svg" xmlns:svg="http://www.w3.org/2000/svg" id="svg2" width="22" height="22" version="1.1" viewBox="0 0 22 22"><metadata id="metadata7"/><g id="layer1" transform="translate(0,-1030.3622)"><path style="fill:#cacaca;fill-opacity:1;fill-rule:evenodd;stroke:none;stroke-width:1px;stroke-linecap:butt;stroke-linejoin:miter;stroke-opacity:1" id="path4501" d="m 9.999998,1035.3622 c 0,-3 -4.9999999,-3 -4.9999999,0 0,3 7.0059679,6.9569 6.9999999,12 -0.006,5.0431 -9.9999999,4 -9.9999999,1 0,2 6.9832709,2.0441 6.9999999,-1 0.02198,-3.9999 -6.9999999,-8 -6.9999999,-12 0,-4 7.9999999,-5 7.9999999,0 z"/><path style="fill:#cacaca;fill-opacity:1;fill-rule:evenodd;stroke:none;stroke-width:1px;stroke-linecap:butt;stroke-linejoin:miter;stroke-opacity:1" id="path4536" d="m 20,1038.3622 v 1 l -6,6 h -1 v -1 l 6,-6 z"/><path style="fill:#cacaca;fill-opacity:1;fill-rule:evenodd;stroke:none;stroke-width:1px;stroke-linecap:butt;stroke-linejoin:miter;stroke-opacity:1" id="path4536-3" d="m 20,1045.3622 v -1 l -6,-6 h -1 v 1 l 6,6 z"/></g></svg>