<svg xmlns="http://www.w3.org/2000/svg" xmlns:svg="http://www.w3.org/2000/svg" xmlns:xlink="http://www.w3.org/1999/xlink" id="svg5119" width="22" height="22" version="1.1"><metadata id="metadata5125"/><defs id="defs5123"><linearGradient id="linearGradient10539" x1="178.395" x2="185.75" y1="87.793" y2="95.148" gradientTransform="matrix(1.259156,0,0,1.259156,-7.4350029,33.683404)" gradientUnits="userSpaceOnUse" xlink:href="#linearGradient6935"/><linearGradient id="linearGradient6935"><stop id="stop6937" offset="0" style="stop-color:#666;stop-opacity:1"/><stop id="stop6939" offset="1" style="stop-color:#1a1a1a;stop-opacity:1"/></linearGradient><linearGradient id="linearGradient5162" x1="178.395" x2="185.75" y1="87.793" y2="95.148" gradientTransform="matrix(1.259156,0,0,1.259156,-7.4350029,33.683404)" gradientUnits="userSpaceOnUse" xlink:href="#linearGradient6935"/><linearGradient id="linearGradient9563" x1="178.395" x2="185.75" y1="87.793" y2="95.148" gradientTransform="matrix(1.2865905,0,0,1.2865905,-700.8632,1039.1906)" gradientUnits="userSpaceOnUse" xlink:href="#linearGradient5536"/><linearGradient id="linearGradient5536"><stop id="stop5538" offset="0" style="stop-color:#e6e6e6;stop-opacity:1"/><stop id="stop5540" offset="1" style="stop-color:#aaa;stop-opacity:1"/></linearGradient></defs><path style="fill:#cacaca;fill-opacity:.94117647;fill-rule:evenodd;stroke:none;stroke-width:1px;stroke-linecap:butt;stroke-linejoin:miter;stroke-opacity:1" id="path4200-58-8-4" d="m 22,15 0,-8 -3,4 z"/><path style="display:inline;opacity:1;fill:#cacaca;fill-opacity:.94117647;stroke:none;stroke-width:4;stroke-linecap:butt;stroke-linejoin:round;stroke-miterlimit:4;stroke-dasharray:none;stroke-dashoffset:1;stroke-opacity:1" id="path4158" d="M 5 3 L 5 5 L 3 5 L 3 7 L 5 7 L 5 15 L 7 17 L 15 17 L 15 19 L 17 19 L 17 17 L 19 17 L 19 15 L 7 15 L 7 3 L 5 3 z"/><path id="path4160" d="m 15,14 2,0 0,-7 0,-2 -9,0 0,2 7,0 z" style="display:inline;opacity:1;fill:#cacaca;fill-opacity:.94117647;stroke:none;stroke-width:4;stroke-linecap:butt;stroke-linejoin:round;stroke-miterlimit:4;stroke-dasharray:none;stroke-dashoffset:1;stroke-opacity:1"/><path style="fill:#cacaca;fill-opacity:.94117647;fill-rule:evenodd;stroke:none;stroke-width:1px;stroke-linecap:butt;stroke-linejoin:miter;stroke-opacity:1" id="path4200-58-8-4-6" d="m 0,7 0,8 3,-4 z"/><path style="fill:#cacaca;fill-opacity:.94117647;fill-rule:evenodd;stroke:none;stroke-width:1px;stroke-linecap:butt;stroke-linejoin:miter;stroke-opacity:1" id="path4200-58-8-4-7" d="m 7,22 8,0 -4,-3 z"/><path style="fill:#cacaca;fill-opacity:.94117647;fill-rule:evenodd;stroke:none;stroke-width:1px;stroke-linecap:butt;stroke-linejoin:miter;stroke-opacity:1" id="path4200-58-8-4-6-5" d="M 15,0 7,0 11,3 Z"/><path style="fill:#cacaca;fill-opacity:.94117647;fill-rule:evenodd;stroke:none;stroke-width:1px;stroke-linecap:butt;stroke-linejoin:miter;stroke-opacity:1" id="path4236" d="M 17,3 19,5 8,16 6,14 Z"/></svg>