<svg xmlns="http://www.w3.org/2000/svg" xmlns:svg="http://www.w3.org/2000/svg" id="svg2" width="22" height="22" version="1.1" viewBox="0 0 22 22"><metadata id="metadata7"/><g id="layer1" transform="translate(0,-1030.3622)"><g id="layer2" transform="translate(-4.999998,1025.3622)"><g id="layer1-1" transform="translate(5.0607711,-1024.8874)" style="fill:#cacaca;fill-opacity:1"><path style="color:#000;clip-rule:nonzero;display:inline;overflow:visible;visibility:visible;opacity:1;isolation:auto;mix-blend-mode:normal;color-interpolation:sRGB;color-interpolation-filters:linearRGB;solid-color:#000;solid-opacity:1;fill:#cacaca;fill-opacity:1;fill-rule:evenodd;stroke:none;stroke-width:1;stroke-linecap:square;stroke-linejoin:miter;stroke-miterlimit:4;stroke-dasharray:none;stroke-dashoffset:0;stroke-opacity:1;marker:none;color-rendering:auto;image-rendering:auto;shape-rendering:auto;text-rendering:auto;enable-background:accumulate" id="path4508" d="m 10.939453,3.4746094 a 8,7.9999914 0 0 0 -7.9999999,7.9999996 8,7.9999914 0 0 0 7.9999999,8 8,7.9999914 0 0 0 0.06055,-0.002 v -1.001953 a 7,7 0 0 1 -0.06055,0.0039 7,7 0 0 1 -6.9999999,-7 7,7 0 0 1 6.9999999,-6.9999996 7,7 0 0 1 6.367188,4.1054687 l 0.90625,-0.4121093 A 8,7.9999914 0 0 0 10.939453,3.4746094 Z" transform="matrix(-1,0,0,1,21.93934,1029.8874)"/><path id="path4513" d="m 2.87868,1039.4835 1.414213,-7.071 5.656854,5.6568 z" style="fill:#cacaca;fill-opacity:1;fill-rule:evenodd;stroke:none;stroke-width:1px;stroke-linecap:butt;stroke-linejoin:miter;stroke-opacity:1"/><path style="color:#000;clip-rule:nonzero;display:inline;overflow:visible;visibility:visible;opacity:1;isolation:auto;mix-blend-mode:normal;color-interpolation:sRGB;color-interpolation-filters:linearRGB;solid-color:#000;solid-opacity:1;fill:#cacaca;fill-opacity:1;fill-rule:evenodd;stroke:none;stroke-width:1;stroke-linecap:square;stroke-linejoin:miter;stroke-miterlimit:4;stroke-dasharray:none;stroke-dashoffset:0;stroke-opacity:1;marker:none;color-rendering:auto;image-rendering:auto;shape-rendering:auto;text-rendering:auto;enable-background:accumulate" id="rect4558" d="m 12.93934,1039.8874 v 7 h -8 v -7 z m -1,2 h -6 v 4 h 6 z"/></g></g></g></svg>