<svg xmlns="http://www.w3.org/2000/svg" xmlns:svg="http://www.w3.org/2000/svg" xmlns:xlink="http://www.w3.org/1999/xlink" id="svg2" width="32" height="32" version="1.1" viewBox="0 0 32 32"><defs id="defs4"><linearGradient id="linearGradient4215"><stop id="stop4217" offset="0" style="stop-color:#373737;stop-opacity:1"/><stop id="stop4219" offset="1" style="stop-color:#373737;stop-opacity:0"/></linearGradient><linearGradient id="linearGradient4207"><stop id="stop4209" offset="0" style="stop-color:#373737;stop-opacity:1"/><stop id="stop4211" offset="1" style="stop-color:#373737;stop-opacity:0"/></linearGradient><linearGradient id="linearGradient4528"><stop id="stop4530" offset="0" style="stop-color:#cacaca;stop-opacity:1"/><stop id="stop4532" offset="1" style="stop-color:#cacaca;stop-opacity:0"/></linearGradient><linearGradient id="linearGradient5039" x1="26" x2="6" y1="16" y2="16" gradientUnits="userSpaceOnUse" xlink:href="#linearGradient5033"/><linearGradient id="linearGradient5033"><stop id="stop5035" offset="0" style="stop-color:#cacaca;stop-opacity:1"/><stop id="stop5037" offset="1" style="stop-color:#cacaca;stop-opacity:0"/></linearGradient><linearGradient id="linearGradient4406" x1="26" x2="6" y1="16" y2="16" gradientUnits="userSpaceOnUse" xlink:href="#linearGradient5033"/><linearGradient id="linearGradient4534" x1="24" x2="8" y1="16" y2="16" gradientUnits="userSpaceOnUse" xlink:href="#linearGradient4528"/><linearGradient id="linearGradient4225" x1="24" x2="8" y1="16" y2="16" gradientUnits="userSpaceOnUse" xlink:href="#linearGradient4528"/><linearGradient id="linearGradient4213" x1="4" x2="28" y1="9" y2="9" gradientUnits="userSpaceOnUse" xlink:href="#linearGradient4207"/><linearGradient id="linearGradient4221" x1="4" x2="28" y1="24" y2="24" gradientUnits="userSpaceOnUse" xlink:href="#linearGradient4215"/></defs><metadata id="metadata7"/><g style="display:none" id="layer3"><path id="rect4157" d="m 0,0 0,4 0,24 0,4 32,0 0,-4 0,-24 0,-4 z m 4,4 24,0 0,24 -24,0 z" style="opacity:1;fill:#cacaca;fill-opacity:1;stroke:none;stroke-width:4;stroke-linecap:butt;stroke-linejoin:round;stroke-miterlimit:4;stroke-dasharray:none;stroke-dashoffset:1;stroke-opacity:1"/></g><g style="display:none" id="layer2"><path id="rect4257" d="m 26,5.9999994 4,0 0,0 0,19.9999996 0,0 -4,0 0,0 0,-19.9999996 z" style="opacity:1;fill:#cacaca;fill-opacity:1;stroke:none;stroke-width:4;stroke-linecap:square;stroke-linejoin:miter;stroke-miterlimit:4;stroke-dasharray:none;stroke-dashoffset:0;stroke-opacity:1"/><path id="rect4259" d="m 6,26 20,0 0,0 0,4 0,0 -20,0 0,0 z" style="opacity:1;fill:#cacaca;fill-opacity:1;stroke:none;stroke-width:4;stroke-linecap:square;stroke-linejoin:miter;stroke-miterlimit:4;stroke-dasharray:none;stroke-dashoffset:0;stroke-opacity:1"/><path id="rect4259-0" d="m 6,1.9999996 20,0 0,0 0,4 0,0 -20,0 0,0 z" style="opacity:1;fill:#cacaca;fill-opacity:1;stroke:none;stroke-width:4;stroke-linecap:square;stroke-linejoin:miter;stroke-miterlimit:4;stroke-dasharray:none;stroke-dashoffset:0;stroke-opacity:1"/><path id="rect4257-7" d="m 2,5.999999 4,0 0,0 0,20 0,0 -4,0 0,0 0,-20 z" style="opacity:1;fill:#cacaca;fill-opacity:1;stroke:none;stroke-width:4;stroke-linecap:square;stroke-linejoin:miter;stroke-miterlimit:4;stroke-dasharray:none;stroke-dashoffset:0;stroke-opacity:1"/><rect id="rect4526" width="16" height="16" x="8" y="8" rx="0" ry="0" style="opacity:1;fill:url(#linearGradient4534);fill-opacity:1;stroke:none;stroke-width:4;stroke-linecap:square;stroke-linejoin:miter;stroke-miterlimit:4;stroke-dasharray:none;stroke-dashoffset:0;stroke-opacity:1"/></g><g style="display:none" id="layer1"><path id="rect4263" d="m 14,14 4,0 0,0 0,4 0,0 -4,0 0,0 z" style="opacity:1;fill:#cacaca;fill-opacity:1;stroke:none;stroke-width:4;stroke-linecap:square;stroke-linejoin:miter;stroke-miterlimit:4;stroke-dasharray:none;stroke-dashoffset:0;stroke-opacity:1"/><path id="rect4268" d="m 20,12 0,8 8,0 0,-8 -8,0 z m 2,2 4,0 0,4 -4,0 0,-4 z" style="opacity:1;fill:#cacaca;fill-opacity:1;stroke:none;stroke-width:4;stroke-linecap:square;stroke-linejoin:miter;stroke-miterlimit:4;stroke-dasharray:none;stroke-dashoffset:0;stroke-opacity:1"/><path id="rect4268-8" d="m 4,12 0,8 8,0 0,-8 -8,0 z m 2,2 4,0 0,4 -4,0 0,-4 z" style="display:inline;opacity:1;fill:#cacaca;fill-opacity:1;stroke:none;stroke-width:4;stroke-linecap:square;stroke-linejoin:miter;stroke-miterlimit:4;stroke-dasharray:none;stroke-dashoffset:0;stroke-opacity:1"/><path id="rect5031" d="m 4,4 0,6 10,0 0,2 4,0 0,-2 10,0 0,-6 z" style="display:inline;opacity:1;fill:url(#linearGradient4406);fill-opacity:1;stroke:none;stroke-width:4;stroke-linecap:square;stroke-linejoin:miter;stroke-miterlimit:4;stroke-dasharray:none;stroke-dashoffset:0;stroke-opacity:1"/><path id="rect5031-3" d="m 4,28 0,-6 10,0 0,-2 4,0 0,2 10,0 0,6 z" style="display:inline;opacity:1;fill:url(#linearGradient5039);fill-opacity:1;stroke:none;stroke-width:4;stroke-linecap:square;stroke-linejoin:miter;stroke-miterlimit:4;stroke-dasharray:none;stroke-dashoffset:0;stroke-opacity:1"/></g><g style="display:none" id="layer4"><path id="rect4268-8-8" d="m 0,24 0,8 8,0 0,-8 -8,0 z m 2,2 4,0 0,4 -4,0 0,-4 z" style="display:inline;opacity:1;fill:#cacaca;fill-opacity:1;stroke:none;stroke-width:4;stroke-linecap:square;stroke-linejoin:miter;stroke-miterlimit:4;stroke-dasharray:none;stroke-dashoffset:0;stroke-opacity:1"/><path id="rect4268-8-1" d="M 24,-2e-7 24,8 32,8 32,-2e-7 l -8,0 z m 2,2 4,0 0,4 -4,0 0,-4 z" style="display:inline;opacity:1;fill:#cacaca;fill-opacity:1;stroke:none;stroke-width:4;stroke-linecap:square;stroke-linejoin:miter;stroke-miterlimit:4;stroke-dasharray:none;stroke-dashoffset:0;stroke-opacity:1"/><path id="rect4268-8-8-8" d="m 24,24 0,8 8,0 0,-8 -8,0 z m 2,2 4,0 0,4 -4,0 0,-4 z" style="display:inline;opacity:1;fill:#cacaca;fill-opacity:1;stroke:none;stroke-width:4;stroke-linecap:square;stroke-linejoin:miter;stroke-miterlimit:4;stroke-dasharray:none;stroke-dashoffset:0;stroke-opacity:1"/><path id="rect4268-8-8-9" d="m 0,-5e-7 0,8 8,0 0,-8 -8,0 z m 2,2 4,0 0,4 -4,0 0,-4 z" style="display:inline;opacity:1;fill:#cacaca;fill-opacity:1;stroke:none;stroke-width:4;stroke-linecap:square;stroke-linejoin:miter;stroke-miterlimit:4;stroke-dasharray:none;stroke-dashoffset:0;stroke-opacity:1"/></g><g style="display:none" id="layer5"><path id="rect4628" d="M 0,0 0,6 6,6 6,0 0,0 Z M 2,2 4,2 4,4 2,4 2,2 Z" style="display:inline;opacity:1;fill:#cacaca;fill-opacity:1;stroke:none;stroke-width:4;stroke-linecap:square;stroke-linejoin:miter;stroke-miterlimit:4;stroke-dasharray:none;stroke-dashoffset:0;stroke-opacity:1"/><path id="rect4628-9" d="m 26,0 0,6 6,0 0,-6 -6,0 z m 2,2 2,0 0,2 -2,0 0,-2 z" style="display:inline;opacity:1;fill:#cacaca;fill-opacity:1;stroke:none;stroke-width:4;stroke-linecap:square;stroke-linejoin:miter;stroke-miterlimit:4;stroke-dasharray:none;stroke-dashoffset:0;stroke-opacity:1"/><path id="rect4628-8" d="m 26,26 0,6 6,0 0,-6 -6,0 z m 2,2 2,0 0,2 -2,0 0,-2 z" style="display:inline;opacity:1;fill:#cacaca;fill-opacity:1;stroke:none;stroke-width:4;stroke-linecap:square;stroke-linejoin:miter;stroke-miterlimit:4;stroke-dasharray:none;stroke-dashoffset:0;stroke-opacity:1"/><path id="rect4628-4" d="m 0,26 0,6 6,0 0,-6 -6,0 z m 2,2 2,0 0,2 -2,0 0,-2 z" style="display:inline;opacity:1;fill:#cacaca;fill-opacity:1;stroke:none;stroke-width:4;stroke-linecap:square;stroke-linejoin:miter;stroke-miterlimit:4;stroke-dasharray:none;stroke-dashoffset:0;stroke-opacity:1"/><rect id="rect4660" width="2" height="20" x="2" y="6" rx="0" ry="0" style="display:inline;opacity:1;fill:#cacaca;fill-opacity:1;stroke:none;stroke-width:4;stroke-linecap:square;stroke-linejoin:miter;stroke-miterlimit:4;stroke-dasharray:none;stroke-dashoffset:0;stroke-opacity:1"/><rect id="rect4662" width="20" height="2" x="6" y="2" rx="0" ry="0" style="display:inline;opacity:1;fill:#cacaca;fill-opacity:1;stroke:none;stroke-width:4;stroke-linecap:square;stroke-linejoin:miter;stroke-miterlimit:4;stroke-dasharray:none;stroke-dashoffset:0;stroke-opacity:1"/><rect id="rect4662-2" width="20" height="2" x="6" y="28" rx="0" ry="0" style="display:inline;opacity:1;fill:#cacaca;fill-opacity:1;stroke:none;stroke-width:4;stroke-linecap:square;stroke-linejoin:miter;stroke-miterlimit:4;stroke-dasharray:none;stroke-dashoffset:0;stroke-opacity:1"/><rect id="rect4660-8" width="2" height="20" x="28" y="6" rx="0" ry="0" style="display:inline;opacity:1;fill:#cacaca;fill-opacity:1;stroke:none;stroke-width:4;stroke-linecap:square;stroke-linejoin:miter;stroke-miterlimit:4;stroke-dasharray:none;stroke-dashoffset:0;stroke-opacity:1"/><path id="rect4526-0" d="m 6,6 20,0 0,0 0,20 0,0 -20,0 0,0 0,-20 z" style="display:inline;opacity:1;fill:url(#linearGradient4225);fill-opacity:1;stroke:none;stroke-width:4;stroke-linecap:square;stroke-linejoin:miter;stroke-miterlimit:4;stroke-dasharray:none;stroke-dashoffset:0;stroke-opacity:1"/></g><g id="layer7"><path id="rect4245" d="m 4,4 0,8 8,0 0,2 8,0 0,-2 8,0 0,-8 z" style="opacity:1;fill:url(#linearGradient4213);fill-opacity:1;stroke:none;stroke-width:4;stroke-linecap:square;stroke-linejoin:miter;stroke-miterlimit:4;stroke-dasharray:none;stroke-dashoffset:0;stroke-opacity:1"/><rect id="rect4256" width="2" height="32" x="0" y="0" rx="0" ry="0" style="opacity:1;fill:#373737;fill-opacity:1;stroke:none;stroke-width:4;stroke-linecap:square;stroke-linejoin:miter;stroke-miterlimit:4;stroke-dasharray:none;stroke-dashoffset:0;stroke-opacity:1"/><rect id="rect4258" width="2" height="32" x="30" y="0" rx="0" ry="0" style="opacity:1;fill:#373737;fill-opacity:1;stroke:none;stroke-width:4;stroke-linecap:square;stroke-linejoin:miter;stroke-miterlimit:4;stroke-dasharray:none;stroke-dashoffset:0;stroke-opacity:1"/><path id="rect4260" d="m 8,16 14,0 0,0 0,2 0,0 -14,0 0,0 z" style="opacity:1;fill:#373737;fill-opacity:1;stroke:none;stroke-width:4;stroke-linecap:square;stroke-linejoin:miter;stroke-miterlimit:4;stroke-dasharray:none;stroke-dashoffset:0;stroke-opacity:1"/><rect id="rect4256-1" width="2" height="32" x="-32" y="0" rx="0" ry="0" transform="matrix(0,-1,1,0,0,0)" style="opacity:1;fill:#373737;fill-opacity:1;stroke:none;stroke-width:4;stroke-linecap:square;stroke-linejoin:miter;stroke-miterlimit:4;stroke-dasharray:none;stroke-dashoffset:0;stroke-opacity:1"/><rect id="rect4258-0" width="2" height="32" x="-2" y="0" rx="0" ry="0" transform="matrix(0,-1,1,0,0,0)" style="opacity:1;fill:#373737;fill-opacity:1;stroke:none;stroke-width:4;stroke-linecap:square;stroke-linejoin:miter;stroke-miterlimit:4;stroke-dasharray:none;stroke-dashoffset:0;stroke-opacity:1"/><path id="rect4308" d="m 22,14 0,6 6,0 0,-6 -6,0 z m 2,2 2,0 0,2 -2,0 0,-2 z" style="opacity:1;fill:#373737;fill-opacity:1;stroke:none;stroke-width:4;stroke-linecap:square;stroke-linejoin:miter;stroke-miterlimit:4;stroke-dasharray:none;stroke-dashoffset:0;stroke-opacity:1"/><path id="rect4308-7" d="m 4,14 0,6 6,0 0,-6 -6,0 z m 2,2 2,0 0,2 -2,0 0,-2 z" style="opacity:1;fill:#373737;fill-opacity:1;stroke:none;stroke-width:4;stroke-linecap:square;stroke-linejoin:miter;stroke-miterlimit:4;stroke-dasharray:none;stroke-dashoffset:0;stroke-opacity:1"/><path id="rect4245-1" d="m 4,28 0,-6 8,0 0,-2 8,0 0,2 8,0 0,6 z" style="opacity:1;fill:url(#linearGradient4221);fill-opacity:1;stroke:none;stroke-width:4;stroke-linecap:square;stroke-linejoin:miter;stroke-miterlimit:4;stroke-dasharray:none;stroke-dashoffset:0;stroke-opacity:1"/></g></svg>