<svg xmlns="http://www.w3.org/2000/svg" xmlns:svg="http://www.w3.org/2000/svg" id="svg2" width="32" height="32" version="1.1" viewBox="0 0 32 32"><metadata id="metadata7"/><g style="display:inline" id="layer2"><path id="path5522" d="M 9,8 8,10 11.554688,10 12,8 9,8 Z m 5.5,0 -0.277344,2 3.554688,0 L 17.5,8 14.5,8 Z M 20,8 20.445312,10 24,10 23,8 20,8 Z M 7,12 5,16 10.222656,16 11.111328,12 7,12 Z m 6.945312,0 -0.55664,4 5.222656,0 -0.55664,-4 -4.109376,0 z m 6.94336,0 0.888672,4 L 27,16 25,12 20.888672,12 Z M 3.5,19 0,26 8,26 9.5546875,19 3.5,19 Z M 12.972656,19 12,26 l 8,0 -0.972656,-7 -6.054688,0 z M 22.445312,19 24,26 l 8,0 -3.5,-7 -6.054688,0 z" style="fill:#373737;fill-opacity:1;fill-rule:evenodd;stroke:none;stroke-width:1px;stroke-linecap:butt;stroke-linejoin:miter;stroke-opacity:1"/></g></svg>