<svg xmlns="http://www.w3.org/2000/svg" xmlns:svg="http://www.w3.org/2000/svg" id="svg2" width="32" height="32" version="1.1" viewBox="0 0 32 32"><metadata id="metadata7"/><g id="g4257" style="display:none"><path id="rect4259" d="m 4,9.9999994 4,0 0,0 0,11.9999996 0,0 -4,0 0,0 0,-11.9999996 z" style="opacity:1;fill:#cacaca;fill-opacity:1;stroke:none;stroke-width:4;stroke-linecap:butt;stroke-linejoin:round;stroke-miterlimit:4;stroke-dasharray:none;stroke-dashoffset:1;stroke-opacity:1"/><path id="rect4261" d="m 24,9.999999 4,0 0,10e-8 0,11.9999999 0,0 -4,0 0,0 0,-11.9999999 z" style="display:inline;opacity:1;fill:#cacaca;fill-opacity:1;stroke:none;stroke-width:4;stroke-linecap:butt;stroke-linejoin:round;stroke-miterlimit:4;stroke-dasharray:none;stroke-dashoffset:1;stroke-opacity:1"/><path id="rect4263" d="m -27.999998,10 4,0 0,0 0,12 0,0 -4,0 0,0 0,-12 z" transform="matrix(0,-1,1,0,0,0)" style="display:inline;opacity:1;fill:#cacaca;fill-opacity:1;stroke:none;stroke-width:4;stroke-linecap:butt;stroke-linejoin:round;stroke-miterlimit:4;stroke-dasharray:none;stroke-dashoffset:1;stroke-opacity:1"/><path id="rect4265" d="m -7.999999,9.9999998 3.9999999,0 1e-7,0 0,12.0000002 -1e-7,0 -3.9999999,0 0,0 0,-12.0000002 z" transform="matrix(0,-1,1,0,0,0)" style="display:inline;opacity:1;fill:#cacaca;fill-opacity:1;stroke:none;stroke-width:4;stroke-linecap:butt;stroke-linejoin:round;stroke-miterlimit:4;stroke-dasharray:none;stroke-dashoffset:1;stroke-opacity:1"/><circle id="path4293" cx="6" cy="6" r="4" style="opacity:1;fill:none;fill-opacity:1;stroke:#cacaca;stroke-width:4;stroke-linecap:butt;stroke-linejoin:round;stroke-miterlimit:4;stroke-dasharray:none;stroke-dashoffset:1;stroke-opacity:1"/><circle id="path4293-6" cx="6" cy="26" r="4" style="display:inline;opacity:1;fill:none;fill-opacity:1;stroke:#cacaca;stroke-width:4;stroke-linecap:butt;stroke-linejoin:round;stroke-miterlimit:4;stroke-dasharray:none;stroke-dashoffset:1;stroke-opacity:1"/><circle id="path4293-67" cx="26" cy="6" r="4" style="display:inline;opacity:1;fill:none;fill-opacity:1;stroke:#cacaca;stroke-width:4;stroke-linecap:butt;stroke-linejoin:round;stroke-miterlimit:4;stroke-dasharray:none;stroke-dashoffset:1;stroke-opacity:1"/><circle id="path4293-6-8" cx="26" cy="26" r="4" style="display:inline;opacity:1;fill:none;fill-opacity:1;stroke:#cacaca;stroke-width:4;stroke-linecap:butt;stroke-linejoin:round;stroke-miterlimit:4;stroke-dasharray:none;stroke-dashoffset:1;stroke-opacity:1"/><path id="rect4275-8" d="m 24,14 4,0 c 0,0 0,0 0,0 l 0,4 c 0,0 0,0 0,0 l -4,0 c 0,0 0,0 0,0 l 0,-4 c 0,0 0,0 0,0 z" style="display:inline;opacity:1;fill:#cacaca;fill-opacity:1;stroke:none;stroke-width:4;stroke-linecap:butt;stroke-linejoin:round;stroke-miterlimit:4;stroke-dasharray:none;stroke-dashoffset:1;stroke-opacity:1"/><circle id="path4395" cx="16" cy="16" r="2" style="opacity:1;fill:#cacaca;fill-opacity:1;stroke:none;stroke-width:4;stroke-linecap:butt;stroke-linejoin:round;stroke-miterlimit:4;stroke-dasharray:none;stroke-dashoffset:1;stroke-opacity:1"/></g><g style="display:none" id="g4397"><path style="opacity:1;fill:#cacaca;fill-opacity:1;stroke:none;stroke-width:4;stroke-linecap:butt;stroke-linejoin:round;stroke-miterlimit:4;stroke-dasharray:none;stroke-dashoffset:1;stroke-opacity:1" id="path4399" d="m 4,9.9999994 4,0 0,0 0,11.9999996 0,0 -4,0 0,0 0,-11.9999996 z"/><path style="display:inline;opacity:1;fill:#cacaca;fill-opacity:1;stroke:none;stroke-width:4;stroke-linecap:butt;stroke-linejoin:round;stroke-miterlimit:4;stroke-dasharray:none;stroke-dashoffset:1;stroke-opacity:1" id="path4401" d="m 24,9.999999 4,0 0,10e-8 0,11.9999999 0,0 -4,0 0,0 0,-11.9999999 z"/><path style="display:inline;opacity:1;fill:#cacaca;fill-opacity:1;stroke:none;stroke-width:4;stroke-linecap:butt;stroke-linejoin:round;stroke-miterlimit:4;stroke-dasharray:none;stroke-dashoffset:1;stroke-opacity:1" id="path4403" d="m -27.999998,10 4,0 0,0 0,12 0,0 -4,0 0,0 0,-12 z" transform="matrix(0,-1,1,0,0,0)"/><path style="display:inline;opacity:1;fill:#cacaca;fill-opacity:1;stroke:none;stroke-width:4;stroke-linecap:butt;stroke-linejoin:round;stroke-miterlimit:4;stroke-dasharray:none;stroke-dashoffset:1;stroke-opacity:1" id="path4405" d="m -7.999999,9.9999998 3.9999999,0 1e-7,0 0,12.0000002 -1e-7,0 -3.9999999,0 0,0 0,-12.0000002 z" transform="matrix(0,-1,1,0,0,0)"/><path style="display:inline;opacity:1;fill:#cacaca;fill-opacity:1;stroke:none;stroke-width:4;stroke-linecap:butt;stroke-linejoin:round;stroke-miterlimit:4;stroke-dasharray:none;stroke-dashoffset:1;stroke-opacity:1" id="path4415" d="m 24,14 4,0 c 0,0 0,0 0,0 l 0,4 c 0,0 0,0 0,0 l -4,0 c 0,0 0,0 0,0 l 0,-4 c 0,0 0,0 0,0 z"/><rect id="rect4419" width="8" height="8" x="2" y="2" rx="0" ry="0" style="opacity:1;fill:none;fill-opacity:1;stroke:#cacaca;stroke-width:4;stroke-linecap:butt;stroke-linejoin:miter;stroke-miterlimit:4;stroke-dasharray:none;stroke-dashoffset:1;stroke-opacity:1"/><rect id="rect4419-5" width="8" height="8" x="22" y="2" rx="0" ry="0" style="display:inline;opacity:1;fill:none;fill-opacity:1;stroke:#cacaca;stroke-width:4;stroke-linecap:butt;stroke-linejoin:miter;stroke-miterlimit:4;stroke-dasharray:none;stroke-dashoffset:1;stroke-opacity:1"/><rect id="rect4419-4" width="8" height="8" x="22" y="22" rx="0" ry="0" style="display:inline;opacity:1;fill:none;fill-opacity:1;stroke:#cacaca;stroke-width:4;stroke-linecap:butt;stroke-linejoin:miter;stroke-miterlimit:4;stroke-dasharray:none;stroke-dashoffset:1;stroke-opacity:1"/><rect id="rect4419-9" width="8" height="8" x="2" y="22" rx="0" ry="0" style="display:inline;opacity:1;fill:none;fill-opacity:1;stroke:#cacaca;stroke-width:4;stroke-linecap:butt;stroke-linejoin:miter;stroke-miterlimit:4;stroke-dasharray:none;stroke-dashoffset:1;stroke-opacity:1"/><rect id="rect4448" width="4" height="4" x="14" y="14" rx="0" ry="0" style="opacity:1;fill:#cacaca;fill-opacity:1;stroke:none;stroke-width:4;stroke-linecap:butt;stroke-linejoin:miter;stroke-miterlimit:4;stroke-dasharray:none;stroke-dashoffset:1;stroke-opacity:1"/></g><g id="g4451" style="display:none"><path id="path4453" d="m 2,5.999999 4,0 0,0 0,20 0,0 -4,0 0,0 z" style="opacity:1;fill:#cacaca;fill-opacity:1;stroke:none;stroke-width:4;stroke-linecap:butt;stroke-linejoin:round;stroke-miterlimit:4;stroke-dasharray:none;stroke-dashoffset:1;stroke-opacity:1"/><path id="path4455" d="m 26,5.999999 4,0 0,0 0,20 0,0 -4,0 0,0 z" style="display:inline;opacity:1;fill:#cacaca;fill-opacity:1;stroke:none;stroke-width:4;stroke-linecap:butt;stroke-linejoin:round;stroke-miterlimit:4;stroke-dasharray:none;stroke-dashoffset:1;stroke-opacity:1"/><path id="path4457" d="m 6,29.999998 0,-4 0,0 20,0 0,0 0,4 0,0 z" style="display:inline;opacity:1;fill:#cacaca;fill-opacity:1;stroke:none;stroke-width:4;stroke-linecap:butt;stroke-linejoin:round;stroke-miterlimit:4;stroke-dasharray:none;stroke-dashoffset:1;stroke-opacity:1"/><path id="path4459" d="m 6,5.999999 0,-3.9999999 0,-10e-8 20,0 0,10e-8 0,3.9999999 0,0 z" style="display:inline;opacity:1;fill:#cacaca;fill-opacity:1;stroke:none;stroke-width:4;stroke-linecap:butt;stroke-linejoin:round;stroke-miterlimit:4;stroke-dasharray:none;stroke-dashoffset:1;stroke-opacity:1"/><rect style="display:inline;opacity:1;fill:#cacaca;fill-opacity:1;stroke:none;stroke-width:4;stroke-linecap:butt;stroke-linejoin:miter;stroke-miterlimit:4;stroke-dasharray:none;stroke-dashoffset:1;stroke-opacity:1" id="rect4471-9" width="4" height="4" x="26" y="14" rx="0" ry="0"/><circle id="path4707" cx="4" cy="4" r="4" style="opacity:1;fill:#cacaca;fill-opacity:1;stroke:none;stroke-width:4;stroke-linecap:butt;stroke-linejoin:miter;stroke-miterlimit:4;stroke-dasharray:none;stroke-dashoffset:1;stroke-opacity:1"/><circle id="path4709" cx="28" cy="4" r="4" style="opacity:1;fill:#cacaca;fill-opacity:1;stroke:none;stroke-width:4;stroke-linecap:butt;stroke-linejoin:miter;stroke-miterlimit:4;stroke-dasharray:none;stroke-dashoffset:1;stroke-opacity:1"/><circle id="path4707-0" cx="4" cy="28" r="4" style="display:inline;opacity:1;fill:#cacaca;fill-opacity:1;stroke:none;stroke-width:4;stroke-linecap:butt;stroke-linejoin:miter;stroke-miterlimit:4;stroke-dasharray:none;stroke-dashoffset:1;stroke-opacity:1"/><circle id="path4707-4" cx="28" cy="28" r="4" style="display:inline;opacity:1;fill:#cacaca;fill-opacity:1;stroke:none;stroke-width:4;stroke-linecap:butt;stroke-linejoin:miter;stroke-miterlimit:4;stroke-dasharray:none;stroke-dashoffset:1;stroke-opacity:1"/><circle id="path4747" cx="16" cy="16" r="0" style="opacity:1;fill:#cacaca;fill-opacity:1;stroke:none;stroke-width:4;stroke-linecap:butt;stroke-linejoin:miter;stroke-miterlimit:4;stroke-dasharray:none;stroke-dashoffset:1;stroke-opacity:1"/></g><g style="display:none" id="layer1"><rect id="rect4179" width="24" height="24" x="4" y="4" rx="0" ry="0" style="opacity:1;fill:none;fill-opacity:1;stroke:#cacaca;stroke-width:4;stroke-linecap:butt;stroke-linejoin:miter;stroke-miterlimit:4;stroke-dasharray:none;stroke-dashoffset:1;stroke-opacity:1"/><rect id="rect4181" width="8" height="8" x="0" y="0" rx="0" ry="0" style="opacity:1;fill:#cacaca;fill-opacity:1;stroke:none;stroke-width:4;stroke-linecap:butt;stroke-linejoin:miter;stroke-miterlimit:4;stroke-dasharray:none;stroke-dashoffset:1;stroke-opacity:1"/><rect id="rect4181-0" width="8" height="8" x="0" y="24" rx="0" ry="0" style="opacity:1;fill:#cacaca;fill-opacity:1;stroke:none;stroke-width:4;stroke-linecap:butt;stroke-linejoin:miter;stroke-miterlimit:4;stroke-dasharray:none;stroke-dashoffset:1;stroke-opacity:1"/><rect id="rect4181-4" width="8" height="8" x="24" y="24" rx="0" ry="0" style="opacity:1;fill:#cacaca;fill-opacity:1;stroke:none;stroke-width:4;stroke-linecap:butt;stroke-linejoin:miter;stroke-miterlimit:4;stroke-dasharray:none;stroke-dashoffset:1;stroke-opacity:1"/><rect id="rect4181-2" width="8" height="8" x="24" y="0" rx="0" ry="0" style="opacity:1;fill:#cacaca;fill-opacity:1;stroke:none;stroke-width:4;stroke-linecap:butt;stroke-linejoin:miter;stroke-miterlimit:4;stroke-dasharray:none;stroke-dashoffset:1;stroke-opacity:1"/><rect id="rect4210" width="4" height="4" x="14" y="14" rx="0" ry="0" style="opacity:1;fill:#cacaca;fill-opacity:1;stroke:none;stroke-width:4;stroke-linecap:butt;stroke-linejoin:miter;stroke-miterlimit:4;stroke-dasharray:none;stroke-dashoffset:1;stroke-opacity:1"/></g><g id="g4185"><rect style="opacity:1;fill:#373737;fill-opacity:1;stroke:none;stroke-width:4;stroke-linecap:butt;stroke-linejoin:miter;stroke-miterlimit:4;stroke-dasharray:none;stroke-dashoffset:1;stroke-opacity:1" id="rect4197" width="4" height="4" x="14" y="14" rx="0" ry="0"/><path id="rect4199" d="m 0,1.9999994 32,0 0,0 0,4 0,0 -32,0 0,0 0,-4 z" style="opacity:1;fill:#373737;fill-opacity:1;stroke:none;stroke-width:4;stroke-linecap:butt;stroke-linejoin:miter;stroke-miterlimit:4;stroke-dasharray:none;stroke-dashoffset:1;stroke-opacity:1"/><path id="rect4199-0" d="m 0,25.999999 32,0 0,0 0,4 0,0 -32,0 0,0 0,-4 z" style="opacity:1;fill:#373737;fill-opacity:1;stroke:none;stroke-width:4;stroke-linecap:butt;stroke-linejoin:miter;stroke-miterlimit:4;stroke-dasharray:none;stroke-dashoffset:1;stroke-opacity:1"/><path id="rect4199-8" d="m 2,31.999999 0,-32 0,0 4,0 0,0 0,32 0,0 -4,0 z" style="opacity:1;fill:#373737;fill-opacity:1;stroke:none;stroke-width:4;stroke-linecap:butt;stroke-linejoin:miter;stroke-miterlimit:4;stroke-dasharray:none;stroke-dashoffset:1;stroke-opacity:1"/><path id="rect4199-0-0" d="m 26,31.999999 0,-32 0,0 4,0 0,0 0,32 0,0 -4,0 z" style="opacity:1;fill:#373737;fill-opacity:1;stroke:none;stroke-width:4;stroke-linecap:butt;stroke-linejoin:miter;stroke-miterlimit:4;stroke-dasharray:none;stroke-dashoffset:1;stroke-opacity:1"/><rect id="rect4235" width="6" height="4" x="0" y="14" rx="0" ry="0" style="opacity:1;fill:#373737;fill-opacity:1;stroke:none;stroke-width:4;stroke-linecap:butt;stroke-linejoin:miter;stroke-miterlimit:4;stroke-dasharray:none;stroke-dashoffset:1;stroke-opacity:1"/><rect id="rect4237" width="6" height="4" x="26" y="14" rx="0" ry="0" style="opacity:1;fill:#373737;fill-opacity:1;stroke:none;stroke-width:4;stroke-linecap:butt;stroke-linejoin:miter;stroke-miterlimit:4;stroke-dasharray:none;stroke-dashoffset:1;stroke-opacity:1"/><rect id="rect4239" width="4" height="6" x="14" y="0" rx="0" ry="0" style="opacity:1;fill:#373737;fill-opacity:1;stroke:none;stroke-width:4;stroke-linecap:butt;stroke-linejoin:miter;stroke-miterlimit:4;stroke-dasharray:none;stroke-dashoffset:1;stroke-opacity:1"/><rect id="rect4241" width="4" height="6" x="14" y="26" rx="0" ry="0" style="opacity:1;fill:#373737;fill-opacity:1;stroke:none;stroke-width:4;stroke-linecap:butt;stroke-linejoin:miter;stroke-miterlimit:4;stroke-dasharray:none;stroke-dashoffset:1;stroke-opacity:1"/></g></svg>