<svg xmlns="http://www.w3.org/2000/svg" xmlns:svg="http://www.w3.org/2000/svg" id="svg2" width="32" height="32" version="1.1" viewBox="0 0 32 32"><metadata id="metadata7"/><g style="display:inline" id="layer3"><path id="rect4200" d="M 0 0 L 0 8 L 8 8 L 8 0 L 0 0 z M 12 0 L 12 8 L 20 8 L 20 0 L 12 0 z M 24 0 L 24 8 L 32 8 L 32 0 L 24 0 z M 0 12 L 0 20 L 8 20 L 8 12 L 0 12 z M 12 12 L 12 20 L 20 20 L 20 12 L 12 12 z M 24 12 L 24 20 L 32 20 L 32 12 L 24 12 z M 0 24 L 0 32 L 8 32 L 8 24 L 0 24 z M 12 24 L 12 32 L 20 32 L 20 24 L 12 24 z M 24 24 L 24 32 L 32 32 L 32 24 L 24 24 z" style="opacity:1;fill:#373737;fill-opacity:1;stroke:none;stroke-width:4;stroke-linecap:butt;stroke-linejoin:round;stroke-miterlimit:4;stroke-dasharray:none;stroke-dashoffset:1;stroke-opacity:1"/></g><g style="display:none" id="layer1"><rect id="rect4240" width="4" height="32" x="0" y="0" style="opacity:1;fill:#cacaca;fill-opacity:1;stroke:none;stroke-width:4;stroke-linecap:butt;stroke-linejoin:round;stroke-miterlimit:4;stroke-dasharray:none;stroke-dashoffset:1;stroke-opacity:1"/><rect id="rect4240-9" width="4" height="32" x="14" y="0" style="display:inline;opacity:1;fill:#cacaca;fill-opacity:1;stroke:none;stroke-width:4;stroke-linecap:butt;stroke-linejoin:round;stroke-miterlimit:4;stroke-dasharray:none;stroke-dashoffset:1;stroke-opacity:1"/><rect id="rect4240-97" width="4" height="32" x="28" y="0" style="display:inline;opacity:1;fill:#cacaca;fill-opacity:1;stroke:none;stroke-width:4;stroke-linecap:butt;stroke-linejoin:round;stroke-miterlimit:4;stroke-dasharray:none;stroke-dashoffset:1;stroke-opacity:1"/><rect id="rect4240-4" width="4" height="32" x="-32" y="0" transform="matrix(0,-1,1,0,0,0)" style="display:inline;opacity:1;fill:#cacaca;fill-opacity:1;stroke:none;stroke-width:4;stroke-linecap:butt;stroke-linejoin:round;stroke-miterlimit:4;stroke-dasharray:none;stroke-dashoffset:1;stroke-opacity:1"/><rect id="rect4240-9-1" width="4" height="32" x="-18" y="0" transform="matrix(0,-1,1,0,0,0)" style="display:inline;opacity:1;fill:#cacaca;fill-opacity:1;stroke:none;stroke-width:4;stroke-linecap:butt;stroke-linejoin:round;stroke-miterlimit:4;stroke-dasharray:none;stroke-dashoffset:1;stroke-opacity:1"/><rect id="rect4240-97-8" width="4" height="32" x="-4" y="0" transform="matrix(0,-1,1,0,0,0)" style="display:inline;opacity:1;fill:#cacaca;fill-opacity:1;stroke:none;stroke-width:4;stroke-linecap:butt;stroke-linejoin:round;stroke-miterlimit:4;stroke-dasharray:none;stroke-dashoffset:1;stroke-opacity:1"/></g></svg>