<svg xmlns="http://www.w3.org/2000/svg" xmlns:svg="http://www.w3.org/2000/svg" id="svg2" width="32" height="32" version="1.1" viewBox="0 0 32 32"><metadata id="metadata7"/><g style="display:none" id="layer3"><path id="path4171" d="m 19.640491,21.608542 c 0.481192,4.391997 -4.559846,6.992766 -6.439853,7.675092 -3.31028,1.201425 -10.1403284,0.675039 -13.10407386,-0.819812 -0.6788232,-0.49186 5.36634866,-1.494359 5.98233156,-5.017737 0.3786527,-2.165867 1.2795682,-7.586077 6.0251183,-8.244047 3.962098,-0.549344 7.165987,3.024927 7.536477,6.406504 z" style="opacity:1;fill:#cacaca;fill-opacity:1;stroke:none;stroke-width:2;stroke-linecap:square;stroke-linejoin:miter;stroke-miterlimit:4;stroke-dasharray:none;stroke-dashoffset:1;stroke-opacity:1"/><path id="path4174" d="m 15.207024,13.937147 c 2.333842,0.386972 4.895586,2.565916 5.385678,4.577888 0.277189,0.943348 2.614657,-1.018254 2.259914,-2.36818 -1.261052,-2.782065 -3.970326,-4.680627 -6.408155,-4.596194 -0.881229,0.01424 -1.949958,2.340991 -1.237437,2.386486 z" style="fill:#cacaca;fill-opacity:1;fill-rule:evenodd;stroke:none;stroke-width:1px;stroke-linecap:butt;stroke-linejoin:miter;stroke-opacity:1"/><path id="path4174-3" d="m 18.434109,9.7592901 c 2.333842,0.3869719 5.2226,2.7647909 5.712692,4.7767629 0.277189,0.943348 8.629506,-7.8462545 8.274763,-9.1961805 C 33.502804,-2.8780764 32,-6e-7 24.510808,-0.4053706 22.126977,-0.2585481 17.721588,9.7137951 18.434109,9.7592901 Z" style="display:inline;fill:#cacaca;fill-opacity:1;fill-rule:evenodd;stroke:none;stroke-width:1px;stroke-linecap:butt;stroke-linejoin:miter;stroke-opacity:1"/></g><g id="g4152" style="display:none;opacity:.19599998"><path style="fill:#cacaca" id="path6" d="m 11.219417,15.892144 c -4.2656666,0.924486 -5.8798289,4.76152 -5.7602025,7.676073 0.1290153,3.143304 -3.2492423,5.634064 -5.37088721,6.064991 2.88480171,2.290554 7.10590391,2.632817 10.91981371,1.858174 5.581946,-1.133748 9.38291,-5.486724 8.3665,-10.490964 -0.763458,-3.75884 -3.973912,-6.014478 -8.155224,-5.108274 z"/><path id="path4174-1" d="m 15.419679,13.919707 c 2.333842,0.386972 4.895586,2.565916 5.385678,4.577888 0.277189,0.943348 2.614657,-1.018254 2.259914,-2.36818 -1.261052,-2.782065 -3.970326,-4.680627 -6.408155,-4.596194 -0.881229,0.01424 -1.949958,2.340991 -1.237437,2.386486 z" style="display:inline;fill:#cacaca;fill-opacity:1;fill-rule:evenodd;stroke:none;stroke-width:1px;stroke-linecap:butt;stroke-linejoin:miter;stroke-opacity:1"/><path id="path4174-3-9" d="m 18.646764,9.7418502 c 2.333842,0.3869718 5.2226,2.7647908 5.712692,4.7767628 0.277189,0.943348 8.629506,-7.8462544 8.274763,-9.1961804 1.08124,-8.2179489 -0.421564,-5.33987312 -7.910756,-5.74524312 -2.383831,0.1468225 -6.78922,10.11916572 -6.076699,10.16466072 z" style="display:inline;fill:#cacaca;fill-opacity:1;fill-rule:evenodd;stroke:none;stroke-width:1px;stroke-linecap:butt;stroke-linejoin:miter;stroke-opacity:1"/></g><g style="opacity:1" id="layer1"><path id="path4147" d="m 14.78887,12.740477 16.760456,5.693053 -8.466644,4.544602 -5.129308,8.972617 z" style="opacity:1;fill:#373737;fill-opacity:1;fill-rule:evenodd;stroke:none;stroke-width:1px;stroke-linecap:butt;stroke-linejoin:miter;stroke-opacity:1"/><path id="path4149" d="m 3.240508,26.935423 c 0,0 -2.471994,-9.60653 5.842702,-18.0964696 C 15.412825,2.375936 26.367933,3.9270517 26.367933,3.9270517" style="opacity:1;fill:none;fill-rule:evenodd;stroke:#373737;stroke-width:4.13358974;stroke-linecap:butt;stroke-linejoin:miter;stroke-miterlimit:4;stroke-dasharray:none;stroke-opacity:1"/><ellipse id="path4151" cx="28.072" cy="3.669" rx="3.408" ry="3.619" style="opacity:1;fill:#373737;fill-opacity:1;stroke:none;stroke-width:1;stroke-miterlimit:4;stroke-dasharray:none;stroke-opacity:1"/><ellipse id="path4151-7" cx="3.484" cy="27.194" rx="3.408" ry="3.619" style="opacity:1;fill:#373737;fill-opacity:1;stroke:none;stroke-width:1;stroke-miterlimit:4;stroke-dasharray:none;stroke-opacity:1"/><ellipse id="path4151-3" cx="10.544" cy="8.063" rx="3.408" ry="3.619" style="opacity:1;fill:#373737;fill-opacity:1;stroke:none;stroke-width:1;stroke-miterlimit:4;stroke-dasharray:none;stroke-opacity:1"/></g></svg>