<svg xmlns="http://www.w3.org/2000/svg" xmlns:svg="http://www.w3.org/2000/svg" id="svg2" width="32" height="32" version="1.1" viewBox="0 0 32 32"><metadata id="metadata7"/><g style="display:inline" id="layer2"><rect id="rect4155-8" width="8" height="4" x="12" y="28" rx="0" ry="0" style="opacity:1;fill:#cacaca;fill-opacity:1;stroke:none;stroke-width:4;stroke-linecap:butt;stroke-linejoin:miter;stroke-miterlimit:4;stroke-dasharray:none;stroke-dashoffset:1;stroke-opacity:1"/><rect id="rect4155-8-7" width="8" height="4" x="12" y="-32" rx="0" ry="0" transform="matrix(0,1,-1,0,0,0)" style="opacity:1;fill:#cacaca;fill-opacity:1;stroke:none;stroke-width:4;stroke-linecap:butt;stroke-linejoin:miter;stroke-miterlimit:4;stroke-dasharray:none;stroke-dashoffset:1;stroke-opacity:1"/><rect id="rect4155-8-7-8" width="8" height="4" x="12" y="-4" rx="0" ry="0" transform="matrix(0,1,-1,0,0,0)" style="opacity:1;fill:#cacaca;fill-opacity:1;stroke:none;stroke-width:4;stroke-linecap:butt;stroke-linejoin:miter;stroke-miterlimit:4;stroke-dasharray:none;stroke-dashoffset:1;stroke-opacity:1"/></g><g id="g4151" style="display:inline"><path style="display:inline;opacity:1;fill:#cacaca;fill-opacity:1;stroke:none;stroke-width:4;stroke-linecap:square;stroke-linejoin:miter;stroke-miterlimit:4;stroke-dasharray:none;stroke-dashoffset:0;stroke-opacity:1" id="path4153" d="m 12,0.85095148 0,8.00000002 8,0 0,-8.00000002 z m 2,2.00000002 4,0 0,4 -4,0 z"/><path style="display:inline;opacity:1;fill:#cacaca;fill-opacity:1;stroke:none;stroke-width:4;stroke-linecap:square;stroke-linejoin:miter;stroke-miterlimit:4;stroke-dasharray:none;stroke-dashoffset:0;stroke-opacity:1" id="path4155" d="m 20,2.8509505 12,0 0,10e-8 0,3.9999999 0,0 -12,0 0,0 z"/><path style="opacity:1;fill:#cacaca;fill-opacity:1;stroke:none;stroke-width:4;stroke-linecap:square;stroke-linejoin:miter;stroke-miterlimit:4;stroke-dasharray:none;stroke-dashoffset:0;stroke-opacity:1" id="path4157" d="m 26,0.85095088 4,0 0,0 0,8.00000002 0,0 -4,0 0,0 z"/><path style="display:inline;opacity:1;fill:#cacaca;fill-opacity:1;stroke:none;stroke-width:4;stroke-linecap:square;stroke-linejoin:miter;stroke-miterlimit:4;stroke-dasharray:none;stroke-dashoffset:0;stroke-opacity:1" id="path4159" d="m 2,0.85095048 4,0 0,1e-7 0,7.99999992 0,0 -4,0 0,0 z"/><path style="display:inline;opacity:1;fill:#cacaca;fill-opacity:1;stroke:none;stroke-width:4;stroke-linecap:square;stroke-linejoin:miter;stroke-miterlimit:4;stroke-dasharray:none;stroke-dashoffset:0;stroke-opacity:1" id="path4161" d="m 0,2.8509509 12,0 0,0 0,4 0,0 -12,0 0,0 z"/><path id="path4158" d="m 4.5369275,22.742829 c 0.686265,1.358472 0.864745,3.163245 4.244009,4.854937" style="display:inline;fill:none;fill-rule:evenodd;stroke:#c8c8c8;stroke-width:5;stroke-linecap:butt;stroke-linejoin:miter;stroke-miterlimit:4;stroke-dasharray:none;stroke-opacity:1"/><path id="path4158-3" d="m 24.121221,27.578921 c 1.259109,-0.855015 3.026025,-1.263754 4.269808,-4.832263" style="display:inline;fill:none;fill-rule:evenodd;stroke:#c8c8c8;stroke-width:5;stroke-linecap:butt;stroke-linejoin:miter;stroke-miterlimit:4;stroke-dasharray:none;stroke-opacity:1"/></g></svg>