<svg xmlns="http://www.w3.org/2000/svg" xmlns:svg="http://www.w3.org/2000/svg" id="svg2" width="34.133" height="34.133" version="1.1" viewBox="0 0 32 32"><metadata id="metadata7"/><g id="layer2"><path id="path842" d="m 12.51554,2.9161979 c 4.29949,-0.625381 4.143145,-0.547208 7.035529,0.07817" style="opacity:.97000002;fill:none;stroke:#c8c8c8;stroke-width:3.23624992;stroke-linecap:butt;stroke-linejoin:miter;stroke-miterlimit:4;stroke-dasharray:none;stroke-opacity:1"/><path id="path842-4" d="m 21.80237,4.4315439 c 3.924451,1.8642432 3.751001,1.8425772 5.810892,3.9671545" style="opacity:.97000002;fill:none;stroke:#c8c8c8;stroke-width:3.23624992;stroke-linecap:butt;stroke-linejoin:miter;stroke-miterlimit:4;stroke-dasharray:none;stroke-opacity:1"/><path id="path842-4-2" d="m 29.411232,12.234364 c 0.634092,4.298213 0.555602,4.142027 -0.06391,7.035672" style="opacity:.97000002;fill:none;stroke:#c8c8c8;stroke-width:3.23624992;stroke-linecap:butt;stroke-linejoin:miter;stroke-miterlimit:4;stroke-dasharray:none;stroke-opacity:1"/><path id="path842-4-2-0" d="m 28.605258,22.458583 c -2.455439,3.584343 -2.406896,3.41642 -4.82766,5.118442" style="opacity:.97000002;fill:none;stroke:#c8c8c8;stroke-width:3.23624992;stroke-linecap:butt;stroke-linejoin:miter;stroke-miterlimit:4;stroke-dasharray:none;stroke-opacity:1"/><path id="path842-4-2-0-7" d="m 19.424402,28.931695 c -4.299743,0.623632 -4.143367,0.545524 -7.035497,-0.08103" style="opacity:.97000002;fill:none;stroke:#c8c8c8;stroke-width:3.23624992;stroke-linecap:butt;stroke-linejoin:miter;stroke-miterlimit:4;stroke-dasharray:none;stroke-opacity:1"/><path id="path842-4-2-0-7-5" d="M 8.7203315,27.790492 C 5.3849535,25.006257 5.5475175,25.070504 4.0826935,22.499264" style="opacity:.97000002;fill:none;stroke:#c8c8c8;stroke-width:3.23624992;stroke-linecap:butt;stroke-linejoin:miter;stroke-miterlimit:4;stroke-dasharray:none;stroke-opacity:1"/><path id="path842-4-2-0-7-5-2" d="m 3.0044885,19.781782 c -0.608958,-4.301843 -0.531384,-4.145203 0.105035,-7.035178" style="opacity:.97000002;fill:none;stroke:#c8c8c8;stroke-width:3.23624992;stroke-linecap:butt;stroke-linejoin:miter;stroke-miterlimit:4;stroke-dasharray:none;stroke-opacity:1"/><path id="path842-4-2-0-7-5-2-3" d="M 4.7551605,9.712375 C 6.7242665,5.8394793 6.6979435,6.0122844 8.8771465,4.0102698" style="opacity:.97000002;fill:none;stroke:#c8c8c8;stroke-width:3.23624992;stroke-linecap:butt;stroke-linejoin:miter;stroke-miterlimit:4;stroke-dasharray:none;stroke-opacity:1"/></g></svg>