<svg xmlns="http://www.w3.org/2000/svg" xmlns:svg="http://www.w3.org/2000/svg" id="svg2" width="32" height="32" version="1.1" viewBox="0 0 32 32"><defs id="defs4"><filter style="color-interpolation-filters:sRGB" id="filter4429"><feFlood id="feFlood4431" flood-color="#000" flood-opacity=".502" result="flood"/><feComposite id="feComposite4433" in="flood" in2="SourceGraphic" operator="in" result="composite1"/><feGaussianBlur id="feGaussianBlur4435" in="composite1" result="blur" stdDeviation="0"/><feOffset id="feOffset4437" dx="0" dy="-2" result="offset"/><feComposite id="feComposite4439" in="SourceGraphic" in2="offset" operator="over" result="composite2"/></filter><filter style="color-interpolation-filters:sRGB" id="filter4238"><feFlood id="feFlood4240" flood-color="#000" flood-opacity=".502" result="flood"/><feComposite id="feComposite4242" in="flood" in2="SourceGraphic" operator="in" result="composite1"/><feGaussianBlur id="feGaussianBlur4244" in="composite1" result="blur" stdDeviation="0"/><feOffset id="feOffset4246" dx="0" dy="-2" result="offset"/><feComposite id="feComposite4248" in="SourceGraphic" in2="offset" operator="over" result="composite2"/></filter></defs><metadata id="metadata7"/><g id="layer4" style="display:inline"><path style="opacity:1;fill:#cacaca;fill-opacity:1;stroke:none;stroke-width:4;stroke-linecap:butt;stroke-linejoin:bevel;stroke-miterlimit:4;stroke-dasharray:none;stroke-dashoffset:1;stroke-opacity:1" id="rect4883" d="M 0,0 V 4 8 H 4 V 4 H 8 V 0 Z m 0,12 v 8 h 4 v -8 z m 0,12 v 4 4 H 8 V 28 H 4 v -4 z m 28,0 v 4 h -4 v 4 h 8 v -4 -4 z m -16,4 v 4 h 8 v -4 z"/></g><g id="layer1"><path style="fill:#c8c8c8;fill-opacity:1;stroke:none;stroke-width:1.375" id="path4" d="M 28.363961,17.778175 C 32.659725,13.48241 33.399006,7.2568706 29.071068,2.9289322 24.74313,-1.3990061 18.51759,-0.65972524 14.221825,3.636039 l -2.474873,2.4748737 2.916816,2.9168162 2.474874,-2.4748738 c 2.684854,-2.684854 6.861086,-2.8616307 9.01561,-0.7071064 2.154524,2.154524 1.977748,6.3307563 -0.707106,9.0156103 l -2.474874,2.474874 2.916815,2.916815 z M 24.916815,21.225321 21.999999,18.308505 19.083185,21.22532 22,24.142136 Z M 13.691495,10.000001 10.774679,7.0831852 7.8578644,10 10.774681,12.916816 Z" class="ColorScheme-Text"/></g></svg>