<svg xmlns="http://www.w3.org/2000/svg" xmlns:svg="http://www.w3.org/2000/svg" id="svg2" width="32" height="32" version="1.1" viewBox="0 0 32 32"><metadata id="metadata7"/><g style="display:none" id="layer3"><path id="rect4360" d="m 2,0 0,4 0,6 4,0 0,-2 C 6,5.9999995 8,4 12,4 l 2,0 0,22 c 0,1 -1,2 -2,2 l -2,0 0,4 4,0 4,0 4,0 0,-4 -2,0 c -1,0 -2,-1 -2,-2 l 0,-22 2,0 c 4,0 6,1.9999995 6,4 l 0,2 4,0 L 30,0 6,0 Z" style="opacity:1;fill:#cacaca;fill-opacity:1;stroke:none;stroke-width:2;stroke-linecap:square;stroke-linejoin:miter;stroke-miterlimit:4;stroke-dasharray:none;stroke-dashoffset:1;stroke-opacity:1"/></g><g id="g4154" style="display:inline"><path style="opacity:1;fill:#cacaca;fill-opacity:1;stroke:none;stroke-width:2;stroke-linecap:square;stroke-linejoin:miter;stroke-miterlimit:4;stroke-dasharray:none;stroke-dashoffset:1;stroke-opacity:1" id="path4156" d="m 2,0 0,4 0,6 4,0 0,-6 6,0 2,0 0,24 -2,0 -2,0 0,4 4,0 4,0 4,0 0,-4 -2,0 -2,0 0,-24 2,0 6,0 0,6 4,0 L 30,0 6,0 Z"/></g></svg>