<svg xmlns="http://www.w3.org/2000/svg" xmlns:svg="http://www.w3.org/2000/svg" id="svg2" width="32" height="32" version="1.1" viewBox="0 0 32 32"><metadata id="metadata7"/><g style="display:inline" id="layer4"><path id="rect4883" d="M 0,0 0,4 0,8 4,8 4,4 8,4 8,0 Z m 0,12 0,8 4,0 0,-8 z m 0,12 0,4 0,4 8,0 0,-4 -4,0 0,-4 z m 28,0 0,4 -4,0 0,4 8,0 0,-4 0,-4 z m -16,4 0,4 8,0 0,-4 z" style="opacity:1;fill:#cacaca;fill-opacity:1;stroke:none;stroke-width:4;stroke-linecap:butt;stroke-linejoin:bevel;stroke-miterlimit:4;stroke-dasharray:none;stroke-dashoffset:1;stroke-opacity:1"/></g><g id="layer1"><rect id="rect4198" width="13.435" height="4.154" x="15.105" y="-11.748" transform="matrix(0.68612539,0.7274833,-0.7274833,0.68612539,0,0)" style="opacity:1;fill:#c8c8c8;fill-opacity:1;stroke:#c8c8c8;stroke-width:1.5;stroke-miterlimit:4;stroke-dasharray:none;stroke-opacity:1"/><rect id="rect4198-3" width="6.044" height="7.997" x="18.813" y="-18.578" ry="0" transform="matrix(0.68612539,0.7274833,-0.7274833,0.68612539,0,0)" style="opacity:1;fill:#c8c8c8;fill-opacity:1;stroke:#c8c8c8;stroke-width:1.5;stroke-miterlimit:4;stroke-dasharray:none;stroke-opacity:1"/><path id="path4215" d="M 18.473165,8.0467578 8.5736699,17.681088 7.6897859,22.807612 12.374369,21.83534 22.980971,12.20101" style="fill:none;fill-rule:evenodd;stroke:#c8c8c8;stroke-width:1.70000005;stroke-linecap:butt;stroke-linejoin:miter;stroke-miterlimit:4;stroke-dasharray:none;stroke-opacity:1"/><path id="path4217" d="m 7.3362329,19.448855 c 0.441942,0 7.0710681,0.441942 7.0710681,0.441942 l -4.331029,2.828427 -2.8284271,-0.265165 z" style="fill:#c8c8c8;fill-opacity:1;fill-rule:evenodd;stroke:none;stroke-width:1px;stroke-linecap:butt;stroke-linejoin:miter;stroke-opacity:1"/></g></svg>