<svg xmlns="http://www.w3.org/2000/svg" xmlns:svg="http://www.w3.org/2000/svg" id="svg2" width="32" height="32" version="1.1" viewBox="0 0 32 32"><metadata id="metadata7"/><g style="display:none" id="layer2"><path id="rect4157-3" d="m 24,30 0,-2 -2,0 0,-2 2,0 0,-2 2,0 0,-2 2,0 0,2 2,0 0,2 -2,0 0,2 -2,0 0,2 -2,0 z" style="opacity:1;fill:#cacaca;fill-opacity:1;stroke:none;stroke-width:4;stroke-linecap:butt;stroke-linejoin:miter;stroke-miterlimit:4;stroke-dasharray:none;stroke-dashoffset:1;stroke-opacity:1"/><path id="rect4157-2-3" d="m 8,30 0,-2 2,0 0,-2 -2,0 0,-2 -2,0 0,-2 -2,0 0,2 -2,0 0,2 2,0 0,2 2,0 0,2 2,0 z" style="opacity:1;fill:#cacaca;fill-opacity:1;stroke:none;stroke-width:4;stroke-linecap:butt;stroke-linejoin:miter;stroke-miterlimit:4;stroke-dasharray:none;stroke-dashoffset:1;stroke-opacity:1"/><rect id="rect4155-8" width="8" height="4" x="12" y="28" rx="0" ry="0" style="opacity:1;fill:#cacaca;fill-opacity:1;stroke:none;stroke-width:4;stroke-linecap:butt;stroke-linejoin:miter;stroke-miterlimit:4;stroke-dasharray:none;stroke-dashoffset:1;stroke-opacity:1"/><rect id="rect4155-8-7" width="8" height="4" x="12" y="-32" rx="0" ry="0" transform="matrix(0,1,-1,0,0,0)" style="opacity:1;fill:#cacaca;fill-opacity:1;stroke:none;stroke-width:4;stroke-linecap:butt;stroke-linejoin:miter;stroke-miterlimit:4;stroke-dasharray:none;stroke-dashoffset:1;stroke-opacity:1"/><rect id="rect4155-8-7-8" width="8" height="4" x="12" y="-4" rx="0" ry="0" transform="matrix(0,1,-1,0,0,0)" style="opacity:1;fill:#cacaca;fill-opacity:1;stroke:none;stroke-width:4;stroke-linecap:butt;stroke-linejoin:miter;stroke-miterlimit:4;stroke-dasharray:none;stroke-dashoffset:1;stroke-opacity:1"/></g><g id="layer3"><ellipse id="path4166" cx="16" cy="28" rx="14" ry="20" style="opacity:1;fill:none;fill-opacity:1;stroke:#cacaca;stroke-width:3.99999952;stroke-linecap:square;stroke-linejoin:miter;stroke-miterlimit:4;stroke-dasharray:none;stroke-dashoffset:0;stroke-opacity:1"/></g><g id="g4151" style="display:inline"><path style="display:inline;opacity:1;fill:#cacaca;fill-opacity:1;stroke:none;stroke-width:4;stroke-linecap:square;stroke-linejoin:miter;stroke-miterlimit:4;stroke-dasharray:none;stroke-dashoffset:0;stroke-opacity:1" id="path4153" d="m 12,0 0,8 8,0 0,-8 z m 2,2 4,0 0,4 -4,0 z"/><path style="display:inline;opacity:1;fill:#cacaca;fill-opacity:1;stroke:none;stroke-width:4;stroke-linecap:square;stroke-linejoin:miter;stroke-miterlimit:4;stroke-dasharray:none;stroke-dashoffset:0;stroke-opacity:1" id="path4155" d="m 20,1.999999 12,0 0,10e-8 0,3.9999999 0,0 -12,0 0,0 z"/><path style="opacity:1;fill:#cacaca;fill-opacity:1;stroke:none;stroke-width:4;stroke-linecap:square;stroke-linejoin:miter;stroke-miterlimit:4;stroke-dasharray:none;stroke-dashoffset:0;stroke-opacity:1" id="path4157" d="m 26,-6e-7 4,0 0,0 0,8 0,0 -4,0 0,0 z"/><path style="display:inline;opacity:1;fill:#cacaca;fill-opacity:1;stroke:none;stroke-width:4;stroke-linecap:square;stroke-linejoin:miter;stroke-miterlimit:4;stroke-dasharray:none;stroke-dashoffset:0;stroke-opacity:1" id="path4159" d="m 2,-1e-6 4,0 0,1e-7 0,7.9999999 0,0 -4,0 0,0 z"/><path style="display:inline;opacity:1;fill:#cacaca;fill-opacity:1;stroke:none;stroke-width:4;stroke-linecap:square;stroke-linejoin:miter;stroke-miterlimit:4;stroke-dasharray:none;stroke-dashoffset:0;stroke-opacity:1" id="path4161" d="m 0,1.9999994 12,0 0,0 0,4 0,0 -12,0 0,0 z"/></g></svg>