<svg xmlns="http://www.w3.org/2000/svg" xmlns:svg="http://www.w3.org/2000/svg" id="svg2" width="12" height="12" version="1.1" viewBox="0 0 12 12"><metadata id="metadata7"/><g id="layer1" transform="translate(0,-1040.3622)"><path style="color:#000;clip-rule:nonzero;display:inline;overflow:visible;visibility:visible;opacity:1;isolation:auto;mix-blend-mode:normal;color-interpolation:sRGB;color-interpolation-filters:linearRGB;solid-color:#000;solid-opacity:1;fill:#373737;fill-opacity:1;fill-rule:nonzero;stroke:none;stroke-width:1;stroke-linecap:butt;stroke-linejoin:miter;stroke-miterlimit:4;stroke-dasharray:none;stroke-dashoffset:0;stroke-opacity:1;marker:none;color-rendering:auto;image-rendering:auto;shape-rendering:auto;text-rendering:auto;enable-background:accumulate" id="path4270" d="m 6.3018832,1041.3719 a 5,5 0 0 0 -3.0535609,0.8236 l 0.7221754,0.7233 a 4,4 0 0 1 2.0649838,-0.5527 l 0.2664017,-0.9942 z m 1.9308406,0.5214 -0.2658961,0.9923 a 4,4 0 0 1 1.5143523,1.5098 l 0.987061,-0.2653 a 5,5 0 0 0 -2.2355172,-2.2368 z m -6.3982056,1.7149 a 5,5 0 0 0 -0.6641473,1.4599 5,5 0 0 0 -0.1566588,1.5959 l 0.9870605,-0.2653 a 4,4 0 0 1 0.1355242,-1.0718 4,4 0 0 1 0.4222834,-0.9949 l -0.724062,-0.7238 z m 9.1517698,2.4522 -0.9870604,0.2653 a 4,4 0 0 1 -0.1355242,1.0718 4,4 0 0 1 -0.4222835,0.9949 l 0.7240621,0.7238 a 5,5 0 0 0 0.664147,-1.4599 5,5 0 0 0 0.156659,-1.5959 z m -8.4674679,2.2686 -0.9870605,0.2653 a 5,5 0 0 0 2.2355168,2.2368 l 0.2658961,-0.9923 a 4,4 0 0 1 -1.5143524,-1.5098 z m 5.5106823,1.4766 a 4,4 0 0 1 -2.0649838,0.5527 l -0.2664018,0.9942 a 5,5 0 0 0 3.053561,-0.8236 l -0.7221754,-0.7233 z"/></g></svg>