<svg xmlns="http://www.w3.org/2000/svg" xmlns:svg="http://www.w3.org/2000/svg" id="svg2" width="12" height="12" version="1.1" viewBox="0 0 12 12"><metadata id="metadata7"/><g id="layer1" transform="translate(0,-1040.3622)"><path style="color:#000;clip-rule:nonzero;display:inline;overflow:visible;visibility:visible;opacity:1;isolation:auto;mix-blend-mode:normal;color-interpolation:sRGB;color-interpolation-filters:linearRGB;solid-color:#000;solid-opacity:1;fill:#373737;fill-opacity:1;fill-rule:nonzero;stroke:none;stroke-width:0;stroke-linecap:butt;stroke-linejoin:miter;stroke-miterlimit:4;stroke-dasharray:none;stroke-dashoffset:0;stroke-opacity:1;marker:none;color-rendering:auto;image-rendering:auto;shape-rendering:auto;text-rendering:auto;enable-background:accumulate" id="rect4146" d="M 10 2.0117188 L 10 3.0117188 L 10.009766 3.0117188 L 10.009766 10.011719 L 11.009766 9.0117188 L 11.009766 2.0117188 L 10 2.0117188 z M 3.0097656 4 L 3.0097656 12.011719 L 8.0097656 12.011719 L 9.0097656 11.011719 L 4.0097656 11.011719 L 4.0097656 4 L 3.0097656 4 z" transform="translate(0,1040.3622)"/><path style="fill:#373737;fill-opacity:1;fill-rule:evenodd;stroke:none;stroke-width:1px;stroke-linecap:butt;stroke-linejoin:miter;stroke-opacity:1" id="path4154" d="m 11.010144,1049.3734 -2.9999904,3 0,-3 2.9999904,0"/><path style="fill:#373737;fill-opacity:1;fill-rule:evenodd;stroke:none;stroke-width:1px;stroke-linecap:butt;stroke-linejoin:miter;stroke-opacity:1" id="path4856" d="M 2 -0.041015625 L 2 0.95898438 L 5 3.9589844 L 5 6 L 7.0097656 7.9589844 L 7.0097656 3.9589844 L 10.009766 0.95898438 L 10.009766 -0.041015625 L 2 -0.041015625 z M 4 1 L 8 1 L 6 3 L 4 1 z" transform="translate(0,1040.3622)"/></g></svg>