<svg xmlns="http://www.w3.org/2000/svg" xmlns:svg="http://www.w3.org/2000/svg" id="svg2" width="12" height="12" version="1.1" viewBox="0 0 12 12"><metadata id="metadata7"/><g id="layer1" transform="translate(0,-1040.3622)"><path style="color:#000;clip-rule:nonzero;display:inline;overflow:visible;visibility:visible;opacity:1;isolation:auto;mix-blend-mode:normal;color-interpolation:sRGB;color-interpolation-filters:linearRGB;solid-color:#000;solid-opacity:1;fill:#cacaca;fill-opacity:1;fill-rule:nonzero;stroke:none;stroke-width:0;stroke-linecap:butt;stroke-linejoin:miter;stroke-miterlimit:4;stroke-dasharray:none;stroke-dashoffset:0;stroke-opacity:1;marker:none;color-rendering:auto;image-rendering:auto;shape-rendering:auto;text-rendering:auto;enable-background:accumulate" id="rect4143" d="m 2.0002791,1041.3622 0,4 1,0 0,-3 1.999721,0 0,-1 z m 4.999721,0 0,1 2.000279,0 0,3 1.0000009,0 0,-4 z m -4.999721,6 0,4 2.999721,0 0,-1 -1.999721,0 0,-3 z m 7,0 0,3 -2.000279,0 0,1 3.0002799,0 0,-4 z"/><path style="fill:#cacaca;fill-rule:evenodd;stroke:none;stroke-width:1px;stroke-linecap:butt;stroke-linejoin:miter;stroke-opacity:1;fill-opacity:1" id="path4164" d="m 6,1040.3622 -1,3 2,0 z"/><path style="fill:#cacaca;fill-rule:evenodd;stroke:none;stroke-width:1px;stroke-linecap:butt;stroke-linejoin:miter;stroke-opacity:1;fill-opacity:1" id="path4166" d="m 5,1049.3622 1,3 1,-3 z"/><path style="fill:#cacaca;fill-opacity:1;fill-rule:evenodd;stroke:none;stroke-width:1px;stroke-linecap:butt;stroke-linejoin:miter;stroke-opacity:1" id="path4164-3" d="m 0.98214284,1046.3622 3.00000016,1 0,-2 z"/><path style="fill:#cacaca;fill-opacity:1;fill-rule:evenodd;stroke:none;stroke-width:1px;stroke-linecap:butt;stroke-linejoin:miter;stroke-opacity:1" id="path4166-6" d="m 8.017857,1047.3622 2.999999,-1 -2.999999,-1 z"/></g></svg>