<svg xmlns="http://www.w3.org/2000/svg" xmlns:svg="http://www.w3.org/2000/svg" id="svg2" width="12" height="12" version="1.1" viewBox="0 0 12 12"><metadata id="metadata7"/><g id="layer1" transform="translate(0,-1040.3622)"><path style="color:#000;clip-rule:nonzero;display:inline;overflow:visible;visibility:visible;opacity:1;isolation:auto;mix-blend-mode:normal;color-interpolation:sRGB;color-interpolation-filters:linearRGB;solid-color:#000;solid-opacity:1;fill:#cacaca;fill-opacity:1;fill-rule:nonzero;stroke:none;stroke-width:0;stroke-linecap:butt;stroke-linejoin:miter;stroke-miterlimit:4;stroke-dasharray:none;stroke-dashoffset:0;stroke-opacity:1;marker:none;color-rendering:auto;image-rendering:auto;shape-rendering:auto;text-rendering:auto;enable-background:accumulate" id="rect4146" d="M 3 1 L 3 2 L 4 2 L 5 2 L 10 2 L 10 8 L 8 8 L 8 10 L 4 10 L 4 8 L 3 8 L 3 11 L 8 11 L 9 10 L 10 9 L 11 8 L 11 1 L 3 1 z" transform="translate(0,1040.3622)"/><path style="fill:#cacaca;fill-opacity:1;fill-rule:evenodd;stroke:none;stroke-width:1px;stroke-linecap:butt;stroke-linejoin:miter;stroke-opacity:1" id="path4137" d="m 1,1043.3622 1,0 4,3 0,1 -1,0 -4,-3 z"/><path style="fill:#cacaca;fill-opacity:1;fill-rule:evenodd;stroke:none;stroke-width:1px;stroke-linecap:butt;stroke-linejoin:miter;stroke-opacity:1" id="path4139" d="m 6,1047.3622 0,1 1,0 0,-1 z"/></g></svg>