<svg xmlns="http://www.w3.org/2000/svg" xmlns:svg="http://www.w3.org/2000/svg" id="svg2" width="12" height="12" version="1.1" viewBox="0 0 12 12"><metadata id="metadata7"/><g id="layer1" transform="translate(0,-1040.3622)"><path style="color:#000;clip-rule:nonzero;display:inline;overflow:visible;visibility:visible;opacity:1;isolation:auto;mix-blend-mode:normal;color-interpolation:sRGB;color-interpolation-filters:linearRGB;solid-color:#000;solid-opacity:1;fill:#cacaca;fill-opacity:1;fill-rule:nonzero;stroke:none;stroke-width:0;stroke-linecap:butt;stroke-linejoin:miter;stroke-miterlimit:4;stroke-dasharray:none;stroke-dashoffset:0;stroke-opacity:1;marker:none;color-rendering:auto;image-rendering:auto;shape-rendering:auto;text-rendering:auto;enable-background:accumulate" id="path5625" d="m 9.431898,1042.7258 a 5,5 0 0 0 -6.4316335,-0.3632 5,5 0 0 0 -0.53033,0.4696 l 0.6891529,0.6891 a 4.0214148,4.0214148 0 0 1 0.428131,-0.3756 4.0214148,4.0214148 0 0 1 5.1734805,0.2928 4.0214148,4.0214148 0 0 1 0.4543714,0.5096 4.0214148,4.0214148 0 0 1 0.6615315,3.4623 l 0.7706362,0.7706 a 5,5 0 0 0 -0.6491022,-4.8226 5,5 0 0 0 -0.5662378,-0.6326 z m -0.5910972,6.4772 a 4.0214148,4.0214148 0 0 1 -0.4226067,0.3729 l -0.00967,0.01 a 4.0214148,4.0214148 0 0 1 -5.6278518,-0.8107 4.0214148,4.0214148 0 0 1 -0.6573884,-3.4582 l -0.7706359,-0.7706 a 5,5 0 0 0 0.6449586,4.8158 5,5 0 0 0 6.9964904,1.0082 l 0.01243,-0.01 a 5,5 0 0 0 0.524806,-0.464 l -0.6905343,-0.6906 z"/><path style="fill:#cacaca;fill-opacity:1;fill-rule:evenodd;stroke:none;stroke-width:1px;stroke-linecap:butt;stroke-linejoin:miter;stroke-opacity:1" id="path5655" d="m 3.8786238,1042.8266 -1.4142136,0 2.1213204,2.1214 0.7071067,-0.7071 -1.4142135,-1.4143 z"/><path style="fill:#cacaca;fill-opacity:1;fill-rule:evenodd;stroke:none;stroke-width:1px;stroke-linecap:butt;stroke-linejoin:miter;stroke-opacity:1" id="path5668" d="m 7.4141577,1047.7764 -0.7071068,0.7071 1.4142136,1.4142 1.4142135,0 -2.1213203,-2.1213 z"/></g></svg>