<svg xmlns="http://www.w3.org/2000/svg" xmlns:svg="http://www.w3.org/2000/svg" id="svg3049" width="16" height="16" version="1.1"><metadata id="metadata3054"/><g id="layer1" transform="translate(-421.71429,-531.79074)"><rect id="rect6219" width="12" height="1" x="423.714" y="544.791" style="color:#000;display:inline;overflow:visible;visibility:visible;fill:#4d4d4d;fill-opacity:1;fill-rule:nonzero;stroke:none;stroke-width:1;marker:none;enable-background:accumulate"/><path style="color:#000;display:inline;overflow:visible;visibility:visible;fill:#4d4d4d;fill-opacity:1;fill-rule:nonzero;stroke:none;stroke-width:1;marker:none;enable-background:accumulate" id="rect6223-4-8" d="M 4 2 L 4 4 L 4 5 L 4 9 C 4 10.65685 5.567 12 7.5 12 C 9.433 12 11 10.65685 11 9 L 11 4 L 11 2 L 10 2 L 10 4 L 10 6.90625 L 10 9 C 10 10.10457 9.10457 11 8 11 C 6.89543 11 6 10.10457 6 9 L 6 6.3125 L 6 5 L 6 4 L 6 2 L 4 2 z" transform="translate(421.71429,531.79074)"/></g></svg>