<svg xmlns="http://www.w3.org/2000/svg" xmlns:svg="http://www.w3.org/2000/svg" id="svg3049" width="16" height="16" version="1.1"><metadata id="metadata3054"/><g id="layer1" transform="translate(-421.71429,-531.79074)"><circle style="opacity:1;fill:#fff;fill-opacity:1;stroke:none" id="path4139" cx="429.714" cy="539.791" r="4"/><path style="opacity:1;fill:#da4453;fill-opacity:1;stroke:none" id="path4142" d="m 429.71429,533.79074 a 6,6 0 0 0 -6,6 6,6 0 0 0 6,6 6,6 0 0 0 6,-6 6,6 0 0 0 -6,-6 z m -2.29297,3 2.29297,2.29297 2.29297,-2.29297 0.70703,0.70703 -2.29297,2.29297 2.29297,2.29297 -0.70703,0.70703 -2.29297,-2.29297 -2.29297,2.29297 -0.70703,-0.70703 2.29297,-2.29297 -2.29297,-2.29297 0.70703,-0.70703 z"/></g></svg>