<svg xmlns="http://www.w3.org/2000/svg" xmlns:svg="http://www.w3.org/2000/svg" id="svg3049" width="16" height="16" version="1.1"><metadata id="metadata3054"/><g id="layer1" transform="translate(-421.71429,-531.79074)"><rect id="rect4035" width="0" height="11" x="404.714" y="534.791" style="fill:#4d4d4d;fill-opacity:1;stroke:none"/><rect id="rect4035-5" width="0" height="11" x="422.755" y="532.739" style="fill:#4d4d4d;fill-opacity:1;stroke:none"/><rect id="rect4035-8" width="0" height="11" x="404.714" y="534.791" style="fill:#4d4d4d;fill-opacity:1;stroke:none"/><rect id="rect4035-59" width="0" height="11" x="404.714" y="534.791" style="fill:#4d4d4d;fill-opacity:1;stroke:none"/><path id="rect4149" d="m 433.71429,540.79074 0,2 -2,0 0,1 2,0 0,2 1,0 0,-2 2,0 0,-1 -2,0 0,-2 -1,0 z" style="opacity:1;fill:#4d4d4d;fill-opacity:1;stroke:none;stroke-width:.1;stroke-linecap:round;stroke-miterlimit:4;stroke-dasharray:none;stroke-opacity:1"/><path id="rect4155" d="m 423.71429,536.79074 1,0 0,-2 4,0 0,9 -1,0 0,1 3,0 0,-1 -1,0 0,-9 4,0 0,2 1,0 0,-3 -10,0 -1,0 0,1 0,2 z" style="fill:#4d4d4d;fill-opacity:1;stroke:none"/></g></svg>