<svg xmlns="http://www.w3.org/2000/svg" xmlns:svg="http://www.w3.org/2000/svg" id="svg3049" width="16" height="16" version="1.1"><defs id="defs3051"><clipPath id="clipPath4210" clipPathUnits="userSpaceOnUse"><rect style="opacity:1;fill:#00f;fill-opacity:.51376145;stroke:none;stroke-opacity:1" id="rect4212" width="34" height="34" x="-7" y="1024.362"/></clipPath></defs><metadata id="metadata3054"/><g id="layer1" transform="translate(-421.71429,-531.79074)"><g id="layer1-0" transform="matrix(0.75,0,0,0.74999813,421.46429,-241.22897)"><g id="layer1-6" transform="translate(6.2937501e-7,-2.041003e-4)"><path style="fill:#4d4d4d;fill-opacity:1;stroke:none" id="rect4252" d="M 5 2 L 5 3 L 6 3 L 9 3 L 4.71875 13 L 2 13 L 2 14 L 4.28125 14 L 6.28125 14 L 10 14 L 11 14 L 11 13 L 10 13 L 7 13 L 11.28125 3 L 14 3 L 14 2 L 11.71875 2 L 9.71875 2 L 6 2 L 5 2 z" transform="matrix(1.3333333,0,0,1.3333367,0.3333327,1030.6957)"/></g></g></g></svg>