<svg xmlns="http://www.w3.org/2000/svg" xmlns:svg="http://www.w3.org/2000/svg" id="svg3049" width="16" height="16" version="1.1"><metadata id="metadata3054"/><g id="layer1" transform="translate(-421.71429,-531.79074)"><path style="fill:#4d4d4d;fill-opacity:1;stroke:none" id="path5483" d="M 2 2 L 2 3 L 14 3 L 14 2 L 2 2 z M 5 4 L 5 5 L 14 5 L 14 4 L 5 4 z M 2 8 L 2 9 L 9 9 L 9 8 L 2 8 z M 7 10 L 7 11 L 9 11 L 9 10 L 7 10 z M 2 13 L 2 14 L 4 14 L 14 14 L 14 13 L 4 13 L 2 13 z" transform="translate(421.71429,531.79074)"/><path style="fill:#4d4d4d;fill-opacity:1;stroke:none" id="path2996" d="m 435.71429,543.79074 c 0,0 0,-5 0,-5 l -3,2.5 z"/></g></svg>