<svg xmlns="http://www.w3.org/2000/svg" xmlns:svg="http://www.w3.org/2000/svg" id="svg3049" width="16" height="16" version="1.1"><metadata id="metadata3054"/><g id="layer1" transform="translate(-421.71429,-531.79074)"><path style="fill:#4d4d4d;fill-opacity:1;stroke:none" id="rect4112-8" d="M 12 7 C 11.61083 8.27687 10.63869 9.37115 10.21875 10.25 C 10.0718 10.5113 10 10.80798 10 11.125 C 10 12.16375 10.892 13 12 13 C 13.108 13 14 12.16375 14 11.125 C 14 10.80798 13.89698 10.5113 13.75 10.25 C 13.33006 9.37115 12.38916 8.27687 12 7 z" transform="translate(421.71429,531.79074)"/><path style="fill:#4d4d4d;fill-opacity:1;fill-rule:evenodd;stroke:none" id="rect4142" d="M 2 3 L 2 4 L 6 4 L 6 13 L 7 13 L 7 4 L 11 4 L 11 3 L 2 3 z" transform="translate(421.71429,531.79074)"/></g></svg>