<svg xmlns="http://www.w3.org/2000/svg" xmlns:svg="http://www.w3.org/2000/svg" id="svg3049" width="16" height="16" version="1.1"><metadata id="metadata3054"/><g id="layer1" transform="translate(-421.71429,-531.79074)"><rect style="fill:#4d4d4d;fill-opacity:1;stroke:none" id="rect4035" width="0" height="11" x="404.714" y="534.791"/><path style="color:#000;fill:#4d4d4d;fill-opacity:1;fill-rule:nonzero;stroke:none;stroke-width:2;marker:none;visibility:visible;display:inline;overflow:visible;enable-background:accumulate" id="rect3914" d="M 2 2 L 2 3 L 14 3 L 14 2 L 2 2 z M 4 4 L 4 5 L 12 5 L 12 4 L 4 4 z M 2 7 L 2 8 L 14 8 L 14 7 L 2 7 z M 5 9 L 5 10 L 11 10 L 11 9 L 5 9 z M 2 12 L 2 13 L 14 13 L 14 12 L 2 12 z M 6 14 L 6 15 L 10 15 L 10 14 L 6 14 z" transform="translate(421.71429,531.79074)"/></g></svg>