<svg xmlns="http://www.w3.org/2000/svg" xmlns:svg="http://www.w3.org/2000/svg" id="svg3049" width="16" height="16" version="1.1"><metadata id="metadata3054"/><g id="layer1" transform="translate(-421.71429,-531.79074)"><path style="opacity:1;fill:#4d4d4d;fill-opacity:1;stroke:none;stroke-width:2;stroke-linecap:round;stroke-miterlimit:4;stroke-dasharray:none;stroke-opacity:1" id="rect4665" d="m 426.71429,533.79071 0,5.00003 -1,0 0,3 1,0 0,3.99997 1,3e-5 0,-4 1,0 0,-3 -1,0 0,-5.00003 z"/><path style="opacity:1;fill:#4d4d4d;fill-opacity:1;stroke:none;stroke-width:2;stroke-linecap:round;stroke-miterlimit:4;stroke-dasharray:none;stroke-opacity:1" id="rect4667" d="m 434.71429,538.79074 -1,0 -1,0 -1,0 0,3 1,0 0,3.99997 1,0 0,-3.99997 1,0 z"/><rect style="opacity:1;fill:#4d4d4d;fill-opacity:1;stroke:none;stroke-width:2;stroke-linecap:round;stroke-miterlimit:4;stroke-dasharray:none;stroke-opacity:1" id="rect4673" width="1" height="1" x="429.714" y="539.791"/><path style="fill:#4d4d4d;fill-opacity:1;fill-rule:evenodd;stroke:none;stroke-width:1px;stroke-linecap:butt;stroke-linejoin:miter;stroke-opacity:1" id="path4731" d="m 427.71429,535.79074 3,-2.00003 0,4.00003 z"/><path style="fill:#4d4d4d;fill-opacity:1;fill-rule:evenodd;stroke:none;stroke-width:1px;stroke-linecap:butt;stroke-linejoin:miter;stroke-opacity:1" id="path4731-9" d="m 426.71429,535.79074 -3,-2.00003 0,4.00003 z"/></g></svg>