<svg xmlns="http://www.w3.org/2000/svg" xmlns:svg="http://www.w3.org/2000/svg" id="svg3049" width="16" height="16" version="1.1"><metadata id="metadata3054"/><g id="layer1" transform="translate(-421.71429,-531.79074)"><rect id="rect4035" width="0" height="11" x="404.714" y="547.791" style="fill:#f2f2f2;fill-opacity:1;stroke:none"/><rect id="rect4035-5" width="0" height="11" x="422.755" y="545.739" style="fill:#f2f2f2;fill-opacity:1;stroke:none"/><rect id="rect4035-8" width="0" height="11" x="404.714" y="547.791" style="fill:#f2f2f2;fill-opacity:1;stroke:none"/><rect id="rect4035-59" width="0" height="11" x="404.714" y="547.791" style="fill:#f2f2f2;fill-opacity:1;stroke:none"/><rect id="rect4035-9" width="0" height="11" x="404.714" y="547.791" style="fill:#f2f2f2;fill-opacity:1;stroke:none"/><rect id="rect4035-5-7" width="0" height="11" x="422.755" y="545.739" style="fill:#f2f2f2;fill-opacity:1;stroke:none"/><rect id="rect4035-9-0" width="0" height="11" x="384.714" y="547.791" style="fill:#f2f2f2;fill-opacity:1;stroke:none"/><rect id="rect4035-5-7-5" width="0" height="11" x="402.755" y="545.739" style="fill:#f2f2f2;fill-opacity:1;stroke:none"/><rect id="rect4035-6" width="0" height="11" x="424.714" y="547.791" style="fill:#f2f2f2;fill-opacity:1;stroke:none"/><rect id="rect4035-5-5" width="0" height="11" x="442.755" y="545.739" style="fill:#f2f2f2;fill-opacity:1;stroke:none"/><rect id="rect4035-8-3" width="0" height="11" x="424.714" y="547.791" style="fill:#f2f2f2;fill-opacity:1;stroke:none"/><rect id="rect4035-59-3" width="0" height="11" x="424.714" y="547.791" style="fill:#f2f2f2;fill-opacity:1;stroke:none"/><rect id="rect4035-9-5" width="0" height="11" x="424.714" y="547.791" style="fill:#f2f2f2;fill-opacity:1;stroke:none"/><rect id="rect4035-5-7-87" width="0" height="11" x="442.755" y="545.739" style="fill:#f2f2f2;fill-opacity:1;stroke:none"/><rect id="rect4035-9-0-0" width="0" height="11" x="404.714" y="547.791" style="fill:#f2f2f2;fill-opacity:1;stroke:none"/><rect id="rect4035-5-7-5-1" width="0" height="11" x="422.755" y="545.739" style="fill:#f2f2f2;fill-opacity:1;stroke:none"/><rect id="rect4035-3" width="0" height="11" x="424.714" y="547.791" style="fill:#f2f2f2;fill-opacity:1;stroke:none"/><rect id="rect4035-5-4" width="0" height="11" x="442.755" y="545.739" style="fill:#f2f2f2;fill-opacity:1;stroke:none"/><rect id="rect4035-8-7" width="0" height="11" x="424.714" y="547.791" style="fill:#f2f2f2;fill-opacity:1;stroke:none"/><rect id="rect4035-59-1" width="0" height="11" x="424.714" y="547.791" style="fill:#f2f2f2;fill-opacity:1;stroke:none"/><rect id="rect4035-9-08" width="0" height="11" x="424.714" y="547.791" style="fill:#f2f2f2;fill-opacity:1;stroke:none"/><rect id="rect4035-5-7-8" width="0" height="11" x="442.755" y="545.739" style="fill:#f2f2f2;fill-opacity:1;stroke:none"/><rect id="rect4035-9-0-2" width="0" height="11" x="404.714" y="547.791" style="fill:#f2f2f2;fill-opacity:1;stroke:none"/><rect id="rect4035-5-7-5-2" width="0" height="11" x="422.755" y="545.739" style="fill:#f2f2f2;fill-opacity:1;stroke:none"/><rect id="rect4035-91" width="0" height="11" x="444.714" y="547.791" style="fill:#f2f2f2;fill-opacity:1;stroke:none"/><rect id="rect4035-5-74" width="0" height="11" x="462.755" y="545.739" style="fill:#f2f2f2;fill-opacity:1;stroke:none"/><rect id="rect4035-8-4" width="0" height="11" x="444.714" y="547.791" style="fill:#f2f2f2;fill-opacity:1;stroke:none"/><rect id="rect4035-59-6" width="0" height="11" x="444.714" y="547.791" style="fill:#f2f2f2;fill-opacity:1;stroke:none"/><rect id="rect4035-9-8" width="0" height="11" x="444.714" y="547.791" style="fill:#f2f2f2;fill-opacity:1;stroke:none"/><rect id="rect4035-5-7-4" width="0" height="11" x="462.755" y="545.739" style="fill:#f2f2f2;fill-opacity:1;stroke:none"/><rect id="rect4035-9-0-4" width="0" height="11" x="424.714" y="547.791" style="fill:#f2f2f2;fill-opacity:1;stroke:none"/><rect id="rect4035-5-7-5-3" width="0" height="11" x="442.755" y="545.739" style="fill:#f2f2f2;fill-opacity:1;stroke:none"/><rect id="rect4035-596" width="0" height="11" x="464.714" y="547.791" style="fill:#f2f2f2;fill-opacity:1;stroke:none"/><rect id="rect4035-5-54" width="0" height="11" x="482.755" y="545.739" style="fill:#f2f2f2;fill-opacity:1;stroke:none"/><rect id="rect4035-8-74" width="0" height="11" x="464.714" y="547.791" style="fill:#f2f2f2;fill-opacity:1;stroke:none"/><rect id="rect4035-59-5" width="0" height="11" x="464.714" y="547.791" style="fill:#f2f2f2;fill-opacity:1;stroke:none"/><rect id="rect4035-9-55" width="0" height="11" x="464.714" y="547.791" style="fill:#f2f2f2;fill-opacity:1;stroke:none"/><rect id="rect4035-5-7-2" width="0" height="11" x="482.755" y="545.739" style="fill:#f2f2f2;fill-opacity:1;stroke:none"/><rect id="rect4035-9-0-3" width="0" height="11" x="444.714" y="547.791" style="fill:#f2f2f2;fill-opacity:1;stroke:none"/><rect id="rect4035-5-7-5-25" width="0" height="11" x="462.755" y="545.739" style="fill:#f2f2f2;fill-opacity:1;stroke:none"/><path id="rect6367" d="m 432.71429,540.79074 0,5 1,0 1.5,0 c 0.82843,0 1.5,-0.67157 1.5,-1.5 0,-0.5333 -0.26819,-1.01527 -0.6875,-1.28125 0.11546,-0.21254 0.1875,-0.45987 0.1875,-0.71875 0,-0.82843 -0.67156,-1.5 -1.5,-1.5 l -1,0 -1,0 z m 1,1 1,0 c 0.27614,0 0.5,0.22386 0.5,0.5 0,0.27614 -0.22386,0.5 -0.5,0.5 l -1,0 0,-1 z m 0,2 1,0 0.5,0 c 0.27615,0 0.5,0.22386 0.5,0.5 0,0.27614 -0.22385,0.5 -0.5,0.5 l -1.5,0 0,-1 z" style="color:#000;display:inline;overflow:visible;visibility:visible;opacity:1;fill:#f2f2f2;fill-opacity:1;fill-rule:nonzero;stroke:none;stroke-width:1;marker:none;enable-background:accumulate"/><path id="path6328-5-5" d="m 428.0971,533.79074 -4.38281,11 1.35742,0 1.18946,-3 4.45312,0 0.47461,0 0.52539,0 0,-1 0,-1.17187 -2.25195,-5.82813 -1.36524,0 z m 0.67969,1.32813 c 0.11316,0.37608 0.71148,2.08196 1.79688,5.11523 l 0.2246,0.55664 -4.14257,0 2.12109,-5.67187 z" style="font-style:normal;font-variant:normal;font-weight:400;font-stretch:normal;font-size:14.99414539px;line-height:125%;font-family:Oxygen;-inkscape-font-specification:Oxygen;letter-spacing:0;word-spacing:0;fill:#f2f2f2;fill-opacity:1;stroke:none"/></g></svg>