<svg xmlns="http://www.w3.org/2000/svg" xmlns:svg="http://www.w3.org/2000/svg" id="svg3049" width="16" height="16" version="1.1"><metadata id="metadata3054"/><g id="layer1" transform="translate(-421.71429,-531.79074)"><g id="layer1-1" transform="matrix(1,0,0,-1,0,1079.5815)"><path id="rect4006" d="m 9,2 0,10 5,0 0,-10 -5,0 z m 1,1 3,0 0,8 -3,0 0,-8 z M 2,7 2,12 7,12 7,7 2,7 z m 1,1 3,0 0,3 -3,0 0,-3 z m -1,5 0,1 12,0 0,-1 -12,0 z" transform="translate(421.71429,531.79074)" style="color:#000;fill:#f2f2f2;fill-opacity:1;fill-rule:nonzero;stroke:none;stroke-width:2;marker:none;visibility:visible;display:inline;overflow:visible;enable-background:accumulate"/></g></g></svg>