<svg xmlns="http://www.w3.org/2000/svg" xmlns:svg="http://www.w3.org/2000/svg" id="svg3049" width="16" height="16" version="1.1"><metadata id="metadata3054"/><g id="layer1" transform="translate(-421.71429,-531.79074)"><path style="opacity:1;fill:#f2f2f2;fill-opacity:1;stroke:none;stroke-width:1;stroke-linecap:round;stroke-miterlimit:4;stroke-dasharray:none;stroke-opacity:1" id="rect4455" d="M 5 2 L 5 4 L 6 4 L 6 3 L 10 3 L 10 4 L 11 4 L 11 2 L 10 2 L 6 2 L 5 2 z M 2 5 L 2 6 L 4 6 L 4 13 L 4 14 L 12 14 L 12 13 L 12 6 L 14 6 L 14 5 L 2 5 z M 5 6 L 11 6 L 11 13 L 5 13 L 5 6 z" transform="translate(421.71429,531.79074)"/></g></svg>