<svg xmlns="http://www.w3.org/2000/svg" xmlns:svg="http://www.w3.org/2000/svg" id="svg3049" width="16" height="16" version="1.1"><metadata id="metadata3054"/><g id="layer1" transform="translate(-421.71429,-531.79074)"><path style="color:#000;fill:#f2f2f2;fill-opacity:1;fill-rule:nonzero;stroke:none;stroke-width:2;marker:none;visibility:visible;display:inline;overflow:visible;enable-background:accumulate" id="rect3928" d="M 7.5 2 L 7.5 3 L 5 3 L 5 7 L 7.5 7 L 7.5 9 L 3 9 L 3 13 L 7.5 13 L 7.5 14 L 8.5 14 L 8.5 13 L 13 13 L 13 9 L 8.5 9 L 8.5 7 L 11 7 L 11 3 L 8.5 3 L 8.5 2 L 7.5 2 z M 6 4 L 10 4 L 10 6 L 6 6 L 6 4 z M 4 10 L 12 10 L 12 12 L 4 12 L 4 10 z" transform="translate(421.71429,531.79074)"/></g></svg>