<svg xmlns="http://www.w3.org/2000/svg" xmlns:svg="http://www.w3.org/2000/svg" id="svg3049" width="16" height="16" version="1.1"><metadata id="metadata3054"/><g id="layer1" transform="translate(-421.71429,-531.79074)"><path style="opacity:1;fill:#f2f2f2;fill-opacity:1;stroke:none;stroke-width:2;stroke-linecap:round;stroke-miterlimit:4;stroke-dasharray:none;stroke-opacity:1" id="rect4665" d="M 3 2 L 3 6 L 2 6 L 2 9 L 3 9 L 3 14 L 4 14 L 4 9 L 5 9 L 5 6 L 4 6 L 4 2 L 3 2 z" transform="translate(421.71429,531.79074)"/><path style="opacity:1;fill:#f2f2f2;fill-opacity:1;stroke:none;stroke-width:2;stroke-linecap:round;stroke-miterlimit:4;stroke-dasharray:none;stroke-opacity:1" id="rect4667" d="M 8 6 L 8 7 L 8 8 L 8 9 L 11 9 L 11 8 L 14 8 L 14 7 L 11 7 L 11 6 L 8 6 z" transform="translate(421.71429,531.79074)"/><rect style="opacity:1;fill:#f2f2f2;fill-opacity:1;stroke:none;stroke-width:2;stroke-linecap:round;stroke-miterlimit:4;stroke-dasharray:none;stroke-opacity:1" id="rect4673" width="1" height="1" x="427.714" y="538.791"/></g></svg>