<svg xmlns="http://www.w3.org/2000/svg" xmlns:svg="http://www.w3.org/2000/svg" id="svg3049" width="16" height="16" version="1.1"><metadata id="metadata3054"/><g id="layer1" transform="translate(-421.71429,-531.79074)"><path style="opacity:1;fill:#f2f2f2;fill-opacity:1;stroke:none;stroke-width:2;stroke-linecap:round;stroke-miterlimit:4;stroke-dasharray:none;stroke-opacity:1" id="rect4830" d="M 13.646484 1.6464844 L 9.2929688 6 L 6 6 L 6 9.2929688 L 1.6464844 13.646484 L 2.3535156 14.353516 L 6.7070312 10 L 10 10 L 10 6.7070312 L 14.353516 2.3535156 L 13.646484 1.6464844 z M 2 2 L 2 3 L 3 3 L 3 2 L 2 2 z M 4 4 L 4 5 L 5 5 L 5 4 L 4 4 z M 11 11 L 11 12 L 12 12 L 12 11 L 11 11 z M 13 13 L 13 14 L 14 14 L 14 13 L 13 13 z" transform="translate(421.71429,531.79074)"/></g></svg>