<svg xmlns="http://www.w3.org/2000/svg" xmlns:svg="http://www.w3.org/2000/svg" id="svg3049" width="16" height="16" version="1.1"><metadata id="metadata3054"/><g id="layer1" transform="translate(-421.71429,-531.79074)"><path style="color:#000;display:inline;overflow:visible;visibility:visible;fill:#f2f2f2;fill-opacity:1;fill-rule:nonzero;stroke:none;stroke-width:2;marker:none;enable-background:accumulate" id="rect3928" d="m 435.71429,539.29074 -1,0 0,-2.5 -4,0 0,2.5 -2,0 0,-4.5 -4,0 0,4.5 -1,0 0,1 1,0 0,4.5 4,0 0,-4.5 2,0 0,2.5 4,0 0,-2.5 1,0 0,-1 z m -2,-1.5 0,4 -2,0 0,-4 2,0 z m -6,-2 0,8 -2,0 0,-8 2,0 z"/></g></svg>