<svg xmlns="http://www.w3.org/2000/svg" xmlns:svg="http://www.w3.org/2000/svg" id="svg3815" width="22" height="22" version="1.1" viewBox="0 0 22 22"><metadata id="metadata3820"/><g id="layer1" transform="translate(-461.71429,-525.79075)"><g id="layer1-8"><path id="rect4108-3" d="M 3,3 3,4 3,7 4,7 4,4 7,4 7,3 4,3 3,3 Z m 12,0 0,1 3,0 0,3 1,0 0,-4 -4,0 z m -10,2 0,5 5,0 0,-5 -5,0 z m 7,0 0,5 5,0 0,-5 -5,0 z M 6,6 9,6 9,9 6,9 6,6 Z m 7,0 3,0 0,3 -3,0 0,-3 z m -8,6 0,5 5,0 0,-5 -5,0 z m 7,0 0,5 5,0 0,-5 -5,0 z m -6,1 3,0 0,3 -3,0 0,-3 z m 7,0 3,0 0,3 -3,0 0,-3 z m -10,2 0,4 1,0 3,0 0,-1 -3,0 0,-3 -1,0 z m 15,0 0,3 -3,0 0,1 4,0 0,-1 0,-3 -1,0 z" transform="translate(461.71429,525.79075)" style="opacity:1;fill:#4d4d4d;fill-opacity:1;stroke:none"/></g></g></svg>