<svg xmlns="http://www.w3.org/2000/svg" xmlns:svg="http://www.w3.org/2000/svg" id="svg3049" width="22" height="22" version="1.1"><metadata id="metadata3054"/><g id="layer1" transform="translate(-421.71429,-525.79074)"><circle style="opacity:1;fill:#fff;fill-opacity:1;stroke:none" id="path4145" cx="432.714" cy="536.791" r="6"/><circle id="circle16" cx="421.714" cy="-504.571" r="0"/><path style="opacity:1;fill:#da4453;fill-opacity:1" id="path4144" d="m 432.71429,528.79074 a 7.9999995,8.0000081 0 0 0 -8,8 7.9999995,8.0000081 0 0 0 8,8 7.9999995,8.0000081 0 0 0 8,-8 7.9999995,8.0000081 0 0 0 -8,-8 z m -3.29297,4 3.29297,3.29297 3.29297,-3.29297 0.70703,0.70703 -3.29297,3.29297 3.29297,3.29297 -0.70703,0.70703 -3.29297,-3.29297 -3.29297,3.29297 -0.70703,-0.70703 3.29297,-3.29297 -3.29297,-3.29297 0.70703,-0.70703 z"/></g></svg>