<svg xmlns="http://www.w3.org/2000/svg" xmlns:svg="http://www.w3.org/2000/svg" id="svg2" width="22" height="22" version="1.1" viewBox="0 0 22 22"><metadata id="metadata7"/><g id="layer1" transform="translate(0,-1030.3622)"><path style="font-style:normal;font-variant:normal;font-weight:400;font-stretch:normal;font-size:medium;line-height:125%;font-family:Oxygen;-inkscape-font-specification:Oxygen;letter-spacing:0;word-spacing:0;fill:#4d4d4d;fill-opacity:1;stroke:none;stroke-width:1px;stroke-linecap:butt;stroke-linejoin:miter;stroke-opacity:1" id="path4149" d="m 14.000156,1033.3622 0,2 0,1 0,2 0,1 1,0 2,0 c 1.108,0 2,-0.892 2,-2 0,-0.8109 -0.481273,-1.5019 -1.171875,-1.8164 0.105938,-0.2059 0.171875,-0.4353 0.171875,-0.6836 0,-0.831 -0.669001,-1.5 -1.5,-1.5 l -1.5,0 z m 1,1 1.5,0 c 0.277,0 0.5,0.223 0.5,0.5 0,0.277 -0.223,0.5 -0.5,0.5 l -1.5,0 z m -6.7835152,1 -5.216797,14 1.6874999,0 1.6679688,-4.4297 5.5625005,0 1.533203,4.4297 1.689452,0 -4.929686,-14 z m 6.7835152,1 1.5,0 0.5,0 c 0.553999,0 1,0.446 1,1 0,0.554 -0.446001,1 -1,1 l -2,0 z m -5.7678898,0.6113 2.1289058,6.6739 -4.4882814,0 z"/></g></svg>