<svg xmlns="http://www.w3.org/2000/svg" xmlns:svg="http://www.w3.org/2000/svg" id="svg3049" width="22" height="22" version="1.1"><metadata id="metadata3054"/><g id="layer1" transform="translate(-421.71429,-525.79074)"><path style="opacity:1;fill:#4d4d4d;fill-opacity:1;stroke:none;stroke-width:2.79999995;stroke-miterlimit:4;stroke-dasharray:none;stroke-opacity:.55026455" id="rect3344" d="M 4 3 L 4 10 L 3 10 L 3 13 L 4 13 L 4 19 L 5 19 L 5 13 L 6 13 L 6 10 L 5 10 L 5 3 L 4 3 z M 11 10 L 11 13 L 14 13 L 14 12 L 19 12 L 19 11 L 14 11 L 14 10 L 11 10 z M 7 11 L 7 12 L 8 12 L 8 11 L 7 11 z M 9 11 L 9 12 L 10 12 L 10 11 L 9 11 z" transform="translate(421.71429,525.79074)"/></g></svg>