<svg xmlns="http://www.w3.org/2000/svg" xmlns:svg="http://www.w3.org/2000/svg" id="svg3869" width="22" height="22" version="1.1"><metadata id="metadata3874"/><g id="layer1" transform="translate(-326,-534.3622)"><rect style="fill:#f27935;fill-opacity:1;stroke:none" id="rect4035" width="0" height="11" x="326.496" y="535.987"/><rect style="fill:#f27935;fill-opacity:1;stroke:none" id="rect4035-7" width="0" height="11" x="321.944" y="538.506"/><rect style="fill:#f27935;fill-opacity:1;stroke:none" id="rect4035-9" width="0" height="11" x="317.436" y="526.087"/><rect style="fill:#f27935;fill-opacity:1;stroke:none" id="rect4035-96" width="0" height="11" x="318.28" y="538.325"/><rect style="fill:#f27935;fill-opacity:1;stroke:none" id="rect4035-7-0" width="0" height="11" x="313.728" y="540.844"/><rect style="fill:#f27935;fill-opacity:1;stroke:none" id="rect4035-9-6" width="0" height="11" x="309.22" y="528.425"/><g id="layer1-9" transform="matrix(1.3333337,0,0,1.3333332,-235.95256,-174.35867)" style="fill:#e00a5e;fill-opacity:1"><rect id="rect4035-6" width="0" height="11" x="404.714" y="534.791" style="fill:#e00a5e;fill-opacity:1;stroke:none"/><rect id="rect4035-5" width="0" height="11" x="422.755" y="532.739" style="fill:#e00a5e;fill-opacity:1;stroke:none"/><rect id="rect4035-8" width="0" height="11" x="404.714" y="534.791" style="fill:#e00a5e;fill-opacity:1;stroke:none"/><rect id="rect4035-59" width="0" height="11" x="404.714" y="534.791" style="fill:#e00a5e;fill-opacity:1;stroke:none"/><path style="fill:#e00a5e;fill-opacity:1" id="path88" d="m 435.34925,533.79631 a 1.500133,6.7506007 44.989453 0 0 -5.58354,3.8242 1.500133,6.7506007 44.989453 0 0 -2.65703,3.0857 c 0.80698,0.2571 1.43596,0.8862 1.69296,1.6935 a 1.500133,6.7506007 44.989453 0 0 3.08472,-2.6579 1.500133,6.7506007 44.989453 0 0 3.71163,-5.8345 1.500133,6.7506007 44.989453 0 0 -0.24902,-0.1114 m -8.63475,7.9939 c -2.99992,0.8042 -0.74998,2.7036 -2.99992,4.0009 2.99992,0 4.49987,-1.5014 4.49987,-2.5026 0,-0.4991 0.051,-1.4173 -1.49995,-1.5003"/></g><rect style="fill:#e00a5e;fill-opacity:1;stroke:none" id="rect4035-4" width="0" height="11" x="319.827" y="550.478"/></g></svg>