<svg xmlns="http://www.w3.org/2000/svg" xmlns:svg="http://www.w3.org/2000/svg" id="svg3760" width="24" height="24" version="1.1"><metadata id="metadata3765"/><g id="layer1" transform="translate(-550.28572,-606.6479)"><path style="opacity:1;fill:#4d4d4d;fill-opacity:1;stroke:none" id="rect4112" d="m 554.28572,614.6479 0,2 4,0 0,10 2,0 0,-10 4,0 0,-2 z"/><g id="layer1-7" transform="translate(551.28572,-422.7143)"><path id="rect4108" d="M 16.5,3 C 16.013545,4.7025 14.8218,6.1660906 14.296875,7.3378906 14.113175,7.6862906 14,8.0773 14,8.5 14,9.885 15.115,11 16.5,11 17.885,11 19,9.885 19,8.5 19,8.0773 18.886825,7.6862906 18.703125,7.3378906 18.1782,6.1660906 16.98645,4.7025 16.5,3 Z" transform="translate(0,1030.3622)" style="opacity:1;fill:#4d4d4d;fill-opacity:1;stroke:none"/></g></g></svg>