<svg xmlns="http://www.w3.org/2000/svg" xmlns:svg="http://www.w3.org/2000/svg" id="svg3760" width="22" height="22" version="1.1"><metadata id="metadata3765"/><g id="layer1" transform="translate(-551.28571,-607.64789)"><path style="opacity:1;fill:#4d4d4d;fill-opacity:1;stroke:none" id="path4174" d="M 4,4 4,5 14,5 14,4 4,4 Z m 11,0 0,5 5,0 0,-5 -5,0 z m -4,2 0,1 3,0 0,-1 -3,0 z m -1,4 0,1 10,0 0,-1 -10,0 z m 6,2 0,1 4,0 0,-1 -4,0 z m -6,4 0,1 10,0 0,-1 -10,0 z m 3,2 0,1 7,0 0,-1 -7,0 z m -3,1 0,1 2,0 0,-1 -2,0 z" transform="translate(550.28572,606.6479)"/></g></svg>