<svg xmlns="http://www.w3.org/2000/svg" xmlns:svg="http://www.w3.org/2000/svg" id="svg2" width="22" height="22" version="1.1" viewBox="0 0 22 22"><metadata id="metadata7"/><g id="layer1" transform="translate(0,-1030.3622)"><g id="layer1-2" transform="matrix(-1,0,0,1,22,0)"><path id="path4174" d="m 3,1033.3622 0,1 16,0 0,-1 -16,0 z m 0,2 0,1 13,0 0,-1 -13,0 z m 0,3 0,2.25 0,0.75 0,0.75 0,2.25 4,-3 -4,-3 z m 6,1 0,1 10,0 0,-1 -10,0 z m 0,2 0,1 2,0 0,-1 -2,0 z m -6,4 0,1 16,0 0,-1 -16,0 z m 0,2 0,1 13,0 0,-1 -13,0 z m 14,1 0,1 2,0 0,-1 -2,0 z" style="opacity:1;fill:#4d4d4d;fill-opacity:1;stroke:none"/></g></g></svg>