<svg xmlns="http://www.w3.org/2000/svg" xmlns:svg="http://www.w3.org/2000/svg" id="svg3760" width="22" height="22" version="1.1"><metadata id="metadata3765"/><g id="layer1" transform="translate(-553.72253,-583.11926)"><path style="opacity:1;fill:#f2f2f2;fill-opacity:1;stroke:none;stroke-width:.1;stroke-miterlimit:4;stroke-dasharray:none;stroke-opacity:1" id="rect4150" d="M 8 3 L 8 4 L 8 5 L 9 5 L 9 4 L 13 4 L 13 5 L 14 5 L 14 4 L 14 3 L 8 3 z M 4 6 L 4 7 L 18 7 L 18 6 L 4 6 z M 6 8 L 6 19 L 7 19 L 16 19 L 16 18 L 16 8 L 15 8 L 15 18 L 7 18 L 7 8 L 6 8 z" transform="translate(553.72253,583.11926)"/></g></svg>