<svg xmlns="http://www.w3.org/2000/svg" xmlns:svg="http://www.w3.org/2000/svg" id="svg3049" width="22" height="22" version="1.1"><metadata id="metadata3054"/><g id="layer1" transform="translate(-421.71429,-525.79074)"><path style="opacity:1;fill:#f2f2f2;fill-opacity:1;stroke:none;stroke-width:2.79999995;stroke-miterlimit:4;stroke-dasharray:none;stroke-opacity:.55026455" id="rect3344" d="M 3 3 L 3 4 L 4 4 L 4 3 L 3 3 z M 18.292969 3 L 12.292969 9 L 9 9 L 9 12.292969 L 3 18.292969 L 3.7070312 19 L 9.7070312 13 L 13 13 L 13 9.7070312 L 19 3.7070312 L 18.292969 3 z M 5 5 L 5 6 L 6 6 L 6 5 L 5 5 z M 7 7 L 7 8 L 8 8 L 8 7 L 7 7 z M 14 14 L 14 15 L 15 15 L 15 14 L 14 14 z M 16 16 L 16 17 L 17 17 L 17 16 L 16 16 z M 18 18 L 18 19 L 19 19 L 19 18 L 18 18 z" transform="translate(421.71429,525.79074)"/></g></svg>