<svg xmlns="http://www.w3.org/2000/svg" xmlns:svg="http://www.w3.org/2000/svg" id="svg3760" width="22" height="22" version="1.1"><metadata id="metadata3765"/><g id="layer1" transform="translate(-553.72253,-583.11926)"><path style="opacity:1;fill:#f2f2f2;fill-opacity:1;stroke:none" id="rect4112" d="M 3 3 L 3 4 L 3 6 L 4 6 L 4 4 L 8 4 L 8 13 L 7 13 L 7 14 L 10 14 L 10 13 L 9 13 L 9 4 L 13 4 L 13 6 L 14 6 L 14 3 L 4 3 L 3 3 z M 16 14 L 16 16 L 14 16 L 14 17 L 16 17 L 16 19 L 17 19 L 17 17 L 19 17 L 19 16 L 17 16 L 17 14 L 16 14 z" transform="translate(553.72253,583.11926)"/></g></svg>