<svg xmlns="http://www.w3.org/2000/svg" xmlns:svg="http://www.w3.org/2000/svg" id="svg3049" width="22" height="22" version="1.1"><metadata id="metadata3054"/><g id="layer1" transform="translate(-421.71429,-525.79074)"><path style="opacity:1;fill:#f2f2f2;fill-opacity:1;stroke:none;stroke-width:2.79999995;stroke-miterlimit:4;stroke-dasharray:none;stroke-opacity:.55026455" id="rect3344" d="M 6.5 3 C 4.5609917 3 3 4.5609917 3 6.5 C 3 8.4390083 4.5609917 10 6.5 10 C 8.4390083 10 10 8.4390083 10 6.5 C 10 4.5609917 8.4390083 3 6.5 3 z M 12 3 L 12 10 L 19 10 L 19 3 L 12 3 z M 4 12 L 4 19 L 9 19 L 9 12 L 4 12 z M 15 12 L 11 18 L 19 18 L 15 12 z" transform="translate(421.71429,525.79074)"/></g></svg>