<svg xmlns="http://www.w3.org/2000/svg" xmlns:svg="http://www.w3.org/2000/svg" id="svg3869" width="24" height="24" version="1.1"><defs id="defs3871"><linearGradient id="linearGradient3257"><stop style="stop-color:#a50000;stop-opacity:1" id="stop3259" offset="0"/><stop style="stop-color:#e73800;stop-opacity:1" id="stop3261" offset="1"/></linearGradient></defs><metadata id="metadata3874"/><g id="layer1" transform="translate(-326,-532.3622)"><g id="layer1-2" transform="translate(-134.71429,7.57145)"><g id="layer1-8"><path style="opacity:1;fill:#4d4d4d;fill-opacity:1;stroke:none" id="rect4108-3" d="M 3,3 3,4 3,7 4,7 4,4 7,4 7,3 4,3 3,3 Z m 12,0 0,1 3,0 0,3 1,0 0,-4 -4,0 z m -10,2 0,5 5,0 0,-5 -5,0 z m 7,0 0,5 5,0 0,-5 -5,0 z M 6,6 9,6 9,9 6,9 6,6 Z m 7,0 3,0 0,3 -3,0 0,-3 z m -8,6 0,5 5,0 0,-5 -5,0 z m 7,0 0,5 5,0 0,-5 -5,0 z m -6,1 3,0 0,3 -3,0 0,-3 z m 7,0 3,0 0,3 -3,0 0,-3 z m -10,2 0,4 1,0 3,0 0,-1 -3,0 0,-3 -1,0 z m 15,0 0,3 -3,0 0,1 4,0 0,-1 0,-3 -1,0 z" transform="translate(461.71429,525.79075)"/></g></g></g></svg>