<svg xmlns="http://www.w3.org/2000/svg" xmlns:svg="http://www.w3.org/2000/svg" id="svg3869" width="24" height="24" version="1.1"><defs id="defs3871"><linearGradient id="linearGradient4290-48"><stop id="stop4292-0" offset="0" style="stop-color:#a5a5a5;stop-opacity:1"/><stop id="stop4294-0" offset="1" style="stop-color:#f5f2f5;stop-opacity:1"/></linearGradient><clipPath id="clipPath16" clipPathUnits="userSpaceOnUse"><path id="path18" d="m 0,706.465 1490.926,0 L 1490.926,0 0,0 0,706.465 Z"/></clipPath><clipPath id="clipPath24" clipPathUnits="userSpaceOnUse"><path id="path26" d="m 22.1953,686.117 1447.7347,0 0,-667.1902 -1447.7347,0 L 22.1953,686.117 Z"/></clipPath></defs><metadata id="metadata3874"/><g id="layer1" transform="translate(-326,-532.3622)"><g id="layer1-9" transform="translate(-226.72253,-49.75706)"><path id="rect4179" d="m 3,3 0,1 0,14 0,1 10,0 0,-1 -9,0 0,-14 4,0 0,3 8,0 2,0 0,6 1,0 L 19,6 18,6 16,6 16,3 8,3 4,3 3,3 Z m 13,11 0,2 -2,0 0,1 2,0 0,2 1,0 0,-2 2,0 0,-1 -2,0 0,-2 -1,0 z" transform="translate(553.72253,583.11926)" style="opacity:1;fill:#4d4d4d;fill-opacity:1;stroke:none"/></g></g></svg>