<svg xmlns="http://www.w3.org/2000/svg" xmlns:svg="http://www.w3.org/2000/svg" id="svg2" width="24" height="24" version="1.1" viewBox="0 0 24 24"><metadata id="metadata7"/><g id="layer1" transform="translate(1,-1029.3622)"><path style="opacity:1;fill:#4d4d4d;fill-opacity:1;stroke:none" id="rect4120" d="m 10.5,1033.3622 0,1 -2.5,0 0,1 0,3 0,1 2.5,0 0,4 -5.5,0 0,1 0,4 1,0 4.5,0 0,1 1,0 0,-1 5.5,0 0,-1 0,-3 0,-1 -5.5,0 0,-4 1.5,0 1,0 0,-1 0,-3 0,-1 -1,0 -1.5,0 0,-1 -1,0 z m -1.5,2 4,0 0,3 -4,0 0,-3 z m -3,9 10,0 0,3 -10,0 0,-3 z"/></g></svg>