<svg xmlns="http://www.w3.org/2000/svg" xmlns:svg="http://www.w3.org/2000/svg" id="svg3869" width="24" height="24" version="1.1"><defs id="defs3871"><linearGradient id="linearGradient3257"><stop style="stop-color:#a50000;stop-opacity:1" id="stop3259" offset="0"/><stop style="stop-color:#e73800;stop-opacity:1" id="stop3261" offset="1"/></linearGradient></defs><metadata id="metadata3874"/><g id="layer1" transform="translate(-326,-532.3622)"><g id="layer1-0" transform="translate(327,-497)"><g id="layer1-2" transform="matrix(-1,0,0,1,22,0)"><path style="opacity:1;fill:#4d4d4d;fill-opacity:1;stroke:none" id="path4174" d="m 3,1033.3622 0,1 16,0 0,-1 -16,0 z m 0,2 0,1 13,0 0,-1 -13,0 z m 0,3 0,2.25 0,0.75 0,0.75 0,2.25 4,-3 -4,-3 z m 6,1 0,1 10,0 0,-1 -10,0 z m 0,2 0,1 2,0 0,-1 -2,0 z m -6,4 0,1 16,0 0,-1 -16,0 z m 0,2 0,1 13,0 0,-1 -13,0 z m 14,1 0,1 2,0 0,-1 -2,0 z"/></g></g></g></svg>