<svg xmlns="http://www.w3.org/2000/svg" xmlns:svg="http://www.w3.org/2000/svg" id="svg3869" width="24" height="24" version="1.1"><defs id="defs3871"><linearGradient id="linearGradient4290-48"><stop id="stop4292-0" offset="0" style="stop-color:#a5a5a5;stop-opacity:1"/><stop id="stop4294-0" offset="1" style="stop-color:#f5f2f5;stop-opacity:1"/></linearGradient></defs><metadata id="metadata3874"/><g id="layer1" transform="translate(-326,-532.3622)"><g id="layer1-9" transform="translate(-226.72253,-49.75706)"><path id="rect4148" d="M 11,3 9,7 13,7 11,3 Z M 7,9 3,11 7,13 7,9 Z m 8,0 0,4 4,-2 -4,-2 z m -4,1 c -0.554,0 -1,0.446 -1,1 0,0.554 0.446,1 1,1 0.554,0 1,-0.446 1,-1 0,-0.554 -0.446,-1 -1,-1 z m -2,5 2,4 2,-4 -4,0 z" transform="translate(553.72253,583.11926)" style="opacity:1;fill:#4d4d4d;fill-opacity:1;stroke:none;stroke-width:.1;stroke-miterlimit:4;stroke-dasharray:none;stroke-opacity:1"/></g></g></svg>