<svg xmlns="http://www.w3.org/2000/svg" xmlns:svg="http://www.w3.org/2000/svg" id="svg3869" width="24" height="24" version="1.1"><defs id="defs3871"><linearGradient id="linearGradient3257"><stop style="stop-color:#a50000;stop-opacity:1" id="stop3259" offset="0"/><stop style="stop-color:#e73800;stop-opacity:1" id="stop3261" offset="1"/></linearGradient><clipPath id="clipPath4210" clipPathUnits="userSpaceOnUse"><rect id="rect4212" width="34" height="34" x="-7" y="1024.362" style="opacity:1;fill:#00f;fill-opacity:.51376145;stroke:none;stroke-opacity:1"/></clipPath></defs><metadata id="metadata3874"/><g id="layer1" transform="translate(-326,-532.3622)"><g id="layer1-3" transform="translate(327,-496.99978)"><path id="rect4156" d="M 11.367188,3 C 8.1558639,2.9704971 4.2894531,5.1569687 6.4394531,10.082031 l 7.5605469,0 C 1.999998,7.0820312 12.000924,0.08203125 14.041016,8.0820312 l 0.958984,0 0,-2.7480468 C 14.984965,3.8339844 13.293982,3.0177018 11.367188,3 Z M 3,11 l 0,1 16,0 0,-1 -16,0 z m 9,1.998047 c 5.286623,5.2433 -2.6333127,6.9247 -5,1 l -1,0 0,3 c 0.1910979,2.5158 12,4 10,-4 l -4,0 z" transform="translate(0,1030.3622)" style="opacity:1;fill:#4d4d4d;fill-opacity:1;stroke:none"/></g></g></svg>