<svg xmlns="http://www.w3.org/2000/svg" xmlns:svg="http://www.w3.org/2000/svg" id="svg3869" width="24" height="24" version="1.1"><defs id="defs3871"><linearGradient id="linearGradient3257"><stop style="stop-color:#a50000;stop-opacity:1" id="stop3259" offset="0"/><stop style="stop-color:#e73800;stop-opacity:1" id="stop3261" offset="1"/></linearGradient><clipPath id="clipPath4210" clipPathUnits="userSpaceOnUse"><rect id="rect4212" width="34" height="34" x="-7" y="1024.362" style="opacity:1;fill:#00f;fill-opacity:.51376145;stroke:none;stroke-opacity:1"/></clipPath></defs><metadata id="metadata3874"/><g id="layer1" transform="translate(-326,-532.3622)"><g id="layer1-24" transform="translate(327,-497)"><g id="layer1-2" transform="translate(-551.28571,422.71431)"><path style="font-style:normal;font-variant:normal;font-weight:400;font-stretch:normal;font-size:medium;line-height:125%;font-family:Oxygen;-inkscape-font-specification:Oxygen;letter-spacing:0;word-spacing:0;fill:#4d4d4d;fill-opacity:1;stroke:none;stroke-width:1px;stroke-linecap:butt;stroke-linejoin:miter;stroke-opacity:1" id="path4152" d="M 9.2167969,4 4,18 l 1.6875,0 1.6679688,-4.429688 5.5625002,0 L 13.066406,14 14.732422,14 11.210938,4 9.2167969,4 Z m 1.0156251,1.6113281 2.128906,6.6738279 -4.4882811,0 2.3593751,-6.6738279 z M 15,14 l 0,2 0,1 0,2 0,1 1,0 2,0 c 1.108,0 2,-0.892 2,-2 0,-0.81094 -0.481265,-1.501896 -1.171875,-1.816406 C 18.934075,15.977744 19,15.74831 19,15.5 19,14.669 18.331,14 17.5,14 l -1.5,0 -1,0 z m 1,1 1.5,0 c 0.277,0 0.5,0.223 0.5,0.5 0,0.277 -0.223,0.5 -0.5,0.5 l -1.5,0 0,-1 z m 0,2 1.5,0 0.5,0 c 0.554,0 1,0.446 1,1 0,0.554 -0.446,1 -1,1 l -2,0 0,-2 z" transform="translate(550.28571,606.64789)"/></g></g></g></svg>