<svg xmlns="http://www.w3.org/2000/svg" xmlns:svg="http://www.w3.org/2000/svg" id="svg3869" width="24" height="24" version="1.1"><defs id="defs3871"><linearGradient id="linearGradient3257"><stop style="stop-color:#a50000;stop-opacity:1" id="stop3259" offset="0"/><stop style="stop-color:#e73800;stop-opacity:1" id="stop3261" offset="1"/></linearGradient></defs><metadata id="metadata3874"/><g id="layer1" transform="translate(-326,-532.3622)"><g id="layer1-1" transform="translate(-224.28572,-74.2857)"><path id="path4174" d="M 4,4 4,5 14,5 14,4 4,4 Z m 11,0 0,5 5,0 0,-5 -5,0 z m -4,2 0,1 3,0 0,-1 -3,0 z m -1,4 0,1 10,0 0,-1 -10,0 z m 6,2 0,1 4,0 0,-1 -4,0 z m -6,4 0,1 10,0 0,-1 -10,0 z m 3,2 0,1 7,0 0,-1 -7,0 z m -3,1 0,1 2,0 0,-1 -2,0 z" transform="translate(550.28572,606.6479)" style="opacity:1;fill:#4d4d4d;fill-opacity:1;stroke:none"/></g></g></svg>