<svg xmlns="http://www.w3.org/2000/svg" xmlns:svg="http://www.w3.org/2000/svg" id="svg3869" width="24" height="24" version="1.1"><defs id="defs3871"><linearGradient id="linearGradient3257"><stop style="stop-color:#a50000;stop-opacity:1" id="stop3259" offset="0"/><stop style="stop-color:#e73800;stop-opacity:1" id="stop3261" offset="1"/></linearGradient></defs><metadata id="metadata3874"/><g id="layer1" transform="translate(-326,-532.3622)"><g id="layer1-7" transform="translate(327,-497)"><path id="path4174" d="m 3,1033.3622 0,1 16,0 0,-1 z m 2,2 0,1 12.1,0 0,-1 z m -2,4 0,1 16,0 0,-1 z m 4,2 0,1 8,0 0,-1 z m -4,3 0,1 16,0 0,-1 z m 2,2 0,1 12,0 0,-1 z m 5,2 0,1 2,0 0,-1 z" style="opacity:1;fill:#f2f2f2;fill-opacity:1;stroke:none"/></g></g></svg>