<svg xmlns="http://www.w3.org/2000/svg" xmlns:svg="http://www.w3.org/2000/svg" id="svg3869" width="24" height="24" version="1.1"><defs id="defs3871"><linearGradient id="linearGradient3257"><stop style="stop-color:#a50000;stop-opacity:1" id="stop3259" offset="0"/><stop style="stop-color:#e73800;stop-opacity:1" id="stop3261" offset="1"/></linearGradient><clipPath id="clipPath4210" clipPathUnits="userSpaceOnUse"><rect id="rect4212" width="34" height="34" x="-7" y="1024.362" style="opacity:1;fill:#00f;fill-opacity:.51376145;stroke:none;stroke-opacity:1"/></clipPath></defs><metadata id="metadata3874"/><g id="layer1" transform="translate(-326,-532.3622)"><g id="layer1-8" transform="translate(327,-497)"><path id="path4149" d="m 14.000156,1033.3622 0,2 0,1 0,2 0,1 1,0 2,0 c 1.108,0 2,-0.892 2,-2 0,-0.8109 -0.481273,-1.5019 -1.171875,-1.8164 0.105938,-0.2059 0.171875,-0.4353 0.171875,-0.6836 0,-0.831 -0.669001,-1.5 -1.5,-1.5 l -1.5,0 z m 1,1 1.5,0 c 0.277,0 0.5,0.223 0.5,0.5 0,0.277 -0.223,0.5 -0.5,0.5 l -1.5,0 z m -6.7835152,1 -5.216797,14 1.6874999,0 1.6679688,-4.4297 5.5625005,0 1.533203,4.4297 1.689452,0 -4.929686,-14 z m 6.7835152,1 1.5,0 0.5,0 c 0.553999,0 1,0.446 1,1 0,0.554 -0.446001,1 -1,1 l -2,0 z m -5.7678898,0.6113 2.1289058,6.6739 -4.4882814,0 z" style="font-style:normal;font-variant:normal;font-weight:400;font-stretch:normal;font-size:medium;line-height:125%;font-family:Oxygen;-inkscape-font-specification:Oxygen;letter-spacing:0;word-spacing:0;fill:#f2f2f2;fill-opacity:1;stroke:none;stroke-width:1px;stroke-linecap:butt;stroke-linejoin:miter;stroke-opacity:1"/></g></g></svg>