<svg xmlns="http://www.w3.org/2000/svg" xmlns:svg="http://www.w3.org/2000/svg" id="svg3869" width="24" height="24" version="1.1"><metadata id="metadata3874"/><g id="layer1" transform="translate(-326,-532.3622)"><g id="layer1-9" transform="translate(-51.85714,-6.71427)"><path id="rect4155" d="M 4.5,3 A 1.4999964,1.4999965 0 0 0 3,4.5 1.4999964,1.4999965 0 0 0 4,5.9121094 L 4,6 l 0,7 0,6 1,0 0,-6 7,0 0,1 7,0 L 19,7 13,7 13,6 5,6 5,5.912109 A 1.4999964,1.4999965 0 0 0 6,4.5 1.4999964,1.4999965 0 0 0 4.5,3 Z m 0.5,4 7,0 0,5 -7,0 0,-5 z m 8,1 5,0 0,5 -5,0 0,-5 z" transform="translate(378.85714,540.07647)" style="opacity:1;fill:#f2f2f2;fill-opacity:1;stroke:none;stroke-width:.1;stroke-linecap:square;stroke-linejoin:miter;stroke-miterlimit:4;stroke-dasharray:none;stroke-dashoffset:0;stroke-opacity:1"/></g></g></svg>