<svg xmlns="http://www.w3.org/2000/svg" xmlns:svg="http://www.w3.org/2000/svg" xmlns:xlink="http://www.w3.org/1999/xlink" id="svg5453" width="32" height="32" version="1.1"><defs id="defs5455"><linearGradient id="linearGradient4306" x1="32" x2="32" y1="61" y2="3" gradientTransform="matrix(0.49999977,0,0,0.48275841,384.57144,516.34974)" gradientUnits="userSpaceOnUse" xlink:href="#linearGradient4300"/><linearGradient id="linearGradient4300"><stop style="stop-color:#22a7f0;stop-opacity:1" id="stop4302" offset="0"/><stop style="stop-color:#19b5fe;stop-opacity:1" id="stop4304" offset="1"/></linearGradient><linearGradient id="linearGradient4357" x1="47" x2="47" y1="61" y2="47" gradientTransform="matrix(0.48275841,0,0,0.48275841,385.26109,516.10836)" gradientUnits="userSpaceOnUse" xlink:href="#linearGradient4351"/><linearGradient id="linearGradient4351"><stop style="stop-color:#c8e3fe;stop-opacity:1" id="stop4353" offset="0"/><stop style="stop-color:#fff;stop-opacity:1" id="stop4355" offset="1"/></linearGradient><linearGradient id="linearGradient4427" x1="54" x2="39.5" y1="31" y2="16.5" gradientTransform="matrix(0.48275841,0,0,-0.48275841,378.50247,553.76351)" gradientUnits="userSpaceOnUse" xlink:href="#linearGradient4410"/><linearGradient id="linearGradient4410"><stop style="stop-color:#383e51;stop-opacity:1" id="stop4412" offset="0"/><stop style="stop-color:#655c6f;stop-opacity:0" id="stop4414" offset="1"/></linearGradient></defs><metadata id="metadata5458"/><g id="layer1" transform="translate(-384.57143,-515.798)"><path style="fill:url(#linearGradient4306);fill-opacity:1;stroke:none" id="rect3500" d="m 389.57144,517.79801 0,27.99999 14.99999,0 7.00003,-7 -3e-5,-14.24137 0,-6.75862 -7,0 z"/><rect style="opacity:1;fill:#2e3132;fill-opacity:.29411765;stroke:none" id="rect4169" width="15" height="1" x="389.571" y="544.798"/><rect style="opacity:1;fill:#fff;fill-opacity:.40983605;stroke:none" id="rect4236" width="22" height="1" x="389.571" y="517.798"/><path style="fill:url(#linearGradient4357);fill-opacity:1;fill-rule:evenodd;stroke:none;stroke-width:1px;stroke-linecap:butt;stroke-linejoin:miter;stroke-opacity:1" id="path4314" d="m 411.57144,538.798 -7.00001,7 0,-7 z"/><path id="path4320" d="m 397.57143,545.79797 7,-6.99997 0,7 z" style="opacity:.2;fill:url(#linearGradient4427);fill-opacity:1;fill-rule:evenodd;stroke:none;stroke-width:1px;stroke-linecap:butt;stroke-linejoin:miter;stroke-opacity:1"/><rect style="fill:#fff;fill-opacity:1;stroke:none" id="rect4035" width="0" height="11" x="375.892" y="526.798"/><path style="color:#000;clip-rule:nonzero;display:inline;overflow:visible;visibility:visible;opacity:1;isolation:auto;mix-blend-mode:normal;color-interpolation:sRGB;color-interpolation-filters:linearRGB;solid-color:#000;solid-opacity:1;fill:#fff;fill-opacity:1;fill-rule:nonzero;stroke:none;stroke-width:1;stroke-linecap:butt;stroke-linejoin:miter;stroke-miterlimit:4;stroke-dasharray:none;stroke-dashoffset:0;stroke-opacity:1;color-rendering:auto;image-rendering:auto;shape-rendering:auto;text-rendering:auto;enable-background:accumulate" id="rect4139" d="m 396.57141,524.798 c -1.108,0 -2,0.892 -2,2 0,1.108 0.892,2 2,2 0.503,0 0.95592,-0.18973 1.30664,-0.49414 0.43078,0.73415 0.69336,1.57738 0.69336,2.49414 0,0.91676 -0.26258,1.75999 -0.69336,2.49414 -0.35072,-0.30442 -0.80364,-0.49414 -1.30664,-0.49414 -1.108,0 -2,0.892 -2,2 0,1.108 0.892,2 2,2 0.74107,0 1.37905,-0.4042 1.72461,-1 l 5.27539,0 0,1 3,0 0,-3 -3,0 0,1 -5,0 c 0,-0.19695 -0.0373,-0.383 -0.0898,-0.5625 0.68341,-0.97209 1.08984,-2.15337 1.08984,-3.4375 0,-1.2799 -0.41662,-2.44727 -1.0957,-3.41797 0.0563,-0.18526 0.0957,-0.37788 0.0957,-0.58203 l 4,0 0,2 4,0 0,-4 -4,0 0,1 -4.27539,0 c -0.34556,-0.5958 -0.98354,-1 -1.72461,-1 z m 0,1 c 0.554,0 1,0.446 1,1 0,0.554 -0.446,1 -1,1 -0.554,0 -1,-0.446 -1,-1 0,-0.554 0.446,-1 1,-1 z m 7,0 2,0 0,2 -2,0 0,-2 z m -7,8 c 0.554,0 1,0.446 1,1 0,0.554 -0.446,1 -1,1 -0.554,0 -1,-0.446 -1,-1 0,-0.554 0.446,-1 1,-1 z m 8,1 1,0 0,1 -1,0 0,-1 z"/></g></svg>