<svg xmlns="http://www.w3.org/2000/svg" xmlns:svg="http://www.w3.org/2000/svg" xmlns:xlink="http://www.w3.org/1999/xlink" id="svg5453" width="48" height="48" version="1.1"><defs id="defs5455"><linearGradient id="linearGradient4303"><stop style="stop-color:#977a5c;stop-opacity:1" id="stop4305" offset="0"/><stop style="stop-color:#9d8062;stop-opacity:1" id="stop4307" offset="1"/></linearGradient><linearGradient id="linearGradient4273"><stop style="stop-color:#f2f2f2;stop-opacity:1" id="stop4275" offset="0"/><stop style="stop-color:#fff;stop-opacity:1" id="stop4277" offset="1"/></linearGradient><linearGradient id="linearGradient4152"><stop style="stop-color:#bd8d48;stop-opacity:1" id="stop4154" offset="0"/><stop style="stop-color:#e8b971;stop-opacity:1" id="stop4156" offset="1"/></linearGradient><linearGradient id="linearGradient4158" x1="409.571" x2="409.571" y1="543.798" y2="503.798" gradientTransform="matrix(1.1250015,0,0,0.9250002,-51.071966,40.784727)" gradientUnits="userSpaceOnUse" xlink:href="#linearGradient4152"/><linearGradient id="linearGradient4279" x1="408.571" x2="408.571" y1="541.798" y2="505.798" gradientTransform="matrix(1,0,0,0.91666686,0,45.149736)" gradientUnits="userSpaceOnUse" xlink:href="#linearGradient4273"/><linearGradient id="linearGradient4309" x1="409.571" x2="409.571" y1="542.798" y2="504.798" gradientTransform="matrix(1,0,0,0.92105349,0,42.851946)" gradientUnits="userSpaceOnUse" xlink:href="#linearGradient4303"/><linearGradient id="linearGradient4410"><stop id="stop4412" offset="0" style="stop-color:#383e51;stop-opacity:1"/><stop id="stop4414" offset="1" style="stop-color:#655c6f;stop-opacity:0"/></linearGradient><linearGradient id="linearGradient4187" x1="391.571" x2="418.571" y1="504.798" y2="531.798" gradientUnits="userSpaceOnUse" xlink:href="#linearGradient4410"/></defs><metadata id="metadata5458"/><g id="layer1" transform="translate(-384.57143,-499.798)"><rect style="opacity:1;fill:url(#linearGradient4158);fill-opacity:1;stroke:none" id="rect4139" width="36" height="37" x="390.571" y="506.798" ry="0"/><rect style="opacity:.5;fill:url(#linearGradient4309);fill-opacity:1;stroke:none" id="rect4250" width="34" height="35" x="391.571" y="507.798"/><rect style="opacity:1;fill:url(#linearGradient4279);fill-opacity:1;stroke:none" id="rect4242" width="32" height="33" x="392.571" y="508.798"/><path style="opacity:1;fill:#afc0c6;fill-opacity:1;stroke:none;stroke-width:.1;stroke-miterlimit:4;stroke-dasharray:none;stroke-opacity:1" id="rect4231" d="M 20 4 L 18 6 L 11 6 L 11 10 L 37 10 L 37 6 L 30 6 L 28 4 L 20 4 z M 24 5 C 24.554 5 25 5.446 25 6 C 25 6.554 24.554 7 24 7 C 23.446 7 23 6.554 23 6 C 23 5.446 23.446 5 24 5 z" transform="translate(384.57143,499.798)"/><rect style="opacity:1;fill:#96aab5;fill-opacity:1;stroke:none;stroke-width:.1;stroke-miterlimit:4;stroke-dasharray:none;stroke-opacity:1" id="rect4249" width="26" height="1" x="395.571" y="508.798"/><rect style="opacity:1;fill:#d1dbdf;fill-opacity:1;stroke:none;stroke-width:.1;stroke-miterlimit:4;stroke-dasharray:none;stroke-opacity:1" id="rect4254" width="18" height="1" x="395.571" y="512.798"/><rect id="rect4256" width="8" height="1" x="395.571" y="516.798" style="opacity:1;fill:#d1dbdf;fill-opacity:1;stroke:none;stroke-width:.1;stroke-miterlimit:4;stroke-dasharray:none;stroke-opacity:1"/><rect style="opacity:1;fill:#d1dbdf;fill-opacity:1;stroke:none;stroke-width:.1;stroke-miterlimit:4;stroke-dasharray:none;stroke-opacity:1" id="rect4258" width="18" height="1" x="395.571" y="520.798"/><rect id="rect4260" width="13" height="1" x="395.571" y="524.798" style="opacity:1;fill:#d1dbdf;fill-opacity:1;stroke:none;stroke-width:.1;stroke-miterlimit:4;stroke-dasharray:none;stroke-opacity:1"/><rect style="opacity:1;fill:#d1dbdf;fill-opacity:1;stroke:none;stroke-width:.1;stroke-miterlimit:4;stroke-dasharray:none;stroke-opacity:1" id="rect4262" width="10" height="1" x="395.571" y="536.798"/><rect style="opacity:1;fill:#aa7f41;fill-opacity:1;stroke:none" id="rect4171" width="36" height="1" x="390.571" y="542.798"/><path style="fill:url(#linearGradient4187);fill-rule:evenodd;stroke:none;stroke-width:1px;stroke-linecap:butt;stroke-linejoin:miter;stroke-opacity:1;fill-opacity:1;opacity:.2" id="path4179" d="m 421.57143,509.798 5,5 0,28.99997 -7,0 7,3e-5 0,-4 0,1 -31,-31 z"/><rect style="opacity:1;fill:#2d2110;fill-opacity:.31372549;stroke:none" id="rect4244" width="32" height="2" x="392.571" y="539.798"/><rect id="rect4301" width="32" height="1" x="392.571" y="540.798" style="opacity:1;fill:#2d2110;fill-opacity:.31372549;stroke:none"/></g></svg>