<svg xmlns="http://www.w3.org/2000/svg" xmlns:svg="http://www.w3.org/2000/svg" xmlns:xlink="http://www.w3.org/1999/xlink" id="svg2" width="64" height="64" version="1.1" viewBox="0 0 64 64"><metadata id="metadata84"/><defs id="defs4"><linearGradient id="linearGradient4351"><stop style="stop-color:#f78fb9;stop-opacity:1" id="stop4353" offset="0"/><stop style="stop-color:#f9c1d6;stop-opacity:1" id="stop4355" offset="1"/></linearGradient><linearGradient id="linearGradient4300"><stop style="stop-color:#e00a5e;stop-opacity:1" id="stop4302" offset="0"/><stop style="stop-color:#f62870;stop-opacity:1" id="stop4304" offset="1"/></linearGradient><linearGradient id="linearGradient4306" x1="32" x2="32" y1="61" y2="3" gradientUnits="userSpaceOnUse" xlink:href="#linearGradient4300"/><linearGradient id="linearGradient4427" x1="54" x2="40" y1="31" y2="17" gradientTransform="matrix(1,0,0,-1,-14,78)" gradientUnits="userSpaceOnUse" xlink:href="#linearGradient4410"/><linearGradient id="linearGradient4410"><stop style="stop-color:#383e51;stop-opacity:1" id="stop4412" offset="0"/><stop style="stop-color:#655c6f;stop-opacity:0" id="stop4414" offset="1"/></linearGradient><linearGradient id="linearGradient4357" x1="47" x2="47" y1="61" y2="47" gradientUnits="userSpaceOnUse" xlink:href="#linearGradient4351"/></defs><path style="fill:url(#linearGradient4306);fill-opacity:1;stroke:none" id="rect3500" d="M 10 3 L 10 61 L 40 61 L 54 47 L 54 17 L 54 3 L 40 3 L 10 3 z"/><rect style="opacity:1;fill:#2e3132;fill-opacity:.29411765;stroke:none" id="rect4169" width="30" height="1" x="10" y="60"/><rect style="opacity:1;fill:#fff;fill-opacity:.40983605;stroke:none" id="rect4236" width="44" height="1" x="10" y="3"/><path style="fill:url(#linearGradient4357);fill-opacity:1;fill-rule:evenodd;stroke:none;stroke-width:1px;stroke-linecap:butt;stroke-linejoin:miter;stroke-opacity:1" id="path4314" d="M 54,47 40,61 40,47 Z"/><path id="path4320" d="M 26,61 40,47 40,61 Z" style="opacity:.2;fill:url(#linearGradient4427);fill-opacity:1;fill-rule:evenodd;stroke:none;stroke-width:1px;stroke-linecap:butt;stroke-linejoin:miter;stroke-opacity:1"/><path id="path88" d="m 42.330745,21.010268 a 2.7502436,12.3761 44.989453 0 0 -10.236495,7.011056 2.7502436,12.3761 44.989453 0 0 -4.871212,5.657209 c 1.479458,0.471276 2.632592,1.624712 3.103746,3.104558 a 2.7502436,12.3761 44.989453 0 0 5.655325,-4.872818 2.7502436,12.3761 44.989453 0 0 6.804647,-10.696605 2.7502436,12.3761 44.989453 0 0 -0.456524,-0.204134 M 26.499845,35.664955 C 21,37.139299 25.124884,40.621612 21,43 c 5.499845,0 8.249767,-2.752476 8.249767,-4.588071 0,-0.915047 0.0935,-2.59844 -2.749922,-2.750642" style="fill:#f9c1d6;fill-opacity:1"/></svg>