<svg xmlns="http://www.w3.org/2000/svg" xmlns:svg="http://www.w3.org/2000/svg" id="svg4141" width="16" height="16" version="1.1" viewBox="0 0 16 16"><metadata id="metadata4146"/><g id="layer1" transform="translate(0,-1036.3622)"><path style="fill:#373737;fill-opacity:1;fill-rule:evenodd;stroke:none;stroke-width:1px;stroke-linecap:butt;stroke-linejoin:miter;stroke-opacity:1" id="path4194" d="m 8,1036.3622 -3,3 2,0 0,3 2,0 0,-3 2,0 -3,-3 z m -5,5 -3,3 3,3 0,-2 3,0 0,-2 -3,0 0,-2 z m 10,0 0,2 -3,0 0,2 3,0 0,2 3,-3 -3,-3 z m -6,5 0,3 -2,0 3,3 3,-3 -2,0 0,-3 -2,0 z"/></g></svg>