<svg xmlns="http://www.w3.org/2000/svg" xmlns:svg="http://www.w3.org/2000/svg" id="svg4141" width="16" height="16" version="1.1" viewBox="0 0 16 16"><metadata id="metadata4146"/><g id="layer1" transform="translate(0,-1036.3622)"><path style="fill:#373737;fill-opacity:1;fill-rule:evenodd;stroke:none;stroke-width:1px;stroke-linecap:butt;stroke-linejoin:miter;stroke-opacity:1" id="path4145" d="m 5,1045.3622 -3,3 -2,-2 0,6 6,0 -2,-2 3,-3 -2,-2 z"/><path style="fill:#373737;fill-opacity:1;fill-rule:evenodd;stroke:none;stroke-width:1px;stroke-linecap:butt;stroke-linejoin:miter;stroke-opacity:1" id="path4145-3" d="m 11,1045.3622 3,3 2,-2 0,6 -6,0 2,-2 -3,-3 2,-2 z"/><path style="fill:#373737;fill-opacity:1;fill-rule:evenodd;stroke:none;stroke-width:1px;stroke-linecap:butt;stroke-linejoin:miter;stroke-opacity:1" id="path4145-6" d="m 5,1043.3622 -3,-3 -2,2 0,-6 6,0 -2,2 3,3 -2,2 z"/><path style="fill:#373737;fill-opacity:1;fill-rule:evenodd;stroke:none;stroke-width:1px;stroke-linecap:butt;stroke-linejoin:miter;stroke-opacity:1" id="path4145-3-7" d="m 11,1043.3622 3,-3 2,2 0,-6 -6,0 2,2 -3,3 2,2 z"/></g></svg>