<svg xmlns="http://www.w3.org/2000/svg" xmlns:svg="http://www.w3.org/2000/svg" id="svg5502" width="22" height="22" version="1.1" viewBox="0 0 22 22"><metadata id="metadata5507"/><g id="layer1" transform="translate(0,-1030.3622)"><circle style="color:#000;clip-rule:nonzero;display:inline;overflow:visible;visibility:visible;opacity:1;isolation:auto;mix-blend-mode:normal;color-interpolation:sRGB;color-interpolation-filters:linearRGB;solid-color:#000;solid-opacity:1;fill:#cacaca;fill-opacity:1;fill-rule:evenodd;stroke:none;stroke-width:2;stroke-linecap:square;stroke-linejoin:miter;stroke-miterlimit:4;stroke-dasharray:none;stroke-dashoffset:0;stroke-opacity:1;marker:none;color-rendering:auto;image-rendering:auto;shape-rendering:auto;text-rendering:auto;enable-background:accumulate" id="path4147" cx="-11.055" cy="1041.362" r="3" transform="scale(-1,1)"/><path style="color:#000;clip-rule:nonzero;display:inline;overflow:visible;visibility:visible;opacity:1;isolation:auto;mix-blend-mode:normal;color-interpolation:sRGB;color-interpolation-filters:linearRGB;solid-color:#000;solid-opacity:1;fill:#cacaca;fill-opacity:1;fill-rule:evenodd;stroke:none;stroke-width:2;stroke-linecap:square;stroke-linejoin:miter;stroke-miterlimit:4;stroke-dasharray:none;stroke-dashoffset:0;stroke-opacity:1;marker:none;color-rendering:auto;image-rendering:auto;shape-rendering:auto;text-rendering:auto;enable-background:accumulate" id="path4149" d="m 5.0629413,1033.37 0.992188,0.9922 0.433594,0.4336 a 8,8 0 0 0 -1.089844,0.9102 8,8 0 0 0 0,11.3125 8,8 0 0 0 11.3124997,0 8,8 0 0 0 2.271485,-4.6563 l 2.015625,0 a 10,10 0 0 1 -2.873047,6.0703 10,10 0 0 1 -14.1406247,0 10,10 0 0 1 0,-14.1406 10,10 0 0 1 1.078124,-0.9219 z"/><path style="fill:#cacaca;fill-opacity:1;fill-rule:evenodd;stroke:none;stroke-width:1px;stroke-linecap:butt;stroke-linejoin:miter;stroke-opacity:1" id="path4156" d="m 1.8627413,1032.1698 5.656854,5.6569 1.414214,-7.0711 z"/></g></svg>