<svg xmlns="http://www.w3.org/2000/svg" xmlns:cc="http://web.resource.org/cc/" xmlns:svg="http://www.w3.org/2000/svg" xmlns:xlink="http://www.w3.org/1999/xlink" id="svg1409" width="22" height="22" version="1.0"><defs id="defs3"><linearGradient id="linearGradient3264"><stop style="stop-color:#787878;stop-opacity:1" id="stop3266" offset="0"/><stop style="stop-color:#a0a0a0;stop-opacity:1" id="stop3268" offset="1"/></linearGradient><linearGradient id="linearGradient3256"><stop style="stop-color:#969696;stop-opacity:1" id="stop3258" offset="0"/><stop style="stop-color:#969696;stop-opacity:0" id="stop3260" offset="1"/></linearGradient><linearGradient id="linearGradient3208"><stop style="stop-color:#313436;stop-opacity:1" id="stop3210" offset="0"/><stop id="stop3216" offset=".77" style="stop-color:#373a3c;stop-opacity:1"/><stop style="stop-color:#313436;stop-opacity:1" id="stop3212" offset="1"/></linearGradient><linearGradient id="linearGradient3136"><stop style="stop-color:#fff;stop-opacity:.23958333" id="stop3138" offset="0"/><stop style="stop-color:#ff0909;stop-opacity:0" id="stop3140" offset="1"/></linearGradient><radialGradient id="radialGradient1333" cx="48.488" cy="46.914" r="31.678" fx="48.488" fy="46.914" gradientTransform="matrix(1.261963,0,0,1.01636,-7.978266,-0.517425)" gradientUnits="userSpaceOnUse" xlink:href="#light90to0"/><linearGradient id="linearGradient1331" x1="10.878" x2="39.857" y1="4.549" y2="36.874" gradientTransform="matrix(1.32525,0,0,1.003779,-5.702957,1.287849)" gradientUnits="userSpaceOnUse" xlink:href="#light90to0"/><linearGradient id="linearGradient9512" x1="10.878" x2="39.857" y1="4.549" y2="36.874" gradientTransform="matrix(1.32525,0,0,1.003779,-5.702957,1.287849)" gradientUnits="userSpaceOnUse" xlink:href="#light90to0"/><radialGradient id="radialGradient10280" cx="48.488" cy="46.914" r="31.678" fx="48.488" fy="46.914" gradientTransform="matrix(1.261963,0,0,1.01636,-7.978266,-0.517425)" gradientUnits="userSpaceOnUse" xlink:href="#light90to0"/><linearGradient id="light90to0"><stop style="stop-color:#fff;stop-opacity:.90833336" id="stop1890" offset="0"/><stop style="stop-color:#fff;stop-opacity:0" id="stop1892" offset="1"/></linearGradient><radialGradient id="radialGradient2086" cx="48.488" cy="46.914" r="31.678" fx="48.488" fy="46.914" gradientTransform="matrix(1.181248,0,0,0.943878,-80.46799,5.3461)" gradientUnits="userSpaceOnUse" xlink:href="#light90to0"/><linearGradient id="linearGradient2089" x1="10.878" x2="39.857" y1="4.549" y2="36.874" gradientTransform="matrix(1.240487,0,0,0.932195,-78.33821,7.022631)" gradientUnits="userSpaceOnUse" xlink:href="#light90to0"/><linearGradient id="linearGradient3732" x1="10.878" x2="39.857" y1="4.549" y2="36.874" gradientTransform="matrix(1.240487,0,0,0.932195,-78.33821,7.022631)" gradientUnits="userSpaceOnUse" xlink:href="#light90to0"/><radialGradient id="radialGradient3734" cx="48.488" cy="46.914" r="31.678" fx="48.488" fy="46.914" gradientTransform="matrix(1.181248,0,0,0.943878,-80.46799,5.3461)" gradientUnits="userSpaceOnUse" xlink:href="#light90to0"/><radialGradient id="radialGradient3737" cx="48.488" cy="46.914" r="31.678" fx="48.488" fy="46.914" gradientTransform="matrix(1.47229,0,0,1.176435,-85.47464,-0.281735)" gradientUnits="userSpaceOnUse" xlink:href="#light90to0"/><linearGradient id="linearGradient3740" x1="10.878" x2="39.857" y1="4.549" y2="36.874" gradientTransform="matrix(1.546124,0,0,1.161874,-42.82011,1.807868)" gradientUnits="userSpaceOnUse" xlink:href="#light90to0"/><linearGradient id="linearGradient3748" x1="10.878" x2="39.857" y1="4.549" y2="36.874" gradientTransform="matrix(1.546124,0,0,1.161874,-82.82011,1.807868)" gradientUnits="userSpaceOnUse" xlink:href="#light90to0"/><radialGradient id="radialGradient3888" cx="48.488" cy="46.914" r="31.678" fx="48.488" fy="46.914" gradientTransform="matrix(1.181248,0,0,0.943878,-86.67547,5.3461)" gradientUnits="userSpaceOnUse" xlink:href="#light90to0"/><linearGradient id="linearGradient3891" x1="10.878" x2="39.857" y1="4.549" y2="36.874" gradientTransform="matrix(1.240487,0,0,0.932195,-84.54569,7.022631)" gradientUnits="userSpaceOnUse" xlink:href="#light90to0"/><linearGradient id="linearGradient3899" x1="10.878" x2="39.857" y1="4.549" y2="36.874" gradientTransform="matrix(1.240487,0,0,0.932195,-84.54569,7.022631)" gradientUnits="userSpaceOnUse" xlink:href="#light90to0"/><radialGradient id="radialGradient3901" cx="48.488" cy="46.914" r="31.678" fx="48.488" fy="46.914" gradientTransform="matrix(1.181248,0,0,0.943878,-86.67547,5.3461)" gradientUnits="userSpaceOnUse" xlink:href="#light90to0"/><radialGradient id="radialGradient3904" cx="48.488" cy="46.914" r="31.678" fx="48.488" fy="46.914" gradientTransform="matrix(1.842551,0,0,1.472293,-26.91085,-7.897181)" gradientUnits="userSpaceOnUse" xlink:href="#light90to0"/><linearGradient id="linearGradient3907" x1="10.878" x2="39.857" y1="4.549" y2="36.874" gradientTransform="matrix(1.934954,0,0,1.454069,-43.58874,-5.282071)" gradientUnits="userSpaceOnUse" xlink:href="#light90to0"/><linearGradient id="linearGradient3917" x1="10.878" x2="39.857" y1="4.549" y2="36.874" gradientTransform="matrix(1.934954,0,0,1.454069,-23.58874,-5.282071)" gradientUnits="userSpaceOnUse" xlink:href="#light90to0"/><linearGradient id="linearGradient3939" x1="10.878" x2="39.857" y1="4.549" y2="36.874" gradientTransform="matrix(1.934954,0,0,1.454069,-23.58874,-5.282071)" gradientUnits="userSpaceOnUse" xlink:href="#light90to0"/><radialGradient id="radialGradient3941" cx="48.488" cy="46.914" r="31.678" fx="48.488" fy="46.914" gradientTransform="matrix(1.842551,0,0,1.472293,-26.91085,-7.897181)" gradientUnits="userSpaceOnUse" xlink:href="#light90to0"/><radialGradient id="radialGradient3103" cx="48.488" cy="46.914" r="31.678" fx="48.488" fy="46.914" gradientTransform="matrix(1.843411,0,0,1.546427,-39.13262,-18.20529)" gradientUnits="userSpaceOnUse" xlink:href="#light90to0"/><linearGradient id="linearGradient3106" x1="10.878" x2="39.857" y1="4.549" y2="36.874" gradientTransform="matrix(1.935858,0,0,1.527286,-33.53707,-3.676156)" gradientUnits="userSpaceOnUse" xlink:href="#light90to0"/><radialGradient id="radialGradient3142" cx="25.015" cy="24.373" r="8.122" fx="25.015" fy="24.373" gradientTransform="matrix(1,0,0,0.92,0,1.94983)" gradientUnits="userSpaceOnUse" xlink:href="#linearGradient3136"/><radialGradient id="radialGradient3198" cx="25.015" cy="24.373" r="8.122" fx="25.015" fy="24.373" gradientTransform="matrix(1,0,0,0.92,0,1.94983)" gradientUnits="userSpaceOnUse" xlink:href="#linearGradient3136"/><linearGradient id="linearGradient3262" x1="42.718" x2="57.968" y1="28.488" y2="28.488" gradientTransform="matrix(0.379522,0,0,0.379522,-3.932923e-16,-3.72157e-3)" gradientUnits="userSpaceOnUse" xlink:href="#linearGradient3256"/><linearGradient id="linearGradient3270" x1="2.25" x2="21.998" y1="12.14" y2="12.14" gradientTransform="translate(2.262e-3,-9.301e-3)" gradientUnits="userSpaceOnUse" xlink:href="#linearGradient3264"/><radialGradient id="radialGradient3292" cx="25.015" cy="24.373" r="8.122" fx="25.015" fy="24.373" gradientTransform="matrix(1,0,0,0.92,0,1.94983)" gradientUnits="userSpaceOnUse" xlink:href="#linearGradient3136"/><linearGradient id="linearGradient3301" x1="42.718" x2="57.968" y1="28.488" y2="28.488" gradientTransform="matrix(0.379522,0,0,0.379522,11.99971,7.621365)" gradientUnits="userSpaceOnUse" xlink:href="#linearGradient3256"/><radialGradient id="radialGradient3303" cx="25.015" cy="24.373" r="8.122" fx="25.015" fy="24.373" gradientTransform="matrix(1,0,0,0.92,0,1.94983)" gradientUnits="userSpaceOnUse" xlink:href="#linearGradient3136"/></defs><metadata id="metadata4"/><g id="layer1"><path style="fill:#bebebe;fill-opacity:1;fill-rule:evenodd;stroke:none;stroke-width:1px;stroke-linecap:butt;stroke-linejoin:miter;stroke-opacity:1" id="path3151" d="M 2.870858,16.882359 C 5.0598873,15.626359 5.4905158,16.595273 5.4905158,16.595273 L 6.2441162,18.281903 L 5.3828589,19.322589"/><path style="opacity:1;fill:url(#linearGradient3270);fill-opacity:1;stroke:none;stroke-width:5.625;stroke-linecap:round;stroke-linejoin:round;stroke-miterlimit:4;stroke-dasharray:none;stroke-dashoffset:0;stroke-opacity:.98913042" id="path3149" d="M 11.685746,2.2635359 C 6.4415012,2.4956003 2.2523851,6.8307301 2.2523851,12.131768 C 2.2523851,17.581319 6.6821924,22 12.131768,22 C 17.581343,22 22,17.581319 22,12.131768 C 21.999999,6.6822174 17.581343,2.2635359 12.131768,2.2635359 C 12.004043,2.2635359 11.879202,2.2587206 11.752649,2.2635359 C 11.732052,2.2643196 11.706312,2.2626259 11.685746,2.2635359 z M 11.797252,5.2853334 C 11.840148,5.2829026 11.876807,5.2869734 11.919908,5.2853334 C 12.008177,5.281975 12.098433,5.2853334 12.187521,5.2853334 C 15.988577,5.2853334 19.067407,8.364162 19.067407,12.16522 C 19.067407,14.065748 17.766075,15.397225 16.521235,16.642064 C 15.276395,17.886904 14.088049,19.045106 12.187521,19.045106 C 8.386464,19.045106 5.2964839,15.966276 5.2964835,12.16522 C 5.2964835,8.49675 8.179632,5.4903078 11.797252,5.2853334 z"/><path style="fill:#6e6e6e;fill-opacity:1;fill-rule:evenodd;stroke:none;stroke-width:1px;stroke-linecap:butt;stroke-linejoin:miter;stroke-opacity:1" id="path3130" d="M 4.6829485,14.913971 C 4.3986517,12.248484 4.1732961,10.502726 5.6607092,8.0399772 C 7.9623626,4.2290697 12.792842,4.2762827 15.037384,4.9281667 C 16.297373,5.2941059 13.8014,2.0801252 13.685675,1.8486741 C 13.555694,1.5887131 10.790175,0.65325747 10.315629,0.69792667 C 9.0556677,0.81652736 6.1065158,1.8817743 4.8906765,2.6295384 C 4.1184435,3.1044764 1.5558033,6.5046123 1.2740418,7.0681355 C 1.0820562,7.4521065 0.62128553,11.654096 0.82196244,12.65748 C 0.88790126,12.987174 4.7238226,15.297195 4.6829485,14.913971 z"/><path style="fill:#ff0909;fill-opacity:.45405406;stroke:none;stroke-width:5.625;stroke-linecap:round;stroke-linejoin:round;stroke-miterlimit:4;stroke-dasharray:none;stroke-dashoffset:0;stroke-opacity:.98913042" id="path3115" d="M 11.28125,3.46875 C 7.0156744,3.8021114 3.65625,7.4758848 3.65625,11.9375 C 3.65625,15.448279 5.7527084,18.462078 8.71875,19.75 C 8.5411163,19.572282 8.2707985,19.260891 8.15625,19.0625 C 8.1432138,19.038406 8.132279,18.989549 8.125,18.96875 C 8.1239941,18.964034 8.1255755,18.941957 8.125,18.9375 C 8.1248707,18.933315 8.1246675,18.910152 8.125,18.90625 C 8.1263033,18.90295 8.1231878,18.877981 8.125,18.875 C 8.1336316,18.868079 8.173723,18.847371 8.1875,18.84375 C 8.1926954,18.842933 8.2129358,18.844164 8.21875,18.84375 C 8.2254977,18.84375 8.2430579,18.844063 8.25,18.84375 C 8.2713908,18.841902 8.3207757,18.848147 8.34375,18.84375 C 8.3672153,18.838563 8.412672,18.819877 8.4375,18.8125 C 8.8330113,18.686414 9.4034506,18.311913 9.78125,18.21875 C 9.8048993,18.213564 9.8528577,18.190227 9.875,18.1875 C 9.8894021,18.186268 9.9238535,18.1875 9.9375,18.1875 C 10.280065,18.173019 12.681854,17.727974 12.96875,17.65625 C 13.197391,17.567298 15.774962,15.915357 16.0625,15.6875 C 16.064368,15.685632 16.091055,15.659527 16.09375,15.65625 C 16.310468,15.368508 18.03202,12.498462 18.125,12.3125 C 18.227335,12.057307 18.750238,9.5088168 18.90625,9.1875 C 18.908686,9.1833497 18.935279,9.1590607 18.9375,9.15625 C 18.950344,9.15625 19.655829,9.2469227 19.75,9.25 C 19.740635,9.2297736 19.745791,9.1655723 19.71875,9.125 C 19.529461,8.8409941 18.943665,8.1429826 18.875,8 C 18.914573,7.9010676 18.989778,7.8045847 19.0625,7.71875 C 19.07058,7.7092128 19.054085,7.6967151 19.0625,7.6875 C 19.059155,7.681599 19.097109,7.662142 19.09375,7.65625 C 17.659524,5.1403638 14.981334,3.46875 11.9375,3.46875 C 11.723647,3.46875 11.491032,3.4523552 11.28125,3.46875 z"/><path style="fill:url(#radialGradient3303);fill-opacity:1;stroke:none;stroke-width:5.625;stroke-linecap:round;stroke-linejoin:round;stroke-miterlimit:4;stroke-dasharray:none;stroke-dashoffset:0;stroke-opacity:.98913042" id="path3134" d="M 33.136456 24.372894 A 8.1216803 7.4719462 0 1 1 16.893096,24.372894 A 8.1216803 7.4719462 0 1 1 33.136456 24.372894 z" transform="matrix(0.607235,0,0,0.660038,-5.151071,-7.62158)"/><path style="opacity:1;fill:#4e4e4e;fill-opacity:1;stroke:none;stroke-width:5.625;stroke-linecap:round;stroke-linejoin:round;stroke-miterlimit:4;stroke-dasharray:none;stroke-dashoffset:0;stroke-opacity:1" id="path1361" d="M 9.433361,0.0021401333 C 4.189116,0.23420453 0,4.5693346 0,9.8703729 C 0,15.319923 4.429807,19.738605 9.879383,19.738605 C 15.328958,19.738605 19.747615,15.319923 19.747615,9.8703729 C 19.747614,4.4208218 15.328958,0.0021401333 9.879383,0.0021401333 C 9.751658,0.0021401333 9.626817,-0.0026751667 9.500264,0.0021401333 C 9.479667,0.0029239333 9.453927,0.0012301333 9.433361,0.0021401333 z M 9.544867,3.0239379 C 9.587763,3.0215073 9.624422,3.0255778 9.667523,3.0239379 C 9.755792,3.0205795 9.846048,3.0239379 9.935136,3.0239379 C 13.736192,3.0239379 16.815022,6.1027668 16.815022,9.9038239 C 16.815022,13.704881 13.736192,16.783711 9.935136,16.783711 C 6.134079,16.783711 3.044099,13.704881 3.044099,9.9038239 C 3.044099,6.2353545 5.927246,3.2289124 9.544867,3.0239379 z"/></g></svg>