<svg xmlns="http://www.w3.org/2000/svg" xmlns:svg="http://www.w3.org/2000/svg" xmlns:xlink="http://www.w3.org/1999/xlink" id="svg3049" width="16" height="16" version="1.1"><defs id="defs3051"><linearGradient id="linearGradient3909"><stop style="stop-color:#383839;stop-opacity:1" id="stop3905" offset="0"/><stop style="stop-color:#595b5b;stop-opacity:1" id="stop3907" offset="1"/></linearGradient><linearGradient id="linearGradient3859"><stop id="stop3855" offset="0" style="stop-color:#383839;stop-opacity:1"/><stop id="stop3857" offset="1" style="stop-color:#535555;stop-opacity:1"/></linearGradient><linearGradient id="linearGradient3853"><stop style="stop-color:#989898;stop-opacity:1" id="stop3849" offset="0"/><stop style="stop-color:#fff;stop-opacity:1" id="stop3851" offset="1"/></linearGradient><linearGradient id="linearGradient3766"><stop id="stop3762" offset="0" style="stop-color:#91d1f2;stop-opacity:1"/><stop id="stop3764" offset="1" style="stop-color:#ceeaf9;stop-opacity:1"/></linearGradient><linearGradient id="linearGradient3758"><stop id="stop3754" offset="0" style="stop-color:#c0e4f8;stop-opacity:1"/><stop id="stop3756" offset="1" style="stop-color:#fefeff;stop-opacity:1"/></linearGradient><style id="current-color-scheme" type="text/css"/><style id="current-color-scheme-9" type="text/css"/><style id="current-color-scheme-4" type="text/css"/><linearGradient id="linearGradient3760" x1="435.717" x2="421.805" y1="545.791" y2="531.878" gradientUnits="userSpaceOnUse" xlink:href="#linearGradient3758"/><linearGradient id="linearGradient3768" x1="433.038" x2="426.453" y1="543.114" y2="536.53" gradientTransform="matrix(1.0139683,0,0,1.0139683,-6.0023827,-7.539964)" gradientUnits="userSpaceOnUse" xlink:href="#linearGradient3766"/><linearGradient id="linearGradient3846" x1="422.276" x2="430.277" y1="539.611" y2="546.759" gradientUnits="userSpaceOnUse" xlink:href="#linearGradient3853"/><linearGradient id="linearGradient3861" x1="429.556" x2="417.556" y1="537.777" y2="549.78" gradientUnits="userSpaceOnUse" xlink:href="#linearGradient3909"/><linearGradient id="linearGradient3869" x1="14.003" x2="2" y1="14" y2="2" gradientUnits="userSpaceOnUse" xlink:href="#linearGradient3859"/><linearGradient id="linearGradient3879" x1="14.003" x2="2" y1="14" y2="2" gradientUnits="userSpaceOnUse" xlink:href="#linearGradient3859"/><linearGradient id="linearGradient3887" x1="14.003" x2="2" y1="14" y2="2" gradientUnits="userSpaceOnUse" xlink:href="#linearGradient3859"/><linearGradient id="linearGradient4052" x1="14.003" x2="2" y1="14" y2="2" gradientTransform="matrix(0.68029446,0.15834037,-0.15599725,0.69051265,3.7131168,0.51058775)" gradientUnits="userSpaceOnUse" xlink:href="#linearGradient3859"/><linearGradient id="linearGradient4338" x1="424.216" x2="435.513" y1="543.682" y2="543.682" gradientUnits="userSpaceOnUse" xlink:href="#linearGradient3859"/><linearGradient id="linearGradient4346" x1="424.216" x2="435.513" y1="543.682" y2="543.682" gradientUnits="userSpaceOnUse" xlink:href="#linearGradient3859"/><style id="current-color-scheme-90" type="text/css"/><style id="current-color-scheme-1" type="text/css"/><style id="current-color-scheme-9-7" type="text/css"/><filter style="color-interpolation-filters:sRGB" id="filter1949-6-9" width="1.005" height="1.014" x="-.002" y="-.007"><feGaussianBlur id="feGaussianBlur1951-2-2" stdDeviation=".013"/></filter><style id="current-color-scheme-6" type="text/css"/><style id="current-color-scheme-9-8" type="text/css"/></defs><metadata id="metadata3054"/><g style="display:inline" id="layer2"><circle id="path1468-0-0-0-4-8" cx="8" cy="8" r="8.005" style="opacity:.9885;fill:#96d5f3;fill-opacity:1;stroke:none;stroke-width:1.80049;stroke-miterlimit:4;stroke-dasharray:none;stroke-opacity:1;paint-order:normal"/><path id="path1468-0-0-4-8" d="M 13.196468,8 A 5.1964679,5.1964679 0 0 1 8,13.196468 5.1964679,5.1964679 0 0 1 2.8035321,8 5.1964679,5.1964679 0 0 1 8,2.8035321 5.1964679,5.1964679 0 0 1 13.196468,8" style="opacity:.9885;fill:#71b6ea;fill-opacity:1;stroke:none;stroke-width:1.42895;stroke-miterlimit:4;stroke-dasharray:none;stroke-opacity:1;paint-order:normal"/><path id="rect2343-6" d="m 7.723635,2.238473 v 3.68359 a 1.9310606,1.9310606 0 0 1 0.2441399,-0.0156 1.9310606,1.9310606 0 0 1 0.3085901,0.0273 v -3.69531 z" style="display:inline;opacity:.989;fill:#373737;fill-opacity:1;stroke:none;stroke-width:.441161;stroke-miterlimit:4;stroke-dasharray:none;stroke-opacity:1;paint-order:normal"/><path id="rect2343-1-0" d="M 2.0000044,7.44532 V 8 h 3.7831997 a 1.9310606,1.9310606 0 0 1 -0.0215,-0.27734 1.9310606,1.9310606 0 0 1 0.0215,-0.27734 z" style="display:inline;opacity:.989;fill:#373737;fill-opacity:1;stroke:none;stroke-width:.397002;stroke-miterlimit:4;stroke-dasharray:none;stroke-opacity:1;paint-order:normal"/><path id="rect2343-2-5" d="M 10.30658,7.44532 A 1.9310606,1.9310606 0 0 1 10.32808,7.72266 1.9310606,1.9310606 0 0 1 10.30468,8 H 14 V 7.44532 Z" style="display:inline;opacity:.989;fill:#373737;fill-opacity:1;stroke:none;stroke-width:.401239;stroke-miterlimit:4;stroke-dasharray:none;stroke-opacity:1;paint-order:normal"/><path id="rect2343-8-0" d="m 9.6910363,4.4286062 -0.8039,1.5432383 a 1.390933,1.7932034 19.742717 0 1 0.179331,0.1236395 1.390933,1.7932034 19.742717 0 1 0.0089,0.00699 l 0.147052,0.092465 0.8091297,-1.5489389 z" style="display:inline;opacity:.989;fill:#373737;fill-opacity:1;stroke:none;stroke-width:.217756;stroke-miterlimit:4;stroke-dasharray:none;stroke-opacity:1;paint-order:normal"/><path id="rect2343-8-9-2" d="M 6.3479251,4.7927151 6.0196136,5.0016352 6.7193198,6.1326417 A 1.3477858,1.3680299 0 0 1 7.0299204,5.8968861 Z" style="display:inline;opacity:.989;fill:#373737;fill-opacity:1;stroke:none;stroke-width:.187224;stroke-miterlimit:4;stroke-dasharray:none;stroke-opacity:1;paint-order:normal"/><path id="rect2343-80-1-4" d="M 12.618615,4.3077251 9.5986018,6.6552118 a 1.7825761,2.0092643 59.151122 0 1 0.157197,0.1638283 1.7825761,2.0092643 59.151122 0 1 0.160146,0.2370412 L 12.945567,4.7011258 Z" style="display:inline;opacity:.989;fill:#373737;fill-opacity:1;stroke:none;stroke-width:.432359;stroke-miterlimit:4;stroke-dasharray:none;stroke-opacity:1;paint-order:normal"/><path style="display:inline;opacity:.989;fill:#373737;fill-opacity:1;stroke:none;stroke-width:.605241;stroke-miterlimit:4;stroke-dasharray:none;stroke-opacity:1;paint-order:normal" id="rect2343-6-4" d="M 0.85724214,3.2206003 6.3975812,7.2723015 A 3.6022924,1.948384 34.426441 0 1 6.5343679,7.0668176 3.6022924,1.948384 34.426441 0 1 6.7779826,6.8588054 L 1.2200155,2.7942127 Z"/><path style="display:inline;opacity:.9885;fill:#71b6ea;fill-opacity:1;stroke:none;stroke-width:.664581;stroke-miterlimit:4;stroke-dasharray:none;stroke-opacity:1;paint-order:normal" id="path1468-0-0-4-8-5" d="M 10.416794,8 A 2.4167937,2.4167937 0 0 1 8,10.416794 2.4167937,2.4167937 0 0 1 5.5832063,8 2.4167937,2.4167937 0 0 1 8,5.5832063 2.4167937,2.4167937 0 0 1 10.416794,8"/><path id="rect2368-8" d="M 8.0000019,7.844884 6.8744773,8.9644849 5.8476831,9.9833803 H 5.7469776 V 10.084086 16 H 10.253022 V 10.084086 9.9833803 H 10.152317 L 9.1255253,8.9644849 Z" style="opacity:.989;fill:#eff0f1;fill-opacity:1;stroke:none;stroke-width:.898567;stroke-miterlimit:4;stroke-dasharray:none;stroke-opacity:1;paint-order:normal"/><path id="rect4132-8-9-3" d="M 8.0000003,7.7934026 5.7714842,10.021918 v 5.921875 h 0.890625 v -2.886719 l 0.417969,0.417969 0.613281,-0.640625 0.6406255,-0.640625 0.6406249,0.640625 0.3613283,0.363281 v 1.78125 0.964844 h 0.8925781 v -1.855469 -4.066406 z m -0.4453121,1.783204 h 0.8906246 l 0.8906251,0.8906244 v 1.476562 l -1.0019532,-1.003906 -0.6406255,0.640625 -0.613281,0.613281 -0.417969,-0.390625 v -1.335937 z" transform="matrix(1.0109977,0,0,1.0109977,-0.08798163,-0.17596336)" style="display:inline;opacity:.989;fill:#373737;fill-opacity:1;stroke:none;stroke-width:.874802;filter:url(#filter1949-6-9)"/></g></svg>