<svg xmlns="http://www.w3.org/2000/svg" xmlns:svg="http://www.w3.org/2000/svg" id="svg8" width="16" height="16" version="1.1" viewBox="0 0 16 16"><metadata id="metadata12"/><defs id="defs3051"><style id="current-color-scheme" type="text/css">.ColorScheme-Text{color:#373737}.ColorScheme-Highlight{color:#3daee9}</style></defs><path style="color:#373737;fill:#373737;fill-opacity:1;stroke:none" id="path4" d="M 13,0 V 1 A 12,12 0 0 0 4.0742188,5 H 5 V 5.4707031 A 11,11 0 0 1 13,2 v 1 h 3 V 0 Z m 1,1 h 1 V 2 H 14 Z M 4,5.0859375 A 12,12 0 0 0 1,13 H 0 v 3 H 3 V 13 H 2 A 11,11 0 0 1 4.5214844,6 H 4 Z M 1,14 h 1 v 1 H 1 Z" class="ColorScheme-Text"/><path style="color:#3daee9;fill:currentColor;fill-opacity:1;stroke:none" id="path6" d="M 2,3 V 8 H 7 V 3 Z M 4,5 H 5 V 6 H 4 Z" class="ColorScheme-Highlight"/></svg>