<svg xmlns="http://www.w3.org/2000/svg" xmlns:svg="http://www.w3.org/2000/svg" id="svg8" width="16" height="16" version="1.1" viewBox="0 0 16 16"><metadata id="metadata12"/><defs id="defs3051"><style id="current-color-scheme" type="text/css">.ColorScheme-Highlight{color:#3daee9}</style></defs><path style="color:#373737;fill:currentColor;fill-opacity:1;stroke:none" id="path4" d="M 0,0 C 0,8 3,13 5,13 V 12 C 4,12 1,8 1,0 Z m 15,0 c 0,6 -4,12 -8,12 v 1 c 4,0 9,-6 9,-13 z M 0,12 v 3 H 3 V 14 H 4 V 13 H 3 v -1 z m 13,0 v 1 h -1 v 1 h 1 v 1 h 3 V 12 Z M 1,13 h 1 v 1 H 1 Z m 7,0 v 1 h 1 v -1 z m 2,0 v 1 h 1 v -1 z m 4,0 h 1 v 1 h -1 z"/><path style="color:#3daee9;fill:currentColor;fill-opacity:1;stroke:none" id="path6" d="m 3,11 v 5 h 5 v -5 z m 2,2 h 1 v 1 H 5 Z" class="ColorScheme-Highlight"/></svg>