<svg xmlns="http://www.w3.org/2000/svg" xmlns:svg="http://www.w3.org/2000/svg" id="svg3760" width="24" height="24" version="1.1"><metadata id="metadata3765"/><g id="layer1" transform="translate(-550.28572,-606.6479)"><path style="fill:#505050;fill-opacity:1;stroke:none;stroke-width:.02714091px;stroke-linecap:butt;stroke-linejoin:miter;stroke-opacity:1" id="path6264" d="m 561.30594,615.15037 c 0.17681,0.23574 0.0442,0.85453 -0.29467,1.25234 -0.33888,0.3978 -2.8318,3.17174 -2.8318,3.17174 l -0.98714,-0.98714 2.87599,-2.93601 c 0,0 0.75141,-0.75142 1.23762,-0.50093 z"/><path style="fill:#505050;fill-opacity:1;stroke:none;stroke-width:.02714091px;stroke-linecap:butt;stroke-linejoin:miter;stroke-opacity:1" id="path6266" d="m 557.98794,619.88386 c 0,0 -0.0648,0.70619 -0.35361,1.10503 -0.3094,0.42729 -1.04608,0.33887 -1.47335,0.42729 -0.47149,0.23574 -0.50095,0.45672 -0.66302,0.81034 -0.16208,0.3536 -0.1326,0.48621 -0.36834,0.73667 -0.10313,-0.14726 -0.25047,-1.09029 -0.27993,-1.51756 0.0148,-0.35361 0.10316,-1.37022 0.85455,-1.93008 0.75141,-0.55989 1.14921,-0.73671 1.14921,-0.73671 z"/><rect style="fill:none;fill-opacity:1;stroke:#514e50;stroke-width:.84798068;stroke-miterlimit:4;stroke-dasharray:none;stroke-opacity:1" id="rect4583-7" width="10.889" height="10.067" x="552.341" y="613.833"/><path style="fill:#505050;fill-opacity:1;stroke:none;stroke-width:.47142518;stroke-miterlimit:4;stroke-dasharray:none;stroke-opacity:1" id="path6465-9-8" d="m 15.675568,272.07336 -1.411776,0 -1.411776,0 0.705888,-1.22263 0.705888,-1.22264 0.705888,1.22264 z" transform="matrix(2.5738825,0,0,2.4346325,532.3561,-40.97549)"/></g></svg>