<svg xmlns="http://www.w3.org/2000/svg" xmlns:svg="http://www.w3.org/2000/svg" id="svg8" width="16" height="16" version="1.1" viewBox="0 0 16 16"><metadata id="metadata12"/><defs id="defs3051"><style id="current-color-scheme" type="text/css"/></defs><path id="rect4508" d="M 0 0 L 0 2 L 2 2 L 2 0 L 0 0 z M 0 4 L 0 6 L 2 6 L 2 4 L 0 4 z M 0 8 L 0 10 L 2 10 L 2 8 L 0 8 z M 0 12 L 0 14 L 0 16 L 2 16 L 4 16 L 4 14 L 2 14 L 2 12 L 0 12 z M 6 14 L 6 16 L 8 16 L 8 14 L 6 14 z M 10 14 L 10 16 L 12 16 L 12 14 L 10 14 z M 14 14 L 14 16 L 16 16 L 16 14 L 14 14 z" style="color:#000;clip-rule:nonzero;display:inline;overflow:visible;visibility:visible;opacity:1;isolation:auto;mix-blend-mode:normal;color-interpolation:sRGB;color-interpolation-filters:linearRGB;solid-color:#000;solid-opacity:1;fill:#373737;fill-opacity:1;fill-rule:evenodd;stroke:none;stroke-width:1;stroke-linecap:square;stroke-linejoin:miter;stroke-miterlimit:4;stroke-dasharray:none;stroke-dashoffset:0;stroke-opacity:1;marker:none;color-rendering:auto;image-rendering:auto;shape-rendering:auto;text-rendering:auto;enable-background:accumulate"/></svg>