<svg xmlns="http://www.w3.org/2000/svg" xmlns:svg="http://www.w3.org/2000/svg" id="svg8" width="16" height="16" version="1.1" viewBox="0 0 16 16"><metadata id="metadata12"/><defs id="defs3051"><style id="current-color-scheme" type="text/css">.ColorScheme-Text{color:#373737}.ColorScheme-Highlight{color:#3daee9}</style></defs><path style="color:#373737;fill:currentColor;fill-opacity:1;stroke:none" id="path4" d="M 0,0 V 3 H 3 V 2 H 6 V 1 H 3 V 0 Z m 13,0 v 1 h -3 v 1 h 3 v 1 h 3 V 0 Z M 1,1 H 2 V 2 H 1 Z m 13,0 h 1 V 2 H 14 Z M 0,13 v 3 h 3 v -1 h 3 4 3 v 1 h 3 v -3 h -3 v 1 H 10 6 3 v -1 z m 1,1 h 1 v 1 H 1 Z m 13,0 h 1 v 1 h -1 z" class="ColorScheme-Text"/><path style="color:#3daee9;fill:currentColor;fill-opacity:1;stroke:none" id="path6" d="m 5,6 3,5 3,-5 z" class="ColorScheme-Highlight"/></svg>