<svg xmlns="http://www.w3.org/2000/svg" xmlns:svg="http://www.w3.org/2000/svg" xmlns:xlink="http://www.w3.org/1999/xlink" id="svg2" width="22" height="22" version="1.1" viewBox="0 0 22 22"><defs id="defs4"><linearGradient id="linearGradient928"><stop style="stop-color:#373737;stop-opacity:1" id="stop924" offset="0"/><stop style="stop-color:#373737;stop-opacity:.25882354" id="stop926" offset="1"/></linearGradient><linearGradient id="linearGradient920"><stop style="stop-color:#373737;stop-opacity:1" id="stop916" offset="0"/><stop style="stop-color:#373737;stop-opacity:.25882354" id="stop918" offset="1"/></linearGradient><linearGradient id="linearGradient922" x1="6" x2="13" y1="25" y2="25" gradientTransform="translate(0,1)" gradientUnits="userSpaceOnUse" xlink:href="#linearGradient920"/><linearGradient id="linearGradient930" x1="16" x2="9" y1="17" y2="17" gradientUnits="userSpaceOnUse" xlink:href="#linearGradient928"/></defs><metadata id="metadata7"/><g style="display:inline" id="g4152" transform="translate(0,-10)"><path style="opacity:1;fill:url(#linearGradient922);fill-opacity:1;stroke:none;stroke-width:.5;stroke-linecap:butt;stroke-linejoin:round;stroke-miterlimit:4;stroke-dasharray:none;stroke-opacity:1" id="path834" d="M 11,21 A 5,5 0 0 1 12.996094,21.421875 5,5 0 0 0 10,26 5,5 0 0 0 13.003906,30.578125 5,5 0 0 1 11,31 5,5 0 0 1 6,26 5,5 0 0 1 11,21 Z"/><path style="display:inline;opacity:1;fill:url(#linearGradient930);fill-opacity:1;stroke:none;stroke-width:.5;stroke-linecap:butt;stroke-linejoin:round;stroke-miterlimit:4;stroke-dasharray:none;stroke-opacity:1" id="path834-6" d="m 11,12 a 5,5 0 0 1 5,5 5,5 0 0 1 -5,5 A 5,5 0 0 1 9.003906,21.578125 5,5 0 0 0 12,17 5,5 0 0 0 8.996094,12.421875 5,5 0 0 1 11,12 Z"/></g></svg>