<svg xmlns="http://www.w3.org/2000/svg" xmlns:svg="http://www.w3.org/2000/svg" xmlns:xlink="http://www.w3.org/1999/xlink" id="svg2" width="22" height="22" version="1.1" viewBox="0 0 22 22"><defs id="defs4"><linearGradient id="linearGradient920"><stop style="stop-color:#cacaca;stop-opacity:1" id="stop916" offset="0"/><stop style="stop-color:#cacaca;stop-opacity:.25882354" id="stop918" offset="1"/></linearGradient><linearGradient id="linearGradient922" x1="6" x2="13" y1="25" y2="25" gradientTransform="translate(0,1)" gradientUnits="userSpaceOnUse" xlink:href="#linearGradient920"/></defs><metadata id="metadata7"/><g style="display:inline" id="g4152" transform="translate(0,-10)"><path style="fill:#373737;fill-opacity:1;stroke:none;stroke-width:1px;stroke-linecap:butt;stroke-linejoin:miter;stroke-opacity:1" id="path898" d="m 8,15 c -1.8804176,-0.04415 -3.8766458,0.717003 -4.9170942,2.35152 -1.3866638,2.151568 -1.2498773,4.985682 -0.2615557,7.267865 0.3454157,0.853776 -0.024849,-0.513259 -0.01452,-0.848233 -0.2363532,-1.99948 0.037167,-4.295404 1.6188253,-5.70816 1.3288315,-1.181965 3.4754424,-1.547262 5.0149078,-0.56813 0.5911958,0.347621 0.7931588,1.165502 0.4715462,1.73756 -0.3337821,1.019425 -0.6897657,2.033253 -1.0097656,3.056152 -0.2586615,1.605569 0.3378614,3.452983 1.8415832,4.248619 1.504839,0.80021 3.323058,0.839971 4.960106,0.490364 1.8012,-0.391444 3.289783,-1.817663 3.806979,-3.579578 0.636945,-2.0435 0.338359,-4.312326 -0.598903,-6.215557 0.408972,2.071401 0.485473,4.432774 -0.789806,6.233288 -1.189622,1.68954 -3.699692,2.377531 -5.528096,1.354145 -0.640546,-0.332058 -0.944616,-1.138994 -0.614349,-1.792375 0.353208,-1.000899 0.701083,-2.056166 1.029908,-3.083632 0.258661,-1.605569 -0.337862,-3.452984 -1.841584,-4.248619 C 10.20974,15.155041 9.0848378,15.00286 8,15 Z"/><path style="display:inline;fill:#373737;fill-opacity:1;stroke:none;stroke-width:1px;stroke-linecap:butt;stroke-linejoin:miter;stroke-opacity:1" id="path898-7" d="m 4.8373324,24.072591 c -0.04415,1.880418 0.717003,3.876646 2.35152,4.917094 2.151568,1.386664 4.9856816,1.249878 7.2678646,0.261556 0.853776,-0.345416 -0.513259,0.02485 -0.848233,0.01452 -1.99948,0.236353 -4.2954036,-0.03717 -5.7081596,-1.618825 -1.181965,-1.328832 -1.547262,-3.475443 -0.56813,-5.014908 0.347621,-0.591196 1.165502,-0.793159 1.73756,-0.471546 1.0194246,0.333782 2.0332526,0.689766 3.0561516,1.009765 1.605569,0.258662 3.452983,-0.337861 4.248619,-1.841583 0.80021,-1.504839 0.839971,-3.323058 0.490364,-4.960106 -0.391444,-1.8012 -1.817663,-3.289783 -3.579578,-3.806979 -2.0435,-0.636945 -4.3123256,-0.338359 -6.2155566,0.598903 2.071401,-0.408972 4.4327736,-0.485473 6.2332876,0.789806 1.68954,1.189622 2.377531,3.699692 1.354145,5.528096 -0.332058,0.640546 -1.138994,0.944616 -1.792375,0.614349 -1.000899,-0.353208 -2.056166,-0.701083 -3.0836316,-1.029908 -1.605569,-0.258661 -3.452984,0.337862 -4.248619,1.841584 -0.540188,0.958442 -0.692369,2.083344 -0.695229,3.168182 z"/></g></svg>