<svg xmlns="http://www.w3.org/2000/svg" xmlns:svg="http://www.w3.org/2000/svg" id="svg2" width="22" height="22" version="1.1" viewBox="0 0 22 22"><metadata id="metadata7"/><g style="display:inline" id="g4152" transform="translate(0,-10)"><path style="opacity:1;fill:#373737;fill-opacity:1;stroke:none;stroke-width:0;stroke-linecap:butt;stroke-linejoin:round;stroke-miterlimit:4;stroke-dasharray:none;stroke-opacity:1" id="path823" d="M 11 1 A 10 10 0 0 0 1 11 A 10 10 0 0 0 11 21 A 10 10 0 0 0 16.736328 19.175781 A 9 9 0 0 1 13 20 A 9 9 0 0 1 4 11 A 9 9 0 0 1 13 2 A 9 9 0 0 1 16.765625 2.8378906 A 10 10 0 0 0 11 1 z" transform="translate(0,10)"/><path style="opacity:1;fill:#373737;fill-opacity:1;stroke:none;stroke-width:1;stroke-linecap:butt;stroke-linejoin:round;stroke-miterlimit:4;stroke-dasharray:none;stroke-opacity:1" id="rect836" d="m 14,12 h 1 C 5,12 5,30 15,30 H 14 C 4,30 4,12 14,12 Z"/></g></svg>