<svg xmlns="http://www.w3.org/2000/svg" xmlns:svg="http://www.w3.org/2000/svg" xmlns:xlink="http://www.w3.org/1999/xlink" id="svg2" width="22" height="22" version="1.1" viewBox="0 0 22 22"><defs id="defs4"><linearGradient id="linearGradient903"><stop id="stop899" offset="0" style="stop-color:#cacaca;stop-opacity:0"/><stop id="stop901" offset="1" style="stop-color:#cacaca;stop-opacity:1"/></linearGradient><radialGradient id="radialGradient897" cx="11" cy="21" r="7" fx="7" fy="17" gradientTransform="matrix(1.0714286,0,0,1.0714286,-0.785714,-1.5)" gradientUnits="userSpaceOnUse" xlink:href="#linearGradient903"/></defs><metadata id="metadata7"/><g style="display:inline" id="g4152" transform="translate(0,-10)"><circle style="display:inline;opacity:.881;fill:url(#radialGradient897);fill-opacity:1;stroke:none;stroke-width:0;stroke-linecap:butt;stroke-linejoin:round;stroke-miterlimit:4;stroke-dasharray:none;stroke-opacity:1" id="path823-3" cx="11" cy="21" r="7.5"/><path style="opacity:1;fill:#cacaca;fill-opacity:1;stroke:none;stroke-width:0;stroke-linecap:butt;stroke-linejoin:round;stroke-miterlimit:4;stroke-dasharray:none;stroke-opacity:1" id="path823" d="M 11 2 A 9 9 0 0 0 2 11 A 9 9 0 0 0 11 20 A 9 9 0 0 0 20 11 A 9 9 0 0 0 11 2 z M 11 4 A 7 7 0 0 1 18 11 A 7 7 0 0 1 11 18 A 7 7 0 0 1 4 11 A 7 7 0 0 1 11 4 z" transform="translate(0,10)"/></g></svg>